solid CATIA STL
  facet normal  4.335366e-001  3.999497e-002  9.002480e-001
    outer loop
      vertex  3.805205e+000  4.000000e+000  1.050541e+001
      vertex  4.364429e+000  7.000000e+000  1.010282e+001
      vertex  1.557647e+000  7.000000e+000  1.145450e+001
    endloop
  endfacet
  facet normal -3.738081e-001 -1.334589e-002  9.274100e-001
    outer loop
      vertex -3.805205e+000  4.000000e+000  1.050541e+001
      vertex -1.332828e+000  4.000000e+000  1.150194e+001
      vertex -1.557647e+000  7.000000e+000  1.145450e+001
    endloop
  endfacet
  facet normal -4.335366e-001  3.999497e-002  9.002480e-001
    outer loop
      vertex -1.557647e+000  7.000000e+000  1.145450e+001
      vertex -4.364429e+000  7.000000e+000  1.010282e+001
      vertex -3.805205e+000  4.000000e+000  1.050541e+001
    endloop
  endfacet
  facet normal  8.823359e-001 -1.571644e-002  4.703578e-001
    outer loop
      vertex  5.725770e+000  4.000000e+000  8.656855e+000
      vertex  6.548866e+000  3.685569e+000  7.102318e+000
      vertex  6.306782e+000  7.000000e+000  7.667186e+000
    endloop
  endfacet
  facet normal  7.806829e-001  5.418526e-002  6.225739e-001
    outer loop
      vertex  5.725770e+000  4.000000e+000  8.656855e+000
      vertex  6.306782e+000  7.000000e+000  7.667186e+000
      vertex  4.364429e+000  7.000000e+000  1.010282e+001
    endloop
  endfacet
  facet normal  6.931025e-001 -3.256491e-002  7.201030e-001
    outer loop
      vertex  5.725770e+000  4.000000e+000  8.656855e+000
      vertex  4.364429e+000  7.000000e+000  1.010282e+001
      vertex  3.805205e+000  4.000000e+000  1.050541e+001
    endloop
  endfacet
  facet normal -6.931025e-001 -3.256491e-002  7.201030e-001
    outer loop
      vertex -5.725770e+000  4.000000e+000  8.656855e+000
      vertex -3.805205e+000  4.000000e+000  1.050541e+001
      vertex -4.364429e+000  7.000000e+000  1.010282e+001
    endloop
  endfacet
  facet normal -7.806829e-001  5.418526e-002  6.225739e-001
    outer loop
      vertex -5.725770e+000  4.000000e+000  8.656855e+000
      vertex -4.364429e+000  7.000000e+000  1.010282e+001
      vertex -6.306782e+000  7.000000e+000  7.667186e+000
    endloop
  endfacet
  facet normal -8.823359e-001 -1.571644e-002  4.703578e-001
    outer loop
      vertex -5.725770e+000  4.000000e+000  8.656855e+000
      vertex -6.306782e+000  7.000000e+000  7.667186e+000
      vertex -6.548866e+000  3.685569e+000  7.102318e+000
    endloop
  endfacet
  facet normal  9.690787e-001  2.901948e-002  2.450394e-001
    outer loop
      vertex  6.306782e+000  7.000000e+000  7.667186e+000
      vertex  6.548866e+000  3.685569e+000  7.102318e+000
      vertex  6.896647e+000  2.828427e+000  5.828427e+000
    endloop
  endfacet
  facet normal  9.787423e-001  1.809500e-001 -9.654363e-002
    outer loop
      vertex  6.306782e+000  7.000000e+000  7.667186e+000
      vertex  6.896647e+000  2.828427e+000  5.828427e+000
      vertex  7.000000e+000  1.629994e+000  4.630000e+000
    endloop
  endfacet
  facet normal  9.749280e-001  -0.000000e+000  2.225209e-001
    outer loop
      vertex  6.306782e+000  7.000000e+000  7.667186e+000
      vertex  7.000000e+000  1.629994e+000  4.630000e+000
      vertex  7.000000e+000  7.000000e+000  4.630000e+000
    endloop
  endfacet
  facet normal  0.000000e+000  1.581312e-002  9.998750e-001
    outer loop
      vertex -1.557647e+000  7.000000e+000  1.145450e+001
      vertex -1.332828e+000  4.000000e+000  1.150194e+001
      vertex  1.557647e+000  7.000000e+000  1.145450e+001
    endloop
  endfacet
  facet normal  0.000000e+000  1.581312e-002  9.998749e-001
    outer loop
      vertex  1.557647e+000  7.000000e+000  1.145450e+001
      vertex -1.332828e+000  4.000000e+000  1.150194e+001
      vertex  1.332828e+000  4.000000e+000  1.150194e+001
    endloop
  endfacet
  facet normal  3.738081e-001 -1.334589e-002  9.274100e-001
    outer loop
      vertex  1.557647e+000  7.000000e+000  1.145450e+001
      vertex  1.332828e+000  4.000000e+000  1.150194e+001
      vertex  3.805205e+000  4.000000e+000  1.050541e+001
    endloop
  endfacet
  facet normal -9.689888e-001  2.895100e-002  2.454027e-001
    outer loop
      vertex -6.548866e+000  3.685569e+000  7.102318e+000
      vertex -6.306782e+000  7.000000e+000  7.667186e+000
      vertex -6.895931e+000  2.832544e+000  5.832544e+000
    endloop
  endfacet
  facet normal -9.741542e-001  3.983227e-002  2.223443e-001
    outer loop
      vertex -6.895931e+000  2.832544e+000  5.832544e+000
      vertex -6.306782e+000  7.000000e+000  7.667186e+000
      vertex -7.000000e+000  7.000000e+000  4.630000e+000
    endloop
  endfacet
  facet normal -9.962763e-001  0.000000e+000  8.621866e-002
    outer loop
      vertex -6.895931e+000  2.832544e+000  5.832544e+000
      vertex -7.000000e+000  7.000000e+000  4.630000e+000
      vertex -7.000000e+000  1.629994e+000  4.630000e+000
    endloop
  endfacet
  facet normal -3.683225e-008 -7.071074e-001  7.071062e-001
    outer loop
      vertex -6.895931e+000  2.832544e+000  5.832544e+000
      vertex -2.500000e+000  1.630002e+000  4.630000e+000
      vertex -2.194031e+000  2.828427e+000  5.828427e+000
    endloop
  endfacet
  facet normal  1.255036e-006 -7.071050e-001  7.071086e-001
    outer loop
      vertex -6.895931e+000  2.832544e+000  5.832544e+000
      vertex -7.000000e+000  1.629994e+000  4.630000e+000
      vertex -2.500000e+000  1.630002e+000  4.630000e+000
    endloop
  endfacet
  facet normal  1.255042e-006 -7.071082e-001  7.071054e-001
    outer loop
      vertex -2.500000e+000  1.630002e+000  4.630000e+000
      vertex -7.000000e+000  1.629994e+000  4.630000e+000
      vertex -7.000000e+000  1.171573e+000  4.171577e+000
    endloop
  endfacet
  facet normal  7.422860e-007 -7.071056e-001  7.071079e-001
    outer loop
      vertex -2.500000e+000  1.630002e+000  4.630000e+000
      vertex -7.000000e+000  1.171573e+000  4.171577e+000
      vertex -2.457609e+000  1.171573e+000  4.171573e+000
    endloop
  endfacet
  facet normal  0.000000e+000 -1.000000e+000  -0.000000e+000
    outer loop
      vertex  0.000000e+000  4.000000e+000  8.656855e+000
      vertex -3.805205e+000  4.000000e+000  1.050541e+001
      vertex -5.725770e+000  4.000000e+000  8.656855e+000
    endloop
  endfacet
  facet normal  0.000000e+000 -1.000000e+000  0.000000e+000
    outer loop
      vertex  1.332828e+000  4.000000e+000  1.150194e+001
      vertex -1.332828e+000  4.000000e+000  1.150194e+001
      vertex  3.805205e+000  4.000000e+000  1.050541e+001
    endloop
  endfacet
  facet normal  0.000000e+000 -1.000000e+000  0.000000e+000
    outer loop
      vertex  3.805205e+000  4.000000e+000  1.050541e+001
      vertex -1.332828e+000  4.000000e+000  1.150194e+001
      vertex -3.805205e+000  4.000000e+000  1.050541e+001
    endloop
  endfacet
  facet normal  0.000000e+000 -1.000000e+000  0.000000e+000
    outer loop
      vertex  3.805205e+000  4.000000e+000  1.050541e+001
      vertex -3.805205e+000  4.000000e+000  1.050541e+001
      vertex  5.725770e+000  4.000000e+000  8.656855e+000
    endloop
  endfacet
  facet normal  0.000000e+000 -1.000000e+000  0.000000e+000
    outer loop
      vertex  5.725770e+000  4.000000e+000  8.656855e+000
      vertex -3.805205e+000  4.000000e+000  1.050541e+001
      vertex  0.000000e+000  4.000000e+000  8.656855e+000
    endloop
  endfacet
  facet normal -7.357747e-005 -7.071081e-001  7.071054e-001
    outer loop
      vertex  7.000000e+000  1.171573e+000  4.171577e+000
      vertex  7.000000e+000  1.629994e+000  4.630000e+000
      vertex  6.896647e+000  2.828427e+000  5.828427e+000
    endloop
  endfacet
  facet normal  0.000000e+000 -7.071059e-001  7.071077e-001
    outer loop
      vertex  6.896647e+000  2.828427e+000  5.828427e+000
      vertex  2.194031e+000  2.828427e+000  5.828427e+000
      vertex  7.000000e+000  1.171573e+000  4.171577e+000
    endloop
  endfacet
  facet normal -7.189459e-007 -7.071069e-001  7.071067e-001
    outer loop
      vertex  7.000000e+000  1.171573e+000  4.171577e+000
      vertex  2.194031e+000  2.828427e+000  5.828427e+000
      vertex  2.500000e+000  1.630000e+000  4.630000e+000
    endloop
  endfacet
  facet normal -7.422846e-007 -7.071069e-001  7.071065e-001
    outer loop
      vertex  7.000000e+000  1.171573e+000  4.171577e+000
      vertex  2.500000e+000  1.630000e+000  4.630000e+000
      vertex  2.457610e+000  1.171573e+000  4.171573e+000
    endloop
  endfacet
  facet normal  9.689201e-001  0.000000e+000 -2.473738e-001
    outer loop
      vertex -2.500000e+000  1.630002e+000  4.630000e+000
      vertex -2.500000e+000  7.000000e+000  4.630000e+000
      vertex -2.194031e+000  2.828427e+000  5.828427e+000
    endloop
  endfacet
  facet normal  9.230589e-001 -4.213842e-002 -3.823435e-001
    outer loop
      vertex -2.194031e+000  2.828427e+000  5.828427e+000
      vertex -2.500000e+000  7.000000e+000  4.630000e+000
      vertex -1.767767e+000  7.000000e+000  6.397767e+000
    endloop
  endfacet
  facet normal  7.162803e-001  2.199902e-002 -6.974658e-001
    outer loop
      vertex -2.194031e+000  2.828427e+000  5.828427e+000
      vertex -1.767767e+000  7.000000e+000  6.397767e+000
      vertex -1.307312e+000  3.522150e+000  6.760947e+000
    endloop
  endfacet
  facet normal  3.600978e-001 -4.960759e-002 -9.315947e-001
    outer loop
      vertex -1.307312e+000  3.522150e+000  6.760947e+000
      vertex -1.767767e+000  7.000000e+000  6.397767e+000
      vertex -4.244246e-001  3.681926e+000  7.093709e+000
    endloop
  endfacet
  facet normal  3.823950e-001 -3.881617e-002 -9.231833e-001
    outer loop
      vertex -4.244246e-001  3.681926e+000  7.093709e+000
      vertex -1.767767e+000  7.000000e+000  6.397767e+000
      vertex -2.664535e-015  7.000000e+000  7.130000e+000
    endloop
  endfacet
  facet normal -6.803573e-002  1.961246e-002 -9.974901e-001
    outer loop
      vertex -4.244246e-001  3.681926e+000  7.093709e+000
      vertex -2.664535e-015  7.000000e+000  7.130000e+000
      vertex  7.578297e-001  3.646324e+000  7.012372e+000
    endloop
  endfacet
  facet normal -4.187526e-001 -6.285066e-002 -9.059227e-001
    outer loop
      vertex  7.578297e-001  3.646324e+000  7.012372e+000
      vertex -2.664535e-015  7.000000e+000  7.130000e+000
      vertex  1.269887e+000  3.534175e+000  6.783459e+000
    endloop
  endfacet
  facet normal -3.822463e-001 -4.778470e-002 -9.228241e-001
    outer loop
      vertex  1.269887e+000  3.534175e+000  6.783459e+000
      vertex -2.664535e-015  7.000000e+000  7.130000e+000
      vertex  1.767767e+000  7.000000e+000  6.397767e+000
    endloop
  endfacet
  facet normal -7.096661e-001  2.358622e-002 -7.041432e-001
    outer loop
      vertex  1.269887e+000  3.534175e+000  6.783459e+000
      vertex  1.767767e+000  7.000000e+000  6.397767e+000
      vertex  2.194031e+000  2.828427e+000  5.828427e+000
    endloop
  endfacet
  facet normal -9.238796e-001  0.000000e+000 -3.826834e-001
    outer loop
      vertex  2.500000e+000  7.000000e+000  4.630000e+000
      vertex  2.500000e+000  1.630000e+000  4.630000e+000
      vertex  1.767767e+000  7.000000e+000  6.397767e+000
    endloop
  endfacet
  facet normal -9.817491e-001 -7.655801e-002 -1.740912e-001
    outer loop
      vertex  1.767767e+000  7.000000e+000  6.397767e+000
      vertex  2.500000e+000  1.630000e+000  4.630000e+000
      vertex  2.194031e+000  2.828427e+000  5.828427e+000
    endloop
  endfacet
  facet normal  0.000000e+000 -9.801511e-001  1.982521e-001
    outer loop
      vertex  6.548866e+000  3.685569e+000  7.102318e+000
      vertex  5.725770e+000  4.000000e+000  8.656855e+000
      vertex  0.000000e+000  4.000000e+000  8.656855e+000
    endloop
  endfacet
  facet normal  0.000000e+000 -9.801511e-001  1.982521e-001
    outer loop
      vertex  6.548866e+000  3.685569e+000  7.102318e+000
      vertex  0.000000e+000  4.000000e+000  8.656855e+000
      vertex -5.725770e+000  4.000000e+000  8.656855e+000
    endloop
  endfacet
  facet normal  0.000000e+000 -9.801510e-001  1.982521e-001
    outer loop
      vertex  6.548866e+000  3.685569e+000  7.102318e+000
      vertex -5.725770e+000  4.000000e+000  8.656855e+000
      vertex -6.548866e+000  3.685569e+000  7.102318e+000
    endloop
  endfacet
  facet normal  0.000000e+000 -9.209349e-001  3.897165e-001
    outer loop
      vertex  6.548866e+000  3.685569e+000  7.102318e+000
      vertex -6.548866e+000  3.685569e+000  7.102318e+000
      vertex -4.244246e-001  3.681926e+000  7.093709e+000
    endloop
  endfacet
  facet normal -1.614564e-005 -9.161743e-001  4.007802e-001
    outer loop
      vertex  6.548866e+000  3.685569e+000  7.102318e+000
      vertex -4.244246e-001  3.681926e+000  7.093709e+000
      vertex  7.578297e-001  3.646324e+000  7.012372e+000
    endloop
  endfacet
  facet normal -7.231079e-004 -8.986561e-001  4.386531e-001
    outer loop
      vertex  6.548866e+000  3.685569e+000  7.102318e+000
      vertex  7.578297e-001  3.646324e+000  7.012372e+000
      vertex  1.269887e+000  3.534175e+000  6.783459e+000
    endloop
  endfacet
  facet normal -1.220806e-002 -8.097848e-001  5.866000e-001
    outer loop
      vertex  6.548866e+000  3.685569e+000  7.102318e+000
      vertex  1.269887e+000  3.534175e+000  6.783459e+000
      vertex  2.194031e+000  2.828427e+000  5.828427e+000
    endloop
  endfacet
  facet normal  0.000000e+000 -8.296737e-001  5.582486e-001
    outer loop
      vertex  6.548866e+000  3.685569e+000  7.102318e+000
      vertex  2.194031e+000  2.828427e+000  5.828427e+000
      vertex  6.896647e+000  2.828427e+000  5.828427e+000
    endloop
  endfacet
  facet normal -2.384979e-004 -8.300511e-001  5.576873e-001
    outer loop
      vertex -6.895931e+000  2.832544e+000  5.832544e+000
      vertex -2.194031e+000  2.828427e+000  5.828427e+000
      vertex -6.548866e+000  3.685569e+000  7.102318e+000
    endloop
  endfacet
  facet normal  1.314566e-002 -8.082110e-001  5.887463e-001
    outer loop
      vertex -6.548866e+000  3.685569e+000  7.102318e+000
      vertex -2.194031e+000  2.828427e+000  5.828427e+000
      vertex -1.307312e+000  3.522150e+000  6.760947e+000
    endloop
  endfacet
  facet normal  7.193530e-005 -9.015443e-001  4.326868e-001
    outer loop
      vertex -6.548866e+000  3.685569e+000  7.102318e+000
      vertex -1.307312e+000  3.522150e+000  6.760947e+000
      vertex -4.244246e-001  3.681926e+000  7.093709e+000
    endloop
  endfacet
  facet normal  7.808278e-001 -6.226895e-001 -5.065390e-002
    outer loop
      vertex  4.364429e+000 -5.472820e+000  0.000000e+000
      vertex  6.306782e+000 -3.037186e+000  0.000000e+000
      vertex  5.810733e+000 -3.903253e+000  3.000000e+000
    endloop
  endfacet
  facet normal  7.193626e-001 -6.944383e-001  1.651682e-002
    outer loop
      vertex  5.810733e+000 -3.903253e+000  3.000000e+000
      vertex  4.105642e+000 -5.669542e+000  3.000000e+000
      vertex  4.364429e+000 -5.472820e+000  0.000000e+000
    endloop
  endfacet
  facet normal -7.808278e-001 -6.226895e-001 -5.065390e-002
    outer loop
      vertex -4.364429e+000 -5.472820e+000  0.000000e+000
      vertex -5.810733e+000 -3.903253e+000  3.000000e+000
      vertex -6.306782e+000 -3.037186e+000  0.000000e+000
    endloop
  endfacet
  facet normal  9.749279e-001 -2.225209e-001  0.000000e+000
    outer loop
      vertex  7.000000e+000 -1.714449e-015  0.000000e+000
      vertex  7.000000e+000 -1.714449e-015  3.359281e+000
      vertex  6.306782e+000 -3.037186e+000  0.000000e+000
    endloop
  endfacet
  facet normal  9.884156e-001 -9.258336e-002 -1.202622e-001
    outer loop
      vertex  6.306782e+000 -3.037186e+000  0.000000e+000
      vertex  7.000000e+000 -1.714449e-015  3.359281e+000
      vertex  6.801091e+000 -1.656854e+000  3.000000e+000
    endloop
  endfacet
  facet normal  9.144683e-001 -4.031567e-001  3.482018e-002
    outer loop
      vertex  6.306782e+000 -3.037186e+000  0.000000e+000
      vertex  6.801091e+000 -1.656854e+000  3.000000e+000
      vertex  5.810733e+000 -3.903253e+000  3.000000e+000
    endloop
  endfacet
  facet normal  4.337821e-001 -9.007578e-001 -2.164715e-002
    outer loop
      vertex  4.364429e+000 -5.472820e+000  0.000000e+000
      vertex  4.105642e+000 -5.669542e+000  3.000000e+000
      vertex  1.557647e+000 -6.824495e+000  0.000000e+000
    endloop
  endfacet
  facet normal  4.352857e-001 -8.999929e-001 -2.321873e-002
    outer loop
      vertex  1.557647e+000 -6.824495e+000  0.000000e+000
      vertex  4.105642e+000 -5.669542e+000  3.000000e+000
      vertex  1.895547e+000 -6.738464e+000  3.000000e+000
    endloop
  endfacet
  facet normal  1.564185e-001 -9.876329e-001  1.070436e-002
    outer loop
      vertex  1.557647e+000 -6.824495e+000  0.000000e+000
      vertex  1.895547e+000 -6.738464e+000  3.000000e+000
      vertex  3.606492e-001 -6.990703e+000  2.156150e+000
    endloop
  endfacet
  facet normal  0.000000e+000 -9.970420e-001 -7.685742e-002
    outer loop
      vertex  1.557647e+000 -6.824495e+000  0.000000e+000
      vertex  3.606492e-001 -6.990703e+000  2.156150e+000
      vertex -1.557647e+000 -6.824495e+000  0.000000e+000
    endloop
  endfacet
  facet normal -2.489339e-002 -9.981871e-001 -5.479840e-002
    outer loop
      vertex -1.557647e+000 -6.824495e+000  0.000000e+000
      vertex  3.606492e-001 -6.990703e+000  2.156150e+000
      vertex -6.615690e-001 -6.968668e+000  2.219123e+000
    endloop
  endfacet
  facet normal -1.784155e-001 -9.839218e-001  8.120322e-003
    outer loop
      vertex -1.557647e+000 -6.824495e+000  0.000000e+000
      vertex -6.615690e-001 -6.968668e+000  2.219123e+000
      vertex -1.895547e+000 -6.738464e+000  3.000000e+000
    endloop
  endfacet
  facet normal -4.337687e-001 -9.007300e-001 -2.302672e-002
    outer loop
      vertex -1.557647e+000 -6.824495e+000  0.000000e+000
      vertex -1.895547e+000 -6.738464e+000  3.000000e+000
      vertex -4.364429e+000 -5.472820e+000  0.000000e+000
    endloop
  endfacet
  facet normal -4.353028e-001 -9.000280e-001 -2.146812e-002
    outer loop
      vertex -4.364429e+000 -5.472820e+000  0.000000e+000
      vertex -1.895547e+000 -6.738464e+000  3.000000e+000
      vertex -4.105642e+000 -5.669542e+000  3.000000e+000
    endloop
  endfacet
  facet normal -7.193626e-001 -6.944383e-001  1.651682e-002
    outer loop
      vertex -4.364429e+000 -5.472820e+000  0.000000e+000
      vertex -4.105642e+000 -5.669542e+000  3.000000e+000
      vertex -5.810733e+000 -3.903253e+000  3.000000e+000
    endloop
  endfacet
  facet normal -9.928706e-001 -1.191965e-001  0.000000e+000
    outer loop
      vertex -7.000000e+000  8.572244e-016  3.359281e+000
      vertex -7.000000e+000  8.572244e-016  0.000000e+000
      vertex -6.801091e+000 -1.656854e+000  3.000000e+000
    endloop
  endfacet
  facet normal -9.732779e-001 -2.221443e-001 -5.815556e-002
    outer loop
      vertex -6.801091e+000 -1.656854e+000  3.000000e+000
      vertex -7.000000e+000  8.572244e-016  0.000000e+000
      vertex -6.306782e+000 -3.037186e+000  0.000000e+000
    endloop
  endfacet
  facet normal -9.144683e-001 -4.031567e-001  3.482019e-002
    outer loop
      vertex -6.801091e+000 -1.656854e+000  3.000000e+000
      vertex -6.306782e+000 -3.037186e+000  0.000000e+000
      vertex -5.810733e+000 -3.903253e+000  3.000000e+000
    endloop
  endfacet
  facet normal  -0.000000e+000  0.000000e+000  1.000000e+000
    outer loop
      vertex -1.895547e+000 -1.656854e+000  3.000000e+000
      vertex -6.801091e+000 -1.656854e+000  3.000000e+000
      vertex -1.895547e+000 -6.738464e+000  3.000000e+000
    endloop
  endfacet
  facet normal  0.000000e+000  0.000000e+000  1.000000e+000
    outer loop
      vertex -1.895547e+000 -6.738464e+000  3.000000e+000
      vertex -6.801091e+000 -1.656854e+000  3.000000e+000
      vertex -5.810733e+000 -3.903253e+000  3.000000e+000
    endloop
  endfacet
  facet normal  0.000000e+000  0.000000e+000  1.000000e+000
    outer loop
      vertex -1.895547e+000 -6.738464e+000  3.000000e+000
      vertex -5.810733e+000 -3.903253e+000  3.000000e+000
      vertex -4.105642e+000 -5.669542e+000  3.000000e+000
    endloop
  endfacet
  facet normal -1.000000e+000  0.000000e+000  0.000000e+000
    outer loop
      vertex -7.000000e+000  8.572244e-016  0.000000e+000
      vertex -7.000000e+000  8.572244e-016  3.359281e+000
      vertex -7.000000e+000  1.171573e+000  4.171577e+000
    endloop
  endfacet
  facet normal -1.000000e+000  0.000000e+000  -0.000000e+000
    outer loop
      vertex -7.000000e+000  8.572244e-016  0.000000e+000
      vertex -7.000000e+000  1.171573e+000  4.171577e+000
      vertex -7.000000e+000  1.629994e+000  4.630000e+000
    endloop
  endfacet
  facet normal -1.000000e+000  0.000000e+000  -0.000000e+000
    outer loop
      vertex -7.000000e+000  8.572244e-016  0.000000e+000
      vertex -7.000000e+000  1.629994e+000  4.630000e+000
      vertex -7.000000e+000  7.000000e+000  4.630000e+000
    endloop
  endfacet
  facet normal -1.000000e+000  0.000000e+000  -0.000000e+000
    outer loop
      vertex -7.000000e+000  8.572244e-016  0.000000e+000
      vertex -7.000000e+000  7.000000e+000  4.630000e+000
      vertex -7.000000e+000  7.000000e+000  0.000000e+000
    endloop
  endfacet
  facet normal  3.054341e-001  7.373831e-001  6.024750e-001
    outer loop
      vertex -1.767767e+000 -1.767767e+000  2.000000e+000
      vertex -7.165555e-001 -2.395109e+000  2.234891e+000
      vertex -4.592274e-016 -2.500000e+000  2.000000e+000
    endloop
  endfacet
  facet normal  4.553823e-001  8.554342e-001  2.466970e-001
    outer loop
      vertex -1.183029e+000 -2.202369e+000  2.427628e+000
      vertex -7.165555e-001 -2.395109e+000  2.234891e+000
      vertex -1.767767e+000 -1.767767e+000  2.000000e+000
    endloop
  endfacet
  facet normal  6.107272e-001  7.912353e-001 -3.096710e-002
    outer loop
      vertex -1.183029e+000 -2.202369e+000  2.427628e+000
      vertex -1.767767e+000 -1.767767e+000  2.000000e+000
      vertex -1.895547e+000 -1.630000e+000  3.000000e+000
    endloop
  endfacet
  facet normal -5.945638e-001  8.032995e-001 -3.469452e-002
    outer loop
      vertex  1.101451e+000 -2.244283e+000  2.385717e+000
      vertex  1.895547e+000 -1.630000e+000  3.000000e+000
      vertex  1.767767e+000 -1.767767e+000  2.000000e+000
    endloop
  endfacet
  facet normal -8.602604e-001  5.082913e-001  3.989870e-002
    outer loop
      vertex  1.767767e+000 -1.767767e+000  2.000000e+000
      vertex  1.895547e+000 -1.630000e+000  3.000000e+000
      vertex  2.336200e+000 -8.900378e-001  3.074189e+000
    endloop
  endfacet
  facet normal -9.098635e-001  3.768778e-001  1.735265e-001
    outer loop
      vertex  1.767767e+000 -1.767767e+000  2.000000e+000
      vertex  2.336200e+000 -8.900378e-001  3.074189e+000
      vertex  2.500000e+000  0.000000e+000  2.000000e+000
    endloop
  endfacet
  facet normal -9.834837e-001  1.809970e-001  7.391666e-018
    outer loop
      vertex  2.500000e+000  0.000000e+000  2.000000e+000
      vertex  2.336200e+000 -8.900378e-001  3.074189e+000
      vertex  2.500000e+000 -5.551115e-017  3.359281e+000
    endloop
  endfacet
  facet normal -3.426867e-001  8.321302e-001  4.360335e-001
    outer loop
      vertex  1.101451e+000 -2.244283e+000  2.385717e+000
      vertex  1.767767e+000 -1.767767e+000  2.000000e+000
      vertex  1.788315e-001 -2.493596e+000  2.136404e+000
    endloop
  endfacet
  facet normal -3.478837e-001  8.398656e-001  4.166566e-001
    outer loop
      vertex  1.788315e-001 -2.493596e+000  2.136404e+000
      vertex  1.767767e+000 -1.767767e+000  2.000000e+000
      vertex -4.592274e-016 -2.500000e+000  2.000000e+000
    endloop
  endfacet
  facet normal  8.999799e-002  9.823275e-001 -1.641129e-001
    outer loop
      vertex  1.788315e-001 -2.493596e+000  2.136404e+000
      vertex -4.592274e-016 -2.500000e+000  2.000000e+000
      vertex -7.165555e-001 -2.395109e+000  2.234891e+000
    endloop
  endfacet
  facet normal  8.602604e-001  5.082914e-001  3.989869e-002
    outer loop
      vertex -1.895547e+000 -1.630000e+000  3.000000e+000
      vertex -1.767767e+000 -1.767767e+000  2.000000e+000
      vertex -2.336200e+000 -8.900380e-001  3.074189e+000
    endloop
  endfacet
  facet normal  9.098635e-001  3.768778e-001  1.735266e-001
    outer loop
      vertex -2.336200e+000 -8.900380e-001  3.074189e+000
      vertex -1.767767e+000 -1.767767e+000  2.000000e+000
      vertex -2.500000e+000  3.061516e-016  2.000000e+000
    endloop
  endfacet
  facet normal  9.834837e-001  1.809970e-001  -0.000000e+000
    outer loop
      vertex -2.336200e+000 -8.900380e-001  3.074189e+000
      vertex -2.500000e+000  3.061516e-016  2.000000e+000
      vertex -2.500000e+000  3.061516e-016  3.359283e+000
    endloop
  endfacet
  facet normal -6.107272e-001 -7.912353e-001 -3.096710e-002
    outer loop
      vertex  1.183029e+000  2.202369e+000  2.427628e+000
      vertex  1.767767e+000  1.767767e+000  2.000000e+000
      vertex  1.895547e+000  1.630000e+000  3.000000e+000
    endloop
  endfacet
  facet normal -3.054341e-001 -7.373831e-001  6.024750e-001
    outer loop
      vertex  1.767767e+000  1.767767e+000  2.000000e+000
      vertex  7.165555e-001  2.395109e+000  2.234891e+000
      vertex  1.530758e-016  2.500000e+000  2.000000e+000
    endloop
  endfacet
  facet normal -4.553823e-001 -8.554342e-001  2.466970e-001
    outer loop
      vertex  1.183029e+000  2.202369e+000  2.427628e+000
      vertex  7.165555e-001  2.395109e+000  2.234891e+000
      vertex  1.767767e+000  1.767767e+000  2.000000e+000
    endloop
  endfacet
  facet normal -9.870244e-001 -1.605701e-001 -6.557459e-018
    outer loop
      vertex  2.500000e+000  0.000000e+000  2.000000e+000
      vertex  2.500000e+000 -5.551115e-017  3.359281e+000
      vertex  2.371086e+000  7.924337e-001  3.837567e+000
    endloop
  endfacet
  facet normal -9.601319e-001 -2.748263e-001  5.115858e-002
    outer loop
      vertex  2.500000e+000  0.000000e+000  2.000000e+000
      vertex  2.371086e+000  7.924337e-001  3.837567e+000
      vertex  2.363424e+000  8.150015e-001  3.814998e+000
    endloop
  endfacet
  facet normal -9.065945e-001 -4.062561e-001  1.142041e-001
    outer loop
      vertex  2.500000e+000  0.000000e+000  2.000000e+000
      vertex  2.363424e+000  8.150015e-001  3.814998e+000
      vertex  1.895547e+000  1.630000e+000  3.000000e+000
    endloop
  endfacet
  facet normal -9.219140e-001 -3.818693e-001  6.519361e-002
    outer loop
      vertex  2.500000e+000  0.000000e+000  2.000000e+000
      vertex  1.895547e+000  1.630000e+000  3.000000e+000
      vertex  1.767767e+000  1.767767e+000  2.000000e+000
    endloop
  endfacet
  facet normal  9.691346e-001 -2.221636e-001  1.068714e-001
    outer loop
      vertex -2.371086e+000  7.924340e-001  3.837566e+000
      vertex -2.500000e+000  3.061516e-016  3.359283e+000
      vertex -2.363424e+000  8.150015e-001  3.814998e+000
    endloop
  endfacet
  facet normal  9.862478e-001 -1.652732e-001  0.000000e+000
    outer loop
      vertex -2.363424e+000  8.150015e-001  3.814998e+000
      vertex -2.500000e+000  3.061516e-016  3.359283e+000
      vertex -2.500000e+000  3.061516e-016  2.000000e+000
    endloop
  endfacet
  facet normal  9.065945e-001 -4.062561e-001  1.142041e-001
    outer loop
      vertex -2.363424e+000  8.150015e-001  3.814998e+000
      vertex -2.500000e+000  3.061516e-016  2.000000e+000
      vertex -1.895547e+000  1.630000e+000  3.000000e+000
    endloop
  endfacet
  facet normal  9.219140e-001 -3.818693e-001  6.519361e-002
    outer loop
      vertex -1.895547e+000  1.630000e+000  3.000000e+000
      vertex -2.500000e+000  3.061516e-016  2.000000e+000
      vertex -1.767767e+000  1.767767e+000  2.000000e+000
    endloop
  endfacet
  facet normal  5.945638e-001 -8.032995e-001 -3.469452e-002
    outer loop
      vertex -1.895547e+000  1.630000e+000  3.000000e+000
      vertex -1.767767e+000  1.767767e+000  2.000000e+000
      vertex -1.101451e+000  2.244283e+000  2.385717e+000
    endloop
  endfacet
  facet normal  3.426867e-001 -8.321302e-001  4.360335e-001
    outer loop
      vertex -1.101451e+000  2.244283e+000  2.385717e+000
      vertex -1.767767e+000  1.767767e+000  2.000000e+000
      vertex -1.788315e-001  2.493596e+000  2.136404e+000
    endloop
  endfacet
  facet normal  3.478837e-001 -8.398656e-001  4.166566e-001
    outer loop
      vertex -1.788315e-001  2.493596e+000  2.136404e+000
      vertex -1.767767e+000  1.767767e+000  2.000000e+000
      vertex  1.530758e-016  2.500000e+000  2.000000e+000
    endloop
  endfacet
  facet normal -8.999799e-002 -9.823275e-001 -1.641129e-001
    outer loop
      vertex -1.788315e-001  2.493596e+000  2.136404e+000
      vertex  1.530758e-016  2.500000e+000  2.000000e+000
      vertex  7.165555e-001  2.395109e+000  2.234891e+000
    endloop
  endfacet
  facet normal  6.090123e-001  5.856314e-003  7.931391e-001
    outer loop
      vertex -1.101451e+000  2.244283e+000  2.385717e+000
      vertex -1.767767e+000  7.000000e+000  2.862233e+000
      vertex -1.895547e+000  1.630000e+000  3.000000e+000
    endloop
  endfacet
  facet normal -3.824001e-001 -3.847570e-002  9.231955e-001
    outer loop
      vertex  1.767767e+000  7.000000e+000  2.862233e+000
      vertex  8.881784e-016  7.000000e+000  2.130000e+000
      vertex  7.165555e-001  2.395109e+000  2.234891e+000
    endloop
  endfacet
  facet normal -3.940116e-001 -3.517609e-002  9.184322e-001
    outer loop
      vertex  1.767767e+000  7.000000e+000  2.862233e+000
      vertex  7.165555e-001  2.395109e+000  2.234891e+000
      vertex  1.183029e+000  2.202369e+000  2.427628e+000
    endloop
  endfacet
  facet normal -6.237103e-001  5.211520e-003  7.816383e-001
    outer loop
      vertex  1.767767e+000  7.000000e+000  2.862233e+000
      vertex  1.183029e+000  2.202369e+000  2.427628e+000
      vertex  1.895547e+000  1.630000e+000  3.000000e+000
    endloop
  endfacet
  facet normal -8.706985e-001 -8.102670e-003  4.917504e-001
    outer loop
      vertex  1.767767e+000  7.000000e+000  2.862233e+000
      vertex  1.895547e+000  1.630000e+000  3.000000e+000
      vertex  2.363424e+000  8.150015e-001  3.814998e+000
    endloop
  endfacet
  facet normal -9.598717e-001 -4.993221e-002  2.759584e-001
    outer loop
      vertex  1.767767e+000  7.000000e+000  2.862233e+000
      vertex  2.363424e+000  8.150015e-001  3.814998e+000
      vertex  2.371086e+000  7.924337e-001  3.837567e+000
    endloop
  endfacet
  facet normal -9.532207e-001 -4.569672e-002  2.988013e-001
    outer loop
      vertex  1.767767e+000  7.000000e+000  2.862233e+000
      vertex  2.371086e+000  7.924337e-001  3.837567e+000
      vertex  2.457610e+000  1.171573e+000  4.171573e+000
    endloop
  endfacet
  facet normal -9.824783e-001 -7.828829e-002  1.691371e-001
    outer loop
      vertex  1.767767e+000  7.000000e+000  2.862233e+000
      vertex  2.457610e+000  1.171573e+000  4.171573e+000
      vertex  2.500000e+000  1.630000e+000  4.630000e+000
    endloop
  endfacet
  facet normal -9.238796e-001  0.000000e+000  3.826834e-001
    outer loop
      vertex  1.767767e+000  7.000000e+000  2.862233e+000
      vertex  2.500000e+000  1.630000e+000  4.630000e+000
      vertex  2.500000e+000  7.000000e+000  4.630000e+000
    endloop
  endfacet
  facet normal  9.957519e-001  -0.000000e+000  9.207726e-002
    outer loop
      vertex -2.500000e+000  7.000000e+000  4.630000e+000
      vertex -2.500000e+000  1.630002e+000  4.630000e+000
      vertex -2.457609e+000  1.171573e+000  4.171573e+000
    endloop
  endfacet
  facet normal  9.640197e-001 -1.386868e-002  2.654688e-001
    outer loop
      vertex -2.500000e+000  7.000000e+000  4.630000e+000
      vertex -2.457609e+000  1.171573e+000  4.171573e+000
      vertex -2.371086e+000  7.924340e-001  3.837566e+000
    endloop
  endfacet
  facet normal  9.523912e-001 -1.906489e-002  3.042818e-001
    outer loop
      vertex -2.500000e+000  7.000000e+000  4.630000e+000
      vertex -2.371086e+000  7.924340e-001  3.837566e+000
      vertex -2.363424e+000  8.150015e-001  3.814998e+000
    endloop
  endfacet
  facet normal  8.839837e-001 -4.183799e-002  4.656419e-001
    outer loop
      vertex -2.500000e+000  7.000000e+000  4.630000e+000
      vertex -2.363424e+000  8.150015e-001  3.814998e+000
      vertex -1.895547e+000  1.630000e+000  3.000000e+000
    endloop
  endfacet
  facet normal  9.238112e-001 -1.216533e-002  3.826551e-001
    outer loop
      vertex -2.500000e+000  7.000000e+000  4.630000e+000
      vertex -1.895547e+000  1.630000e+000  3.000000e+000
      vertex -1.767767e+000  7.000000e+000  2.862233e+000
    endloop
  endfacet
  facet normal  3.823934e-001 -3.892474e-002  9.231793e-001
    outer loop
      vertex -1.767767e+000  7.000000e+000  2.862233e+000
      vertex -1.101451e+000  2.244283e+000  2.385717e+000
      vertex  8.881784e-016  7.000000e+000  2.130000e+000
    endloop
  endfacet
  facet normal  2.631393e-001 -9.071403e-003  9.647151e-001
    outer loop
      vertex  8.881784e-016  7.000000e+000  2.130000e+000
      vertex -1.101451e+000  2.244283e+000  2.385717e+000
      vertex -1.788315e-001  2.493596e+000  2.136404e+000
    endloop
  endfacet
  facet normal -1.087096e-001  5.726694e-003  9.940571e-001
    outer loop
      vertex  8.881784e-016  7.000000e+000  2.130000e+000
      vertex -1.788315e-001  2.493596e+000  2.136404e+000
      vertex  7.165555e-001  2.395109e+000  2.234891e+000
    endloop
  endfacet
  facet normal  6.262665e-001  0.000000e+000  7.796090e-001
    outer loop
      vertex -1.183029e+000 -2.202369e+000  2.427628e+000
      vertex -1.895547e+000 -1.630000e+000  3.000000e+000
      vertex -1.895547e+000 -1.656854e+000  3.000000e+000
    endloop
  endfacet
  facet normal -4.817678e-001  0.000000e+000  8.762989e-001
    outer loop
      vertex  3.606492e-001 -6.990703e+000  2.156150e+000
      vertex  1.895547e+000 -6.738464e+000  3.000000e+000
      vertex  1.895547e+000 -1.656854e+000  3.000000e+000
    endloop
  endfacet
  facet normal -4.817678e-001  0.000000e+000  8.762989e-001
    outer loop
      vertex  3.606492e-001 -6.990703e+000  2.156150e+000
      vertex  1.895547e+000 -1.656854e+000  3.000000e+000
      vertex  1.895547e+000 -1.630000e+000  3.000000e+000
    endloop
  endfacet
  facet normal -6.406717e-001  6.298223e-002  7.652274e-001
    outer loop
      vertex  3.606492e-001 -6.990703e+000  2.156150e+000
      vertex  1.895547e+000 -1.630000e+000  3.000000e+000
      vertex  1.101451e+000 -2.244283e+000  2.385717e+000
    endloop
  endfacet
  facet normal -2.592888e-001 -6.242445e-003  9.657796e-001
    outer loop
      vertex  3.606492e-001 -6.990703e+000  2.156150e+000
      vertex  1.101451e+000 -2.244283e+000  2.385717e+000
      vertex  1.788315e-001 -2.493596e+000  2.136404e+000
    endloop
  endfacet
  facet normal  1.102883e-001  8.822825e-003  9.938604e-001
    outer loop
      vertex  3.606492e-001 -6.990703e+000  2.156150e+000
      vertex  1.788315e-001 -2.493596e+000  2.136404e+000
      vertex -7.165555e-001 -2.395109e+000  2.234891e+000
    endloop
  endfacet
  facet normal  6.142946e-002 -2.702427e-003  9.981077e-001
    outer loop
      vertex  3.606492e-001 -6.990703e+000  2.156150e+000
      vertex -7.165555e-001 -2.395109e+000  2.234891e+000
      vertex -6.615690e-001 -6.968668e+000  2.219123e+000
    endloop
  endfacet
  facet normal  5.352036e-001  3.522438e-003  8.447158e-001
    outer loop
      vertex -6.615690e-001 -6.968668e+000  2.219123e+000
      vertex -7.165555e-001 -2.395109e+000  2.234891e+000
      vertex -1.895547e+000 -6.738464e+000  3.000000e+000
    endloop
  endfacet
  facet normal  3.998452e-001  5.265823e-002  9.150688e-001
    outer loop
      vertex -1.895547e+000 -6.738464e+000  3.000000e+000
      vertex -7.165555e-001 -2.395109e+000  2.234891e+000
      vertex -1.183029e+000 -2.202369e+000  2.427628e+000
    endloop
  endfacet
  facet normal  6.262665e-001  0.000000e+000  7.796090e-001
    outer loop
      vertex -1.895547e+000 -6.738464e+000  3.000000e+000
      vertex -1.183029e+000 -2.202369e+000  2.427628e+000
      vertex -1.895547e+000 -1.656854e+000  3.000000e+000
    endloop
  endfacet
  facet normal  7.876856e-007 -6.610340e-001  7.503560e-001
    outer loop
      vertex -2.457609e+000  1.171573e+000  4.171573e+000
      vertex -7.000000e+000  1.171573e+000  4.171577e+000
      vertex -2.371086e+000  7.924340e-001  3.837566e+000
    endloop
  endfacet
  facet normal  1.262881e-002 -5.697370e-001  8.217301e-001
    outer loop
      vertex -2.371086e+000  7.924340e-001  3.837566e+000
      vertex -7.000000e+000  1.171573e+000  4.171577e+000
      vertex -7.000000e+000  8.572244e-016  3.359281e+000
    endloop
  endfacet
  facet normal -3.175212e-007 -5.167366e-001  8.561444e-001
    outer loop
      vertex -2.371086e+000  7.924340e-001  3.837566e+000
      vertex -7.000000e+000  8.572244e-016  3.359281e+000
      vertex -2.500000e+000  3.061516e-016  3.359283e+000
    endloop
  endfacet
  facet normal -3.531963e-007 -3.050491e-001  9.523367e-001
    outer loop
      vertex -2.500000e+000  3.061516e-016  3.359283e+000
      vertex -7.000000e+000  8.572244e-016  3.359281e+000
      vertex -2.336200e+000 -8.900380e-001  3.074189e+000
    endloop
  endfacet
  facet normal  1.975605e-002 -2.096129e-001  9.775848e-001
    outer loop
      vertex -2.336200e+000 -8.900380e-001  3.074189e+000
      vertex -7.000000e+000  8.572244e-016  3.359281e+000
      vertex -6.801091e+000 -1.656854e+000  3.000000e+000
    endloop
  endfacet
  facet normal  5.443581e-004 -9.943937e-002  9.950435e-001
    outer loop
      vertex -2.336200e+000 -8.900380e-001  3.074189e+000
      vertex -6.801091e+000 -1.656854e+000  3.000000e+000
      vertex -1.895547e+000 -1.630000e+000  3.000000e+000
    endloop
  endfacet
  facet normal  0.000000e+000  0.000000e+000  1.000000e+000
    outer loop
      vertex -1.895547e+000 -1.630000e+000  3.000000e+000
      vertex -6.801091e+000 -1.656854e+000  3.000000e+000
      vertex -1.895547e+000 -1.656854e+000  3.000000e+000
    endloop
  endfacet
  facet normal  0.000000e+000  -0.000000e+000  1.000000e+000
    outer loop
      vertex  1.895547e+000 -6.738464e+000  3.000000e+000
      vertex  4.105642e+000 -5.669542e+000  3.000000e+000
      vertex  5.810733e+000 -3.903253e+000  3.000000e+000
    endloop
  endfacet
  facet normal  0.000000e+000  -0.000000e+000  1.000000e+000
    outer loop
      vertex  1.895547e+000 -6.738464e+000  3.000000e+000
      vertex  5.810733e+000 -3.903253e+000  3.000000e+000
      vertex  6.801091e+000 -1.656854e+000  3.000000e+000
    endloop
  endfacet
  facet normal  0.000000e+000  0.000000e+000  1.000000e+000
    outer loop
      vertex  1.895547e+000 -6.738464e+000  3.000000e+000
      vertex  6.801091e+000 -1.656854e+000  3.000000e+000
      vertex  1.895547e+000 -1.656854e+000  3.000000e+000
    endloop
  endfacet
  facet normal  1.000000e+000  0.000000e+000  -0.000000e+000
    outer loop
      vertex  7.000000e+000 -1.714449e-015  0.000000e+000
      vertex  7.000000e+000  7.000000e+000  0.000000e+000
      vertex  7.000000e+000  7.000000e+000  4.630000e+000
    endloop
  endfacet
  facet normal  1.000000e+000  0.000000e+000  0.000000e+000
    outer loop
      vertex  7.000000e+000 -1.714449e-015  0.000000e+000
      vertex  7.000000e+000  7.000000e+000  4.630000e+000
      vertex  7.000000e+000  1.629994e+000  4.630000e+000
    endloop
  endfacet
  facet normal  1.000000e+000  0.000000e+000  0.000000e+000
    outer loop
      vertex  7.000000e+000 -1.714449e-015  0.000000e+000
      vertex  7.000000e+000  1.629994e+000  4.630000e+000
      vertex  7.000000e+000  1.171573e+000  4.171577e+000
    endloop
  endfacet
  facet normal  1.000000e+000  0.000000e+000  0.000000e+000
    outer loop
      vertex  7.000000e+000 -1.714449e-015  0.000000e+000
      vertex  7.000000e+000  1.171573e+000  4.171577e+000
      vertex  7.000000e+000 -1.714449e-015  3.359281e+000
    endloop
  endfacet
  facet normal -7.812494e-017 -2.119201e-001  9.772870e-001
    outer loop
      vertex  6.801091e+000 -1.656854e+000  3.000000e+000
      vertex  7.000000e+000 -1.714449e-015  3.359281e+000
      vertex  2.500000e+000 -5.551115e-017  3.359281e+000
    endloop
  endfacet
  facet normal -3.549314e-002 -2.989252e-001  9.536162e-001
    outer loop
      vertex  6.801091e+000 -1.656854e+000  3.000000e+000
      vertex  2.500000e+000 -5.551115e-017  3.359281e+000
      vertex  2.336200e+000 -8.900378e-001  3.074189e+000
    endloop
  endfacet
  facet normal -5.443580e-004 -9.943935e-002  9.950435e-001
    outer loop
      vertex  6.801091e+000 -1.656854e+000  3.000000e+000
      vertex  2.336200e+000 -8.900378e-001  3.074189e+000
      vertex  1.895547e+000 -1.630000e+000  3.000000e+000
    endloop
  endfacet
  facet normal  0.000000e+000  0.000000e+000  1.000000e+000
    outer loop
      vertex  6.801091e+000 -1.656854e+000  3.000000e+000
      vertex  1.895547e+000 -1.630000e+000  3.000000e+000
      vertex  1.895547e+000 -1.656854e+000  3.000000e+000
    endloop
  endfacet
  facet normal -8.626794e-007 -5.697824e-001  8.217956e-001
    outer loop
      vertex  7.000000e+000  1.171573e+000  4.171577e+000
      vertex  2.457610e+000  1.171573e+000  4.171573e+000
      vertex  7.000000e+000 -1.714449e-015  3.359281e+000
    endloop
  endfacet
  facet normal -3.445014e-002 -6.562029e-001  7.537977e-001
    outer loop
      vertex  7.000000e+000 -1.714449e-015  3.359281e+000
      vertex  2.457610e+000  1.171573e+000  4.171573e+000
      vertex  2.371086e+000  7.924337e-001  3.837567e+000
    endloop
  endfacet
  facet normal  0.000000e+000 -5.167385e-001  8.561433e-001
    outer loop
      vertex  7.000000e+000 -1.714449e-015  3.359281e+000
      vertex  2.371086e+000  7.924337e-001  3.837567e+000
      vertex  2.500000e+000 -5.551115e-017  3.359281e+000
    endloop
  endfacet
  facet normal -9.238794e-001  3.826835e-001  0.000000e+000
    outer loop
      vertex  1.500000e+000  0.000000e+000  2.000000e+000
      vertex  1.500000e+000  0.000000e+000  0.000000e+000
      vertex  1.060660e+000 -1.060660e+000  2.000000e+000
    endloop
  endfacet
  facet normal -9.238794e-001  3.826835e-001  0.000000e+000
    outer loop
      vertex  1.060660e+000 -1.060660e+000  2.000000e+000
      vertex  1.500000e+000  0.000000e+000  0.000000e+000
      vertex  1.060660e+000 -1.060660e+000  0.000000e+000
    endloop
  endfacet
  facet normal -3.826835e-001  9.238794e-001  0.000000e+000
    outer loop
      vertex  1.060660e+000 -1.060660e+000  2.000000e+000
      vertex  1.060660e+000 -1.060660e+000  0.000000e+000
      vertex -2.356946e-012 -1.500000e+000  2.000000e+000
    endloop
  endfacet
  facet normal -3.826835e-001  9.238794e-001 -4.509294e-013
    outer loop
      vertex -2.356946e-012 -1.500000e+000  2.000000e+000
      vertex  1.060660e+000 -1.060660e+000  0.000000e+000
      vertex -2.755364e-016 -1.500000e+000  0.000000e+000
    endloop
  endfacet
  facet normal  3.826835e-001  9.238794e-001  4.509294e-013
    outer loop
      vertex -2.356946e-012 -1.500000e+000  2.000000e+000
      vertex -2.755364e-016 -1.500000e+000  0.000000e+000
      vertex -1.060660e+000 -1.060660e+000  2.000000e+000
    endloop
  endfacet
  facet normal  3.826835e-001  9.238794e-001  0.000000e+000
    outer loop
      vertex -1.060660e+000 -1.060660e+000  2.000000e+000
      vertex -2.755364e-016 -1.500000e+000  0.000000e+000
      vertex -1.060660e+000 -1.060660e+000  0.000000e+000
    endloop
  endfacet
  facet normal  9.238794e-001  3.826835e-001  -0.000000e+000
    outer loop
      vertex -1.060660e+000 -1.060660e+000  2.000000e+000
      vertex -1.060660e+000 -1.060660e+000  0.000000e+000
      vertex -1.500000e+000  1.836910e-016  2.000000e+000
    endloop
  endfacet
  facet normal  9.238794e-001  3.826835e-001  0.000000e+000
    outer loop
      vertex -1.500000e+000  1.836910e-016  2.000000e+000
      vertex -1.060660e+000 -1.060660e+000  0.000000e+000
      vertex -1.500000e+000  1.836910e-016  0.000000e+000
    endloop
  endfacet
  facet normal  9.238794e-001 -3.826835e-001  0.000000e+000
    outer loop
      vertex -1.500000e+000  1.836910e-016  2.000000e+000
      vertex -1.500000e+000  1.836910e-016  0.000000e+000
      vertex -1.060660e+000  1.060660e+000  2.000000e+000
    endloop
  endfacet
  facet normal  9.238794e-001 -3.826835e-001  0.000000e+000
    outer loop
      vertex -1.060660e+000  1.060660e+000  2.000000e+000
      vertex -1.500000e+000  1.836910e-016  0.000000e+000
      vertex -1.060660e+000  1.060660e+000  0.000000e+000
    endloop
  endfacet
  facet normal  3.826835e-001 -9.238794e-001  0.000000e+000
    outer loop
      vertex -1.060660e+000  1.060660e+000  2.000000e+000
      vertex -1.060660e+000  1.060660e+000  0.000000e+000
      vertex -2.356912e-012  1.500000e+000  2.000000e+000
    endloop
  endfacet
  facet normal  3.826835e-001 -9.238794e-001  4.509931e-013
    outer loop
      vertex -2.356912e-012  1.500000e+000  2.000000e+000
      vertex -1.060660e+000  1.060660e+000  0.000000e+000
      vertex  9.184548e-017  1.500000e+000  0.000000e+000
    endloop
  endfacet
  facet normal -3.826835e-001 -9.238794e-001 -4.509931e-013
    outer loop
      vertex -2.356912e-012  1.500000e+000  2.000000e+000
      vertex  9.184548e-017  1.500000e+000  0.000000e+000
      vertex  1.060660e+000  1.060660e+000  2.000000e+000
    endloop
  endfacet
  facet normal -3.826835e-001 -9.238794e-001  -0.000000e+000
    outer loop
      vertex  1.060660e+000  1.060660e+000  2.000000e+000
      vertex  9.184548e-017  1.500000e+000  0.000000e+000
      vertex  1.060660e+000  1.060660e+000  0.000000e+000
    endloop
  endfacet
  facet normal -9.238794e-001 -3.826835e-001  0.000000e+000
    outer loop
      vertex  1.060660e+000  1.060660e+000  2.000000e+000
      vertex  1.060660e+000  1.060660e+000  0.000000e+000
      vertex  1.500000e+000  0.000000e+000  2.000000e+000
    endloop
  endfacet
  facet normal -9.238794e-001 -3.826835e-001  -0.000000e+000
    outer loop
      vertex  1.500000e+000  0.000000e+000  2.000000e+000
      vertex  1.060660e+000  1.060660e+000  0.000000e+000
      vertex  1.500000e+000  0.000000e+000  0.000000e+000
    endloop
  endfacet
  facet normal  0.000000e+000  -0.000000e+000  1.000000e+000
    outer loop
      vertex -1.767767e+000  1.767767e+000  2.000000e+000
      vertex -2.356912e-012  1.500000e+000  2.000000e+000
      vertex  1.530758e-016  2.500000e+000  2.000000e+000
    endloop
  endfacet
  facet normal  0.000000e+000  0.000000e+000  1.000000e+000
    outer loop
      vertex  1.767767e+000 -1.767767e+000  2.000000e+000
      vertex -2.356946e-012 -1.500000e+000  2.000000e+000
      vertex -4.592274e-016 -2.500000e+000  2.000000e+000
    endloop
  endfacet
  facet normal  0.000000e+000  0.000000e+000  1.000000e+000
    outer loop
      vertex -4.592274e-016 -2.500000e+000  2.000000e+000
      vertex -2.356946e-012 -1.500000e+000  2.000000e+000
      vertex -1.767767e+000 -1.767767e+000  2.000000e+000
    endloop
  endfacet
  facet normal  0.000000e+000  0.000000e+000  1.000000e+000
    outer loop
      vertex -1.767767e+000 -1.767767e+000  2.000000e+000
      vertex -2.356946e-012 -1.500000e+000  2.000000e+000
      vertex -1.060660e+000 -1.060660e+000  2.000000e+000
    endloop
  endfacet
  facet normal  0.000000e+000  0.000000e+000  1.000000e+000
    outer loop
      vertex -1.767767e+000 -1.767767e+000  2.000000e+000
      vertex -1.060660e+000 -1.060660e+000  2.000000e+000
      vertex -2.500000e+000  3.061516e-016  2.000000e+000
    endloop
  endfacet
  facet normal  0.000000e+000  0.000000e+000  1.000000e+000
    outer loop
      vertex -2.500000e+000  3.061516e-016  2.000000e+000
      vertex -1.060660e+000 -1.060660e+000  2.000000e+000
      vertex -1.500000e+000  1.836910e-016  2.000000e+000
    endloop
  endfacet
  facet normal  0.000000e+000  0.000000e+000  1.000000e+000
    outer loop
      vertex -2.500000e+000  3.061516e-016  2.000000e+000
      vertex -1.500000e+000  1.836910e-016  2.000000e+000
      vertex -1.767767e+000  1.767767e+000  2.000000e+000
    endloop
  endfacet
  facet normal  0.000000e+000  0.000000e+000  1.000000e+000
    outer loop
      vertex -1.767767e+000  1.767767e+000  2.000000e+000
      vertex -1.500000e+000  1.836910e-016  2.000000e+000
      vertex -1.060660e+000  1.060660e+000  2.000000e+000
    endloop
  endfacet
  facet normal  0.000000e+000  -0.000000e+000  1.000000e+000
    outer loop
      vertex -1.767767e+000  1.767767e+000  2.000000e+000
      vertex -1.060660e+000  1.060660e+000  2.000000e+000
      vertex -2.356912e-012  1.500000e+000  2.000000e+000
    endloop
  endfacet
  facet normal  0.000000e+000  0.000000e+000  1.000000e+000
    outer loop
      vertex  1.530758e-016  2.500000e+000  2.000000e+000
      vertex -2.356912e-012  1.500000e+000  2.000000e+000
      vertex  1.767767e+000  1.767767e+000  2.000000e+000
    endloop
  endfacet
  facet normal  0.000000e+000  0.000000e+000  1.000000e+000
    outer loop
      vertex  1.767767e+000  1.767767e+000  2.000000e+000
      vertex -2.356912e-012  1.500000e+000  2.000000e+000
      vertex  1.060660e+000  1.060660e+000  2.000000e+000
    endloop
  endfacet
  facet normal  -0.000000e+000  0.000000e+000  1.000000e+000
    outer loop
      vertex  1.767767e+000  1.767767e+000  2.000000e+000
      vertex  1.060660e+000  1.060660e+000  2.000000e+000
      vertex  2.500000e+000  0.000000e+000  2.000000e+000
    endloop
  endfacet
  facet normal  0.000000e+000  0.000000e+000  1.000000e+000
    outer loop
      vertex  2.500000e+000  0.000000e+000  2.000000e+000
      vertex  1.060660e+000  1.060660e+000  2.000000e+000
      vertex  1.500000e+000  0.000000e+000  2.000000e+000
    endloop
  endfacet
  facet normal  -0.000000e+000  0.000000e+000  1.000000e+000
    outer loop
      vertex  2.500000e+000  0.000000e+000  2.000000e+000
      vertex  1.500000e+000  0.000000e+000  2.000000e+000
      vertex  1.767767e+000 -1.767767e+000  2.000000e+000
    endloop
  endfacet
  facet normal  0.000000e+000  0.000000e+000  1.000000e+000
    outer loop
      vertex  1.767767e+000 -1.767767e+000  2.000000e+000
      vertex  1.500000e+000  0.000000e+000  2.000000e+000
      vertex  1.060660e+000 -1.060660e+000  2.000000e+000
    endloop
  endfacet
  facet normal  0.000000e+000  0.000000e+000  1.000000e+000
    outer loop
      vertex  1.767767e+000 -1.767767e+000  2.000000e+000
      vertex  1.060660e+000 -1.060660e+000  2.000000e+000
      vertex -2.356946e-012 -1.500000e+000  2.000000e+000
    endloop
  endfacet
  facet normal  -0.000000e+000  1.000000e+000  0.000000e+000
    outer loop
      vertex  7.000000e+000  7.000000e+000  0.000000e+000
      vertex  8.881784e-016  7.000000e+000  2.130000e+000
      vertex  1.767767e+000  7.000000e+000  2.862233e+000
    endloop
  endfacet
  facet normal  -0.000000e+000  1.000000e+000  0.000000e+000
    outer loop
      vertex  7.000000e+000  7.000000e+000  0.000000e+000
      vertex  1.767767e+000  7.000000e+000  2.862233e+000
      vertex  2.500000e+000  7.000000e+000  4.630000e+000
    endloop
  endfacet
  facet normal  -0.000000e+000  1.000000e+000  0.000000e+000
    outer loop
      vertex  7.000000e+000  7.000000e+000  0.000000e+000
      vertex  2.500000e+000  7.000000e+000  4.630000e+000
      vertex  7.000000e+000  7.000000e+000  4.630000e+000
    endloop
  endfacet
  facet normal  -0.000000e+000  1.000000e+000  0.000000e+000
    outer loop
      vertex -7.000000e+000  7.000000e+000  0.000000e+000
      vertex -7.000000e+000  7.000000e+000  4.630000e+000
      vertex -2.500000e+000  7.000000e+000  4.630000e+000
    endloop
  endfacet
  facet normal  0.000000e+000  1.000000e+000  0.000000e+000
    outer loop
      vertex -7.000000e+000  7.000000e+000  0.000000e+000
      vertex -2.500000e+000  7.000000e+000  4.630000e+000
      vertex -1.767767e+000  7.000000e+000  2.862233e+000
    endloop
  endfacet
  facet normal  0.000000e+000  1.000000e+000  0.000000e+000
    outer loop
      vertex -7.000000e+000  7.000000e+000  0.000000e+000
      vertex -1.767767e+000  7.000000e+000  2.862233e+000
      vertex  8.881784e-016  7.000000e+000  2.130000e+000
    endloop
  endfacet
  facet normal  0.000000e+000  1.000000e+000  0.000000e+000
    outer loop
      vertex -7.000000e+000  7.000000e+000  0.000000e+000
      vertex  8.881784e-016  7.000000e+000  2.130000e+000
      vertex  7.000000e+000  7.000000e+000  0.000000e+000
    endloop
  endfacet
  facet normal  0.000000e+000  9.999999e-001  0.000000e+000
    outer loop
      vertex -7.000000e+000  7.000000e+000  4.630000e+000
      vertex -6.306782e+000  7.000000e+000  7.667186e+000
      vertex -2.500000e+000  7.000000e+000  4.630000e+000
    endloop
  endfacet
  facet normal  0.000000e+000  1.000000e+000  0.000000e+000
    outer loop
      vertex -2.500000e+000  7.000000e+000  4.630000e+000
      vertex -6.306782e+000  7.000000e+000  7.667186e+000
      vertex -4.364429e+000  7.000000e+000  1.010282e+001
    endloop
  endfacet
  facet normal  0.000000e+000  1.000000e+000  0.000000e+000
    outer loop
      vertex -2.500000e+000  7.000000e+000  4.630000e+000
      vertex -4.364429e+000  7.000000e+000  1.010282e+001
      vertex -1.767767e+000  7.000000e+000  6.397767e+000
    endloop
  endfacet
  facet normal  0.000000e+000  1.000000e+000  -0.000000e+000
    outer loop
      vertex -1.767767e+000  7.000000e+000  6.397767e+000
      vertex -4.364429e+000  7.000000e+000  1.010282e+001
      vertex -1.557647e+000  7.000000e+000  1.145450e+001
    endloop
  endfacet
  facet normal  0.000000e+000  1.000000e+000  0.000000e+000
    outer loop
      vertex -1.767767e+000  7.000000e+000  6.397767e+000
      vertex -1.557647e+000  7.000000e+000  1.145450e+001
      vertex -2.664535e-015  7.000000e+000  7.130000e+000
    endloop
  endfacet
  facet normal  0.000000e+000  1.000000e+000  -0.000000e+000
    outer loop
      vertex -2.664535e-015  7.000000e+000  7.130000e+000
      vertex -1.557647e+000  7.000000e+000  1.145450e+001
      vertex  1.557647e+000  7.000000e+000  1.145450e+001
    endloop
  endfacet
  facet normal  0.000000e+000  1.000000e+000  0.000000e+000
    outer loop
      vertex -2.664535e-015  7.000000e+000  7.130000e+000
      vertex  1.557647e+000  7.000000e+000  1.145450e+001
      vertex  1.767767e+000  7.000000e+000  6.397767e+000
    endloop
  endfacet
  facet normal  0.000000e+000  1.000000e+000  0.000000e+000
    outer loop
      vertex  1.767767e+000  7.000000e+000  6.397767e+000
      vertex  1.557647e+000  7.000000e+000  1.145450e+001
      vertex  2.500000e+000  7.000000e+000  4.630000e+000
    endloop
  endfacet
  facet normal  0.000000e+000  1.000000e+000  -0.000000e+000
    outer loop
      vertex  2.500000e+000  7.000000e+000  4.630000e+000
      vertex  1.557647e+000  7.000000e+000  1.145450e+001
      vertex  4.364429e+000  7.000000e+000  1.010282e+001
    endloop
  endfacet
  facet normal  0.000000e+000  1.000000e+000  0.000000e+000
    outer loop
      vertex  2.500000e+000  7.000000e+000  4.630000e+000
      vertex  4.364429e+000  7.000000e+000  1.010282e+001
      vertex  7.000000e+000  7.000000e+000  4.630000e+000
    endloop
  endfacet
  facet normal  0.000000e+000  1.000000e+000  0.000000e+000
    outer loop
      vertex  7.000000e+000  7.000000e+000  4.630000e+000
      vertex  4.364429e+000  7.000000e+000  1.010282e+001
      vertex  6.306782e+000  7.000000e+000  7.667186e+000
    endloop
  endfacet
  facet normal  -0.000000e+000  0.000000e+000 -1.000000e+000
    outer loop
      vertex -1.060660e+000 -1.060660e+000  0.000000e+000
      vertex -2.755364e-016 -1.500000e+000  0.000000e+000
      vertex -6.306782e+000 -3.037186e+000  0.000000e+000
    endloop
  endfacet
  facet normal  0.000000e+000  0.000000e+000 -1.000000e+000
    outer loop
      vertex -7.000000e+000  8.572244e-016  0.000000e+000
      vertex -7.000000e+000  7.000000e+000  0.000000e+000
      vertex  7.000000e+000  7.000000e+000  0.000000e+000
    endloop
  endfacet
  facet normal  0.000000e+000  0.000000e+000 -1.000000e+000
    outer loop
      vertex -7.000000e+000  8.572244e-016  0.000000e+000
      vertex  7.000000e+000  7.000000e+000  0.000000e+000
      vertex  9.184548e-017  1.500000e+000  0.000000e+000
    endloop
  endfacet
  facet normal  0.000000e+000  0.000000e+000 -1.000000e+000
    outer loop
      vertex -7.000000e+000  8.572244e-016  0.000000e+000
      vertex  9.184548e-017  1.500000e+000  0.000000e+000
      vertex -1.060660e+000  1.060660e+000  0.000000e+000
    endloop
  endfacet
  facet normal  0.000000e+000  0.000000e+000 -1.000000e+000
    outer loop
      vertex -7.000000e+000  8.572244e-016  0.000000e+000
      vertex -1.060660e+000  1.060660e+000  0.000000e+000
      vertex -1.500000e+000  1.836910e-016  0.000000e+000
    endloop
  endfacet
  facet normal  -0.000000e+000  -0.000000e+000 -1.000000e+000
    outer loop
      vertex -7.000000e+000  8.572244e-016  0.000000e+000
      vertex -1.500000e+000  1.836910e-016  0.000000e+000
      vertex -1.060660e+000 -1.060660e+000  0.000000e+000
    endloop
  endfacet
  facet normal  -0.000000e+000  0.000000e+000 -1.000000e+000
    outer loop
      vertex -7.000000e+000  8.572244e-016  0.000000e+000
      vertex -1.060660e+000 -1.060660e+000  0.000000e+000
      vertex -6.306782e+000 -3.037186e+000  0.000000e+000
    endloop
  endfacet
  facet normal  0.000000e+000  0.000000e+000 -1.000000e+000
    outer loop
      vertex  6.306782e+000 -3.037186e+000  0.000000e+000
      vertex  4.364429e+000 -5.472820e+000  0.000000e+000
      vertex -2.755364e-016 -1.500000e+000  0.000000e+000
    endloop
  endfacet
  facet normal  0.000000e+000  0.000000e+000 -1.000000e+000
    outer loop
      vertex -2.755364e-016 -1.500000e+000  0.000000e+000
      vertex  4.364429e+000 -5.472820e+000  0.000000e+000
      vertex  1.557647e+000 -6.824495e+000  0.000000e+000
    endloop
  endfacet
  facet normal  0.000000e+000  0.000000e+000 -1.000000e+000
    outer loop
      vertex -2.755364e-016 -1.500000e+000  0.000000e+000
      vertex  1.557647e+000 -6.824495e+000  0.000000e+000
      vertex -6.306782e+000 -3.037186e+000  0.000000e+000
    endloop
  endfacet
  facet normal  0.000000e+000  0.000000e+000 -1.000000e+000
    outer loop
      vertex -6.306782e+000 -3.037186e+000  0.000000e+000
      vertex  1.557647e+000 -6.824495e+000  0.000000e+000
      vertex -1.557647e+000 -6.824495e+000  0.000000e+000
    endloop
  endfacet
  facet normal  0.000000e+000  0.000000e+000 -1.000000e+000
    outer loop
      vertex -6.306782e+000 -3.037186e+000  0.000000e+000
      vertex -1.557647e+000 -6.824495e+000  0.000000e+000
      vertex -4.364429e+000 -5.472820e+000  0.000000e+000
    endloop
  endfacet
  facet normal  0.000000e+000  0.000000e+000 -1.000000e+000
    outer loop
      vertex  9.184548e-017  1.500000e+000  0.000000e+000
      vertex  7.000000e+000  7.000000e+000  0.000000e+000
      vertex  1.060660e+000  1.060660e+000  0.000000e+000
    endloop
  endfacet
  facet normal  0.000000e+000  0.000000e+000 -1.000000e+000
    outer loop
      vertex  1.060660e+000  1.060660e+000  0.000000e+000
      vertex  7.000000e+000  7.000000e+000  0.000000e+000
      vertex  7.000000e+000 -1.714449e-015  0.000000e+000
    endloop
  endfacet
  facet normal  0.000000e+000  0.000000e+000 -1.000000e+000
    outer loop
      vertex  1.060660e+000  1.060660e+000  0.000000e+000
      vertex  7.000000e+000 -1.714449e-015  0.000000e+000
      vertex  1.500000e+000  0.000000e+000  0.000000e+000
    endloop
  endfacet
  facet normal  -0.000000e+000  0.000000e+000 -1.000000e+000
    outer loop
      vertex  1.500000e+000  0.000000e+000  0.000000e+000
      vertex  7.000000e+000 -1.714449e-015  0.000000e+000
      vertex  1.060660e+000 -1.060660e+000  0.000000e+000
    endloop
  endfacet
  facet normal  0.000000e+000  0.000000e+000 -1.000000e+000
    outer loop
      vertex  1.060660e+000 -1.060660e+000  0.000000e+000
      vertex  7.000000e+000 -1.714449e-015  0.000000e+000
      vertex  6.306782e+000 -3.037186e+000  0.000000e+000
    endloop
  endfacet
  facet normal  0.000000e+000  0.000000e+000 -1.000000e+000
    outer loop
      vertex  1.060660e+000 -1.060660e+000  0.000000e+000
      vertex  6.306782e+000 -3.037186e+000  0.000000e+000
      vertex -2.755364e-016 -1.500000e+000  0.000000e+000
    endloop
  endfacet
endsolid CATIA STL
