v 25 -1.341104507e-007 20
vn 0.2003488243 0.9471758604 0.250436008
v -25 -1.341104507e-007 20
vn -0.04752424359 0.973007977 0.2258249223
v 22.51783943 -4.763024807 20
vn 0.3660396934 -0.2578597665 0.8941606879
v -22.51783943 -4.763024807 20
vn -0.4232337773 -0.2576922476 0.8686010838
v 19.13969994 -8.938633919 20
vn 0.3823475838 -0.4044784904 0.8307872415
v -19.13969994 -8.938633919 20
vn -0.4637775123 -0.4292191267 0.775036335
v 15.00000095 -12.36067963 20
vn 0.05241723359 -0.9824606776 0.1789508462
v -15.00000095 -12.36067963 20
vn -0.1744884551 -0.9759240746 0.1308663487
v -25 -1.341104507e-007 -1.490116119e-007
vn -0.2003488243 0.9471758604 -0.250436008
v 25 -1.341104507e-007 -1.490116119e-007
vn 0.04752424359 0.973007977 -0.2258249223
v -22.51783943 -4.763024807 -1.490116119e-007
vn -0.3660396934 -0.2578597665 -0.8941606879
v 22.51783943 -4.763024807 -1.490116119e-007
vn 0.4232337773 -0.2576922476 -0.8686010838
v -19.13969994 -8.938633919 -1.490116119e-007
vn -0.3823475838 -0.4044784904 -0.8307872415
v 19.13969994 -8.938633919 -1.490116119e-007
vn 0.4637775123 -0.4292191267 -0.775036335
v -15.00000095 -12.36067963 -1.490116119e-007
vn -0.05241723359 -0.9824606776 -0.1789508462
v 15.00000095 -12.36067963 -1.490116119e-007
vn 0.1744884551 -0.9759240746 -0.1308663487
# mm_gid 0
g mmGroup0
f 1//1 2//2 3//3 
f 3//3 2//2 4//4 
f 3//3 4//4 5//5 
f 5//5 4//4 6//6 
f 5//5 6//6 7//7 
f 7//7 6//6 8//8 
f 9//9 10//10 11//11 
f 11//11 10//10 12//12 
f 11//11 12//12 13//13 
f 13//13 12//12 14//14 
f 13//13 14//14 15//15 
f 15//15 14//14 16//16 
f 9//9 2//2 10//10 
f 10//10 2//2 1//1 
f 10//10 1//1 12//12 
f 12//12 1//1 3//3 
f 12//12 3//3 14//14 
f 14//14 3//3 5//5 
f 14//14 5//5 16//16 
f 16//16 5//5 7//7 
f 8//8 15//15 7//7 
f 7//7 15//15 16//16 
f 15//15 8//8 13//13 
f 13//13 8//8 6//6 
f 13//13 6//6 11//11 
f 11//11 6//6 4//4 
f 11//11 4//4 9//9 
f 9//9 4//4 2//2 
