v 7.244547844 30.60000038 255.5420074
vn 0.1722079515 0.0801307708 0.9817960262
v -7.244547844 30.60000038 255.5420074
vn -0.2408344746 0.03263249621 0.9700174332
v -4.180155029e-014 30.60000038 256.2999878
vn -0.03485352173 0.008251568303 0.999358356
v -14.17531967 30.60000038 253.3009033
vn -0.4318369031 0.1477612853 0.8897659779
v 14.17531967 30.60000038 253.3009033
vn 0.3628693521 0.2303324193 0.9029245973
v -20.4921093 30.60000038 249.6737976
vn -0.5810059309 0.3206261098 0.7480848432
v 20.4921093 30.60000038 249.6737976
vn 0.5077533126 0.410662353 0.7573261857
v -25.92134094 30.60000038 244.8177032
vn -0.6640812755 0.4935834408 0.5615794063
v 25.92134094 30.60000038 244.8177032
vn 0.5913553238 0.5650392175 0.5753516555
v -30.22784805 30.60000038 238.9431
vn -0.6886316538 0.6233836412 0.370377183
v 30.22784805 30.60000038 238.9431
vn 0.6285306215 0.6689209938 0.3968551457
v -33.2251091 30.60000038 232.3041992
vn -0.6825705171 0.7029341459 0.1999526322
v 33.2251091 30.60000038 232.3041992
vn 0.6439370513 0.7269598246 0.2384836972
v -34.78329849 30.60000038 225.1887054
vn -0.6680679917 0.7423373461 0.05118978769
v 34.78329849 30.60000038 225.1887054
vn 0.6543630958 0.7500166297 0.09635322541
v -34.83493042 30.60000038 217.9048004
vn -0.6551206708 0.7504990697 -0.08699474484
v 34.83493042 30.60000038 217.9048004
vn 0.6670850515 0.7438185215 -0.04161145166
v -33.37776947 30.60000038 210.7678986
vn -0.7674186826 0.6069880724 -0.2064800411
v 33.37776947 30.60000038 210.7678986
vn 0.5741928816 0.8061079979 -0.143151924
v -27.52286911 30.60000038 189.8677063
vn -0.7117185593 0.6824967861 -0.1662973166
v 27.52286911 30.60000038 189.8677063
vn 0.7462610006 0.6374707818 -0.1916390061
v -23.06361008 30.60000038 168.7041931
vn -0.7747687697 0.6191079617 -0.1282137036
v 23.06361008 30.60000038 168.7041931
vn 0.8011591434 0.5791854858 -0.1506262124
v -20 30.60000038 147.3000031
vn -0.8064594865 0.5852281451 -0.08444631845
v 20 30.60000038 147.3000031
vn 0.8505496979 0.5150527954 -0.1062349081
v -18.49612999 30.60000038 129.0115051
vn -0.8492718339 0.5265358686 -0.03869475052
v 18.49612999 30.60000038 129.0115051
vn 0.8562937975 0.5135850906 -0.05469315872
v -17.99484062 30.60000038 110.6500015
vn -0.8599125147 0.5103814602 0.007825517096
v 17.99484062 30.60000038 110.6500015
vn 0.8599123955 0.510381639 -0.007825518027
v -18.49612999 30.60000038 92.28848267
vn -0.8562936783 0.5135852695 0.05469316989
v 18.49612999 30.60000038 92.28848267
vn 0.8492720127 0.5265356302 0.03869474307
v -20 30.60000038 74
vn -0.8505499363 0.5150524378 0.1062347889
v 20 30.60000038 74
vn 0.8064591885 0.5852285624 0.08444625884
v -23.06361008 30.60000038 52.59576416
vn -0.8011584878 0.5791862607 0.150626421
v 23.06361008 30.60000038 52.59576416
vn 0.774769485 0.619107008 0.1282138079
v -27.52286911 30.60000038 31.43234062
vn -0.7462619543 0.6374697089 0.1916389316
v 27.52286911 30.60000038 31.43234062
vn 0.7117174864 0.6824979186 0.1662972867
v -33.37776947 30.60000038 10.53204823
vn -0.5741918087 0.8061087728 0.1431516707
v 33.37776947 30.60000038 10.53204823
vn 0.7674196959 0.6069869399 0.2064796984
v -34.83493042 30.60000038 3.39520359
vn -0.6670860052 0.743817687 0.04161158949
v 34.83493042 30.60000038 3.39520359
vn 0.6551196575 0.7504999042 0.08699500561
v -34.78329849 30.60000038 -3.888712883
vn -0.6543627977 0.7500169277 -0.09635327756
v 34.78329849 30.60000038 -3.888712883
vn 0.6680682898 0.7423370481 -0.05118982494
v -33.2251091 30.60000038 -11.00419235
vn -0.6439363956 0.7269601226 -0.2384845763
v 33.2251091 30.60000038 -11.00419235
vn 0.6825709343 0.7029335499 -0.199953407
v -30.22784805 30.60000038 -17.64304543
vn -0.6285333633 0.6689190269 -0.3968540132
v 30.22784805 30.60000038 -17.64304543
vn 0.6886299253 0.6233862042 -0.3703761399
v -25.92134094 30.60000038 -23.51774216
vn -0.5913544893 0.5650423765 -0.5753494501
v 25.92134094 30.60000038 -23.51774216
vn 0.6640841961 0.4935825467 -0.5615767837
v -20.4921093 30.60000038 -28.37381363
vn -0.5077541471 0.4106613994 -0.7573261857
v 20.4921093 30.60000038 -28.37381363
vn 0.5810050964 0.3206267059 -0.7480852604
v -14.17531967 30.60000038 -32.0009346
vn -0.3628692925 0.2303332984 -0.9029244184
v 14.17531967 30.60000038 -32.0009346
vn 0.4318381548 0.1477613002 -0.8897653818
v -7.244547844 30.60000038 -34.24203491
vn -0.1722064316 0.08013030887 -0.9817963243
v 7.244547844 30.60000038 -34.24203491
vn 0.2408329844 0.03263225779 -0.9700178504
v 6.429182934e-015 30.60000038 -35
vn 0.03485299647 0.008251444437 -0.999358356
v -4.180155029e-014 -30.60000038 256.2999878
vn 0.03485352173 -0.008251568303 0.999358356
v -7.244547844 -30.60000038 255.5420074
vn -0.1722079515 -0.0801307708 0.9817960262
v 7.244547844 -30.60000038 255.5420074
vn 0.2408344746 -0.03263249621 0.9700174332
v 14.17531967 -30.60000038 253.3009033
vn 0.4318369031 -0.1477612853 0.8897659779
v -14.17531967 -30.60000038 253.3009033
vn -0.3628693521 -0.2303324193 0.9029245973
v 20.4921093 -30.60000038 249.6737976
vn 0.5810059309 -0.3206261098 0.7480848432
v -20.4921093 -30.60000038 249.6737976
vn -0.5077533126 -0.410662353 0.7573261857
v 25.92134094 -30.60000038 244.8177032
vn 0.6640812755 -0.4935834408 0.5615794063
v -25.92134094 -30.60000038 244.8177032
vn -0.5913553238 -0.5650392175 0.5753516555
v 30.22784805 -30.60000038 238.9431
vn 0.6886316538 -0.6233836412 0.370377183
v -30.22784805 -30.60000038 238.9431
vn -0.6285306215 -0.6689209938 0.3968551457
v 33.2251091 -30.60000038 232.3041992
vn 0.6825705171 -0.7029341459 0.1999526322
v -33.2251091 -30.60000038 232.3041992
vn -0.6439370513 -0.7269598246 0.2384836972
v 34.78329849 -30.60000038 225.1887054
vn 0.6680679917 -0.7423373461 0.05118978769
v -34.78329849 -30.60000038 225.1887054
vn -0.6543630958 -0.7500166297 0.09635322541
v 34.83493042 -30.60000038 217.9048004
vn 0.6551206708 -0.7504990697 -0.08699474484
v -34.83493042 -30.60000038 217.9048004
vn -0.6670850515 -0.7438185215 -0.04161145166
v 33.37776947 -30.60000038 210.7678986
vn 0.7674186826 -0.6069880724 -0.2064800411
v -33.37776947 -30.60000038 210.7678986
vn -0.5741928816 -0.8061079979 -0.143151924
v 27.52286911 -30.60000038 189.8677063
vn 0.7117185593 -0.6824967861 -0.1662973166
v -27.52286911 -30.60000038 189.8677063
vn -0.7462610006 -0.6374707818 -0.1916390061
v 23.06361008 -30.60000038 168.7041931
vn 0.7747687697 -0.6191079617 -0.1282137036
v -23.06361008 -30.60000038 168.7041931
vn -0.8011591434 -0.5791854858 -0.1506262124
v 20 -30.60000038 147.3000031
vn 0.8064594865 -0.5852281451 -0.08444631845
v -20 -30.60000038 147.3000031
vn -0.8505496979 -0.5150527954 -0.1062349081
v 18.49612999 -30.60000038 129.0115051
vn 0.8492718339 -0.5265358686 -0.03869475052
v -18.49612999 -30.60000038 129.0115051
vn -0.8562937975 -0.5135850906 -0.05469315872
v 17.99484062 -30.60000038 110.6500015
vn 0.8599125147 -0.5103814602 0.007825517096
v -17.99484062 -30.60000038 110.6500015
vn -0.8599123955 -0.510381639 -0.007825518027
v 18.49612999 -30.60000038 92.28848267
vn 0.8562936783 -0.5135852695 0.05469316989
v -18.49612999 -30.60000038 92.28848267
vn -0.8492720127 -0.5265356302 0.03869474307
v 20 -30.60000038 74
vn 0.8505499363 -0.5150524378 0.1062347889
v -20 -30.60000038 74
vn -0.8064591885 -0.5852285624 0.08444625884
v 23.06361008 -30.60000038 52.59576416
vn 0.8011584878 -0.5791862607 0.150626421
v -23.06361008 -30.60000038 52.59576416
vn -0.774769485 -0.619107008 0.1282138079
v 27.52286911 -30.60000038 31.43234062
vn 0.7462619543 -0.6374697089 0.1916389316
v -27.52286911 -30.60000038 31.43234062
vn -0.7117174864 -0.6824979186 0.1662972867
v 33.37776947 -30.60000038 10.53204823
vn 0.5741918087 -0.8061087728 0.1431516707
v -33.37776947 -30.60000038 10.53204823
vn -0.7674196959 -0.6069869399 0.2064796984
v 34.83493042 -30.60000038 3.39520359
vn 0.6670860052 -0.743817687 0.04161158949
v -34.83493042 -30.60000038 3.39520359
vn -0.6551196575 -0.7504999042 0.08699500561
v 34.78329849 -30.60000038 -3.888712883
vn 0.6543627977 -0.7500169277 -0.09635327756
v -34.78329849 -30.60000038 -3.888712883
vn -0.6680682898 -0.7423370481 -0.05118982494
v 33.2251091 -30.60000038 -11.00419235
vn 0.6439363956 -0.7269601226 -0.2384845763
v -33.2251091 -30.60000038 -11.00419235
vn -0.6825709343 -0.7029335499 -0.199953407
v 30.22784805 -30.60000038 -17.64304543
vn 0.6285333633 -0.6689190269 -0.3968540132
v -30.22784805 -30.60000038 -17.64304543
vn -0.6886299253 -0.6233862042 -0.3703761399
v 25.92134094 -30.60000038 -23.51774216
vn 0.5913544893 -0.5650423765 -0.5753494501
v -25.92134094 -30.60000038 -23.51774216
vn -0.6640841961 -0.4935825467 -0.5615767837
v 20.4921093 -30.60000038 -28.37381363
vn 0.5077541471 -0.4106613994 -0.7573261857
v -20.4921093 -30.60000038 -28.37381363
vn -0.5810050964 -0.3206267059 -0.7480852604
v 14.17531967 -30.60000038 -32.0009346
vn 0.3628692925 -0.2303332984 -0.9029244184
v -14.17531967 -30.60000038 -32.0009346
vn -0.4318381548 -0.1477613002 -0.8897653818
v 7.244547844 -30.60000038 -34.24203491
vn 0.1722064316 -0.08013030887 -0.9817963243
v -7.244547844 -30.60000038 -34.24203491
vn -0.2408329844 -0.03263225779 -0.9700178504
v 6.429182934e-015 -30.60000038 -35
vn -0.03485299647 -0.008251444437 -0.999358356
# mm_gid 0
g mmGroup0
f 1//1 2//2 3//3 
f 2//2 1//1 4//4 
f 4//4 1//1 5//5 
f 4//4 5//5 6//6 
f 6//6 5//5 7//7 
f 6//6 7//7 8//8 
f 8//8 7//7 9//9 
f 8//8 9//9 10//10 
f 10//10 9//9 11//11 
f 10//10 11//11 12//12 
f 12//12 11//11 13//13 
f 12//12 13//13 14//14 
f 14//14 13//13 15//15 
f 14//14 15//15 16//16 
f 16//16 15//15 17//17 
f 16//16 17//17 18//18 
f 18//18 17//17 19//19 
f 18//18 19//19 20//20 
f 20//20 19//19 21//21 
f 20//20 21//21 22//22 
f 22//22 21//21 23//23 
f 22//22 23//23 24//24 
f 24//24 23//23 25//25 
f 24//24 25//25 26//26 
f 26//26 25//25 27//27 
f 26//26 27//27 28//28 
f 28//28 27//27 29//29 
f 28//28 29//29 30//30 
f 30//30 29//29 31//31 
f 30//30 31//31 32//32 
f 32//32 31//31 33//33 
f 32//32 33//33 34//34 
f 34//34 33//33 35//35 
f 34//34 35//35 36//36 
f 36//36 35//35 37//37 
f 36//36 37//37 38//38 
f 38//38 37//37 39//39 
f 38//38 39//39 40//40 
f 40//40 39//39 41//41 
f 40//40 41//41 42//42 
f 42//42 41//41 43//43 
f 42//42 43//43 44//44 
f 44//44 43//43 45//45 
f 44//44 45//45 46//46 
f 46//46 45//45 47//47 
f 46//46 47//47 48//48 
f 48//48 47//47 49//49 
f 48//48 49//49 50//50 
f 50//50 49//49 51//51 
f 50//50 51//51 52//52 
f 52//52 51//51 53//53 
f 52//52 53//53 54//54 
f 54//54 53//53 55//55 
f 54//54 55//55 56//56 
f 57//57 58//58 59//59 
f 59//59 58//58 60//60 
f 60//60 58//58 61//61 
f 60//60 61//61 62//62 
f 62//62 61//61 63//63 
f 62//62 63//63 64//64 
f 64//64 63//63 65//65 
f 64//64 65//65 66//66 
f 66//66 65//65 67//67 
f 66//66 67//67 68//68 
f 68//68 67//67 69//69 
f 68//68 69//69 70//70 
f 70//70 69//69 71//71 
f 70//70 71//71 72//72 
f 72//72 71//71 73//73 
f 72//72 73//73 74//74 
f 74//74 73//73 75//75 
f 74//74 75//75 76//76 
f 76//76 75//75 77//77 
f 76//76 77//77 78//78 
f 78//78 77//77 79//79 
f 78//78 79//79 80//80 
f 80//80 79//79 81//81 
f 80//80 81//81 82//82 
f 82//82 81//81 83//83 
f 82//82 83//83 84//84 
f 84//84 83//83 85//85 
f 84//84 85//85 86//86 
f 86//86 85//85 87//87 
f 86//86 87//87 88//88 
f 88//88 87//87 89//89 
f 88//88 89//89 90//90 
f 90//90 89//89 91//91 
f 90//90 91//91 92//92 
f 92//92 91//91 93//93 
f 92//92 93//93 94//94 
f 94//94 93//93 95//95 
f 94//94 95//95 96//96 
f 96//96 95//95 97//97 
f 96//96 97//97 98//98 
f 98//98 97//97 99//99 
f 98//98 99//99 100//100 
f 100//100 99//99 101//101 
f 100//100 101//101 102//102 
f 102//102 101//101 103//103 
f 102//102 103//103 104//104 
f 104//104 103//103 105//105 
f 104//104 105//105 106//106 
f 106//106 105//105 107//107 
f 106//106 107//107 108//108 
f 108//108 107//107 109//109 
f 108//108 109//109 110//110 
f 110//110 109//109 111//111 
f 110//110 111//111 112//112 
f 94//94 39//39 92//92 
f 92//92 39//39 37//37 
f 92//92 37//37 90//90 
f 90//90 37//37 35//35 
f 90//90 35//35 88//88 
f 88//88 35//35 33//33 
f 88//88 33//33 86//86 
f 86//86 33//33 31//31 
f 86//86 31//31 84//84 
f 84//84 31//31 29//29 
f 84//84 29//29 82//82 
f 82//82 29//29 27//27 
f 82//82 27//27 80//80 
f 80//80 27//27 25//25 
f 80//80 25//25 78//78 
f 78//78 25//25 23//23 
f 78//78 23//23 76//76 
f 76//76 23//23 21//21 
f 76//76 21//21 74//74 
f 74//74 21//21 19//19 
f 74//74 19//19 72//72 
f 72//72 19//19 17//17 
f 72//72 17//17 70//70 
f 70//70 17//17 15//15 
f 70//70 15//15 68//68 
f 68//68 15//15 13//13 
f 68//68 13//13 66//66 
f 66//66 13//13 11//11 
f 66//66 11//11 64//64 
f 64//64 11//11 9//9 
f 64//64 9//9 62//62 
f 62//62 9//9 7//7 
f 62//62 7//7 60//60 
f 60//60 7//7 5//5 
f 60//60 5//5 59//59 
f 59//59 5//5 1//1 
f 59//59 1//1 57//57 
f 57//57 1//1 3//3 
f 57//57 3//3 58//58 
f 58//58 3//3 2//2 
f 58//58 2//2 61//61 
f 61//61 2//2 4//4 
f 61//61 4//4 63//63 
f 63//63 4//4 6//6 
f 63//63 6//6 65//65 
f 65//65 6//6 8//8 
f 65//65 8//8 67//67 
f 67//67 8//8 10//10 
f 67//67 10//10 69//69 
f 69//69 10//10 12//12 
f 69//69 12//12 71//71 
f 71//71 12//12 14//14 
f 71//71 14//14 73//73 
f 73//73 14//14 16//16 
f 73//73 16//16 75//75 
f 75//75 16//16 18//18 
f 75//75 18//18 77//77 
f 77//77 18//18 20//20 
f 77//77 20//20 79//79 
f 79//79 20//20 22//22 
f 79//79 22//22 81//81 
f 81//81 22//22 24//24 
f 81//81 24//24 83//83 
f 83//83 24//24 26//26 
f 83//83 26//26 85//85 
f 85//85 26//26 28//28 
f 85//85 28//28 87//87 
f 87//87 28//28 30//30 
f 87//87 30//30 89//89 
f 89//89 30//30 32//32 
f 89//89 32//32 91//91 
f 91//91 32//32 34//34 
f 91//91 34//34 93//93 
f 93//93 34//34 36//36 
f 93//93 36//36 95//95 
f 95//95 36//36 38//38 
f 95//95 38//38 97//97 
f 97//97 38//38 40//40 
f 97//97 40//40 99//99 
f 99//99 40//40 42//42 
f 99//99 42//42 101//101 
f 101//101 42//42 44//44 
f 101//101 44//44 103//103 
f 103//103 44//44 46//46 
f 103//103 46//46 105//105 
f 105//105 46//46 48//48 
f 105//105 48//48 107//107 
f 107//107 48//48 50//50 
f 107//107 50//50 109//109 
f 109//109 50//50 52//52 
f 109//109 52//52 111//111 
f 111//111 52//52 54//54 
f 111//111 54//54 112//112 
f 112//112 54//54 56//56 
f 112//112 56//56 110//110 
f 110//110 56//56 55//55 
f 110//110 55//55 108//108 
f 108//108 55//55 53//53 
f 108//108 53//53 106//106 
f 106//106 53//53 51//51 
f 106//106 51//51 104//104 
f 104//104 51//51 49//49 
f 104//104 49//49 102//102 
f 102//102 49//49 47//47 
f 102//102 47//47 100//100 
f 100//100 47//47 45//45 
f 100//100 45//45 98//98 
f 98//98 45//45 43//43 
f 98//98 43//43 96//96 
f 96//96 43//43 41//41 
f 96//96 41//41 94//94 
f 94//94 41//41 39//39 
