v 22.5 10 -7.5
vn 0.05373219401 0.9450796247 -0.3223931491
v 22.5 10 7.5
vn 0.1186195314 0.9768677354 0.1779292971
v 29.91851997 10 5.176381111
vn 0.6048864126 0.7730988264 0.1908681691
v 30.60000038 10 2.449212919e-015
vn 0.8792501688 0.4747951031 0.03858498484
v 29.91851997 10 -5.176381111
vn 0.8945827484 0.4005897343 -0.1981149018
v 27.92050934 10 -10
vn 0.8248237967 0.3681064844 -0.4291425049
v 24.74213982 10 -14.14214039
vn 0.6802819967 0.3859823644 -0.6230843067
v 20.60000038 10 -17.32051086
vn 0.4801326692 0.4494775832 -0.7532877922
v 15.77637959 10 -19.31851959
vn 0.2529457808 0.5416872501 -0.8016192317
v 10.60000038 10 -20
vn 0.03023827076 0.7134820223 -0.7000207305
v -10.60000038 10 -20
vn -0.01151113212 0.5950180888 -0.8036298752
v -15.77637959 10 -19.31851959
vn -0.1244882047 0.817630589 -0.5621235371
v -20.60000038 10 -17.32051086
vn -0.1139626503 0.9690377712 -0.2190395147
v -22.5 10 -7.5
vn -0.1919355243 0.9382283688 -0.2879032791
v -22.5 10 7.5
vn -0.09519593418 0.8152890205 0.5711755753
v -20.60000038 10 17.32051086
vn -0.1267718077 0.9717869759 0.198894307
v -15.77637959 10 19.31851959
vn -0.1732515693 0.8176305294 0.5490575433
v -10.60000038 10 20
vn -0.02880862355 0.7445684671 0.6669241786
v 10.60000038 10 20
vn 0.0118662687 0.5599771142 0.8284230828
v 15.77637959 10 19.31851959
vn 0.1817516983 0.5416873097 0.8206955194
v 20.60000038 10 17.32051086
vn 0.4122993946 0.4494775832 0.7924513221
v 24.74213982 10 14.14214039
vn 0.6230844855 0.3859823644 0.6802818179
v 27.92050934 10 10
vn 0.7840604782 0.3681064844 0.4997466803
v -24.74213982 10 -14.14214039
vn -0.6230844855 0.3859823644 -0.6802818179
v -27.92050934 10 -10
vn -0.7840604782 0.3681064844 -0.4997466803
v -29.91851997 10 -5.176381111
vn -0.8737888932 0.4005897343 -0.2757187188
v -30.60000038 10 -4.898424992e-015
vn -0.8792501688 0.4747951031 -0.03858498484
v -29.91851997 10 5.176381111
vn -0.6192810535 0.7730988264 0.1371463984
v -24.74213982 10 14.14214039
vn -0.7366697192 0.04534218088 0.6747309566
v -27.92050934 10 10
vn -0.7543826103 0.5261711478 0.3924930692
v -22.5 15 7.5
vn -0.2062842697 0.9282791018 0.3094263673
v -22.5 15 -7.5
vn -0.05263157934 0.947368443 -0.3157894611
v 22.5 15 -7.5
vn 0.2062842697 0.9282791018 -0.3094263673
v 22.5 15 7.5
vn 0.05263157934 0.947368443 0.3157894611
v 10.60000038 -1.024381788e-007 20
vn 0.04311091825 -0.04569757357 0.9980246425
v -10.60000038 -1.024381788e-007 20
vn -0.01428174786 -0.07534015924 0.9970555902
v 15.77637959 -1.024381788e-007 19.31851959
vn 0.253816992 -0.5371679664 0.8043802381
v -15.77637959 -1.024381788e-007 19.31851959
vn -0.1473808885 -0.7317070961 0.6654949784
v 20.60000038 -1.024381788e-007 17.32051086
vn 0.263530761 -0.871552825 0.4134576023
v -20.60000038 -1.024381788e-007 17.32051086
vn -0.1785434037 -0.9221494794 0.3431655765
v 24.74213982 -1.024381788e-007 14.14214039
vn 0.2216657102 -0.9537525177 0.2030282021
v -24.74213982 -1.024381788e-007 14.14214039
vn -0.1711120307 -0.9673774242 0.186819613
v 27.92050934 -1.024381788e-007 10
vn 0.1908442974 -0.976585567 0.09929320961
v -27.92050934 -1.024381788e-007 10
vn -0.162942633 -0.9811541438 0.1038568318
v 29.91851997 -1.024381788e-007 5.176381111
vn 0.1721578389 -0.9843313098 0.03812618926
v -29.91851997 -1.024381788e-007 5.176381111
vn -0.1596904844 -0.9858802557 0.05038934946
v 30.60000038 -1.024381788e-007 2.449212919e-015
vn 0.1624303609 -0.9866942763 -0.007128088269
v -30.60000038 -1.024381788e-007 -4.898424992e-015
vn -0.1624303609 -0.9866942763 0.007128088269
v 29.91851997 -1.024381788e-007 -5.176381111
vn 0.1596904844 -0.9858802557 -0.05038934946
v -29.91851997 -1.024381788e-007 -5.176381111
vn -0.1721578389 -0.9843313098 -0.03812618926
v 27.92050934 -1.024381788e-007 -10
vn 0.162942633 -0.9811541438 -0.1038568318
v -27.92050934 -1.024381788e-007 -10
vn -0.1908442974 -0.976585567 -0.09929320961
v 24.74213982 -1.024381788e-007 -14.14214039
vn 0.1711120307 -0.9673774242 -0.186819613
v -24.74213982 -1.024381788e-007 -14.14214039
vn -0.2216657102 -0.9537525177 -0.2030282021
v 20.60000038 -1.024381788e-007 -17.32051086
vn 0.1785434037 -0.9221494794 -0.3431655765
v -20.60000038 -1.024381788e-007 -17.32051086
vn -0.263530761 -0.871552825 -0.4134576023
v 15.77637959 -1.024381788e-007 -19.31851959
vn 0.1473808885 -0.7317070961 -0.6654949784
v -15.77637959 -1.024381788e-007 -19.31851959
vn -0.253816992 -0.5371679664 -0.8043802381
v 10.60000038 -1.024381788e-007 -20
vn 0.01428174786 -0.07534015924 -0.9970555902
v -10.60000038 -1.024381788e-007 -20
vn -0.04311091825 -0.04569757357 -0.9980246425
# mm_gid 0
g mmGroup0
f 1//1 2//2 3//3 
f 1//1 3//3 4//4 
f 1//1 4//4 5//5 
f 1//1 5//5 6//6 
f 1//1 6//6 7//7 
f 1//1 7//7 8//8 
f 1//1 8//8 9//9 
f 1//1 9//9 10//10 
f 1//1 10//10 11//11 
f 1//1 11//11 12//12 
f 1//1 12//12 13//13 
f 1//1 13//13 14//14 
f 2//2 15//15 16//16 
f 2//2 16//16 17//17 
f 2//2 17//17 18//18 
f 2//2 18//18 19//19 
f 2//2 19//19 20//20 
f 2//2 20//20 21//21 
f 2//2 21//21 22//22 
f 2//2 22//22 23//23 
f 2//2 23//23 3//3 
f 14//14 13//13 24//24 
f 14//14 24//24 25//25 
f 14//14 25//25 26//26 
f 14//14 26//26 27//27 
f 14//14 27//27 28//28 
f 14//14 28//28 15//15 
f 29//29 16//16 30//30 
f 30//30 16//16 15//15 
f 30//30 15//15 28//28 
f 15//15 31//31 14//14 
f 14//14 31//31 32//32 
f 14//14 32//32 1//1 
f 1//1 32//32 33//33 
f 1//1 33//33 2//2 
f 2//2 33//33 34//34 
f 2//2 34//34 15//15 
f 15//15 34//34 31//31 
f 33//33 32//32 34//34 
f 34//34 32//32 31//31 
f 35//35 36//36 37//37 
f 37//37 36//36 38//38 
f 37//37 38//38 39//39 
f 39//39 38//38 40//40 
f 39//39 40//40 41//41 
f 41//41 40//40 42//42 
f 41//41 42//42 43//43 
f 43//43 42//42 44//44 
f 43//43 44//44 45//45 
f 45//45 44//44 46//46 
f 45//45 46//46 47//47 
f 47//47 46//46 48//48 
f 47//47 48//48 49//49 
f 49//49 48//48 50//50 
f 49//49 50//50 51//51 
f 51//51 50//50 52//52 
f 51//51 52//52 53//53 
f 53//53 52//52 54//54 
f 53//53 54//54 55//55 
f 55//55 54//54 56//56 
f 55//55 56//56 57//57 
f 57//57 56//56 58//58 
f 57//57 58//58 59//59 
f 59//59 58//58 60//60 
f 35//35 19//19 36//36 
f 36//36 19//19 18//18 
f 36//36 18//18 38//38 
f 38//38 18//18 17//17 
f 38//38 17//17 40//40 
f 40//40 17//17 16//16 
f 40//40 16//16 42//42 
f 42//42 16//16 29//29 
f 42//42 29//29 44//44 
f 44//44 29//29 30//30 
f 44//44 30//30 46//46 
f 46//46 30//30 28//28 
f 46//46 28//28 48//48 
f 48//48 28//28 27//27 
f 48//48 27//27 50//50 
f 50//50 27//27 26//26 
f 50//50 26//26 52//52 
f 52//52 26//26 25//25 
f 52//52 25//25 54//54 
f 54//54 25//25 24//24 
f 54//54 24//24 56//56 
f 56//56 24//24 13//13 
f 56//56 13//13 58//58 
f 58//58 13//13 12//12 
f 58//58 12//12 60//60 
f 60//60 12//12 11//11 
f 60//60 11//11 59//59 
f 59//59 11//11 10//10 
f 59//59 10//10 57//57 
f 57//57 10//10 9//9 
f 57//57 9//9 55//55 
f 55//55 9//9 8//8 
f 55//55 8//8 53//53 
f 53//53 8//8 7//7 
f 53//53 7//7 51//51 
f 51//51 7//7 6//6 
f 51//51 6//6 49//49 
f 49//49 6//6 5//5 
f 49//49 5//5 47//47 
f 47//47 5//5 4//4 
f 47//47 4//4 45//45 
f 45//45 4//4 3//3 
f 45//45 3//3 43//43 
f 43//43 3//3 23//23 
f 43//43 23//23 41//41 
f 41//41 23//23 22//22 
f 41//41 22//22 39//39 
f 39//39 22//22 21//21 
f 39//39 21//21 37//37 
f 37//37 21//21 20//20 
f 37//37 20//20 35//35 
f 35//35 20//20 19//19 
