solid CATIA STL
  facet normal  0.000000e+000  0.000000e+000  1.000000e+000
    outer loop
      vertex  2.500000e+001 -7.105427e-015  2.000000e+001
      vertex -2.500000e+001  1.776357e-015  2.000000e+001
      vertex  2.251784e+001 -4.763025e+000  2.000000e+001
    endloop
  endfacet
  facet normal  0.000000e+000  0.000000e+000  1.000000e+000
    outer loop
      vertex  2.251784e+001 -4.763025e+000  2.000000e+001
      vertex -2.500000e+001  1.776357e-015  2.000000e+001
      vertex -2.251784e+001 -4.763025e+000  2.000000e+001
    endloop
  endfacet
  facet normal  -0.000000e+000  0.000000e+000  1.000000e+000
    outer loop
      vertex  2.251784e+001 -4.763025e+000  2.000000e+001
      vertex -2.251784e+001 -4.763025e+000  2.000000e+001
      vertex  1.913970e+001 -8.938634e+000  2.000000e+001
    endloop
  endfacet
  facet normal  0.000000e+000  0.000000e+000  9.999999e-001
    outer loop
      vertex  1.913970e+001 -8.938634e+000  2.000000e+001
      vertex -2.251784e+001 -4.763025e+000  2.000000e+001
      vertex -1.913970e+001 -8.938634e+000  2.000000e+001
    endloop
  endfacet
  facet normal  -0.000000e+000  0.000000e+000  1.000000e+000
    outer loop
      vertex  1.913970e+001 -8.938634e+000  2.000000e+001
      vertex -1.913970e+001 -8.938634e+000  2.000000e+001
      vertex  1.500000e+001 -1.236068e+001  2.000000e+001
    endloop
  endfacet
  facet normal  0.000000e+000  0.000000e+000  1.000000e+000
    outer loop
      vertex  1.500000e+001 -1.236068e+001  2.000000e+001
      vertex -1.913970e+001 -8.938634e+000  2.000000e+001
      vertex -1.500000e+001 -1.236068e+001  2.000000e+001
    endloop
  endfacet
  facet normal  -0.000000e+000  0.000000e+000 -1.000000e+000
    outer loop
      vertex -2.500000e+001  1.776357e-015  0.000000e+000
      vertex  2.500000e+001 -7.105427e-015  0.000000e+000
      vertex -2.251784e+001 -4.763025e+000  0.000000e+000
    endloop
  endfacet
  facet normal  0.000000e+000  0.000000e+000 -1.000000e+000
    outer loop
      vertex -2.251784e+001 -4.763025e+000  0.000000e+000
      vertex  2.500000e+001 -7.105427e-015  0.000000e+000
      vertex  2.251784e+001 -4.763025e+000  0.000000e+000
    endloop
  endfacet
  facet normal  -0.000000e+000  0.000000e+000 -1.000000e+000
    outer loop
      vertex -2.251784e+001 -4.763025e+000  0.000000e+000
      vertex  2.251784e+001 -4.763025e+000  0.000000e+000
      vertex -1.913970e+001 -8.938634e+000  0.000000e+000
    endloop
  endfacet
  facet normal  0.000000e+000  0.000000e+000 -9.999999e-001
    outer loop
      vertex -1.913970e+001 -8.938634e+000  0.000000e+000
      vertex  2.251784e+001 -4.763025e+000  0.000000e+000
      vertex  1.913970e+001 -8.938634e+000  0.000000e+000
    endloop
  endfacet
  facet normal  -0.000000e+000  0.000000e+000 -1.000000e+000
    outer loop
      vertex -1.913970e+001 -8.938634e+000  0.000000e+000
      vertex  1.913970e+001 -8.938634e+000  0.000000e+000
      vertex -1.500000e+001 -1.236068e+001  0.000000e+000
    endloop
  endfacet
  facet normal  0.000000e+000  0.000000e+000 -1.000000e+000
    outer loop
      vertex -1.500000e+001 -1.236068e+001  0.000000e+000
      vertex  1.913970e+001 -8.938634e+000  0.000000e+000
      vertex  1.500000e+001 -1.236068e+001  0.000000e+000
    endloop
  endfacet
  facet normal  1.776357e-016  1.000000e+000  0.000000e+000
    outer loop
      vertex -2.500000e+001  1.776357e-015  0.000000e+000
      vertex -2.500000e+001  1.776357e-015  2.000000e+001
      vertex  2.500000e+001 -7.105427e-015  0.000000e+000
    endloop
  endfacet
  facet normal  1.776357e-016  1.000000e+000  -0.000000e+000
    outer loop
      vertex  2.500000e+001 -7.105427e-015  0.000000e+000
      vertex -2.500000e+001  1.776357e-015  2.000000e+001
      vertex  2.500000e+001 -7.105427e-015  2.000000e+001
    endloop
  endfacet
  facet normal  8.868059e-001 -4.621422e-001  0.000000e+000
    outer loop
      vertex  2.500000e+001 -7.105427e-015  0.000000e+000
      vertex  2.500000e+001 -7.105427e-015  2.000000e+001
      vertex  2.251784e+001 -4.763025e+000  0.000000e+000
    endloop
  endfacet
  facet normal  8.868059e-001 -4.621422e-001  0.000000e+000
    outer loop
      vertex  2.251784e+001 -4.763025e+000  0.000000e+000
      vertex  2.500000e+001 -7.105427e-015  2.000000e+001
      vertex  2.251784e+001 -4.763025e+000  2.000000e+001
    endloop
  endfacet
  facet normal  7.774377e-001 -6.289601e-001  0.000000e+000
    outer loop
      vertex  2.251784e+001 -4.763025e+000  0.000000e+000
      vertex  2.251784e+001 -4.763025e+000  2.000000e+001
      vertex  1.913970e+001 -8.938634e+000  0.000000e+000
    endloop
  endfacet
  facet normal  7.774377e-001 -6.289601e-001  0.000000e+000
    outer loop
      vertex  1.913970e+001 -8.938634e+000  0.000000e+000
      vertex  2.251784e+001 -4.763025e+000  2.000000e+001
      vertex  1.913970e+001 -8.938634e+000  2.000000e+001
    endloop
  endfacet
  facet normal  6.371351e-001 -7.707521e-001  0.000000e+000
    outer loop
      vertex  1.913970e+001 -8.938634e+000  0.000000e+000
      vertex  1.913970e+001 -8.938634e+000  2.000000e+001
      vertex  1.500000e+001 -1.236068e+001  0.000000e+000
    endloop
  endfacet
  facet normal  6.371351e-001 -7.707521e-001  0.000000e+000
    outer loop
      vertex  1.500000e+001 -1.236068e+001  0.000000e+000
      vertex  1.913970e+001 -8.938634e+000  2.000000e+001
      vertex  1.500000e+001 -1.236068e+001  2.000000e+001
    endloop
  endfacet
  facet normal  0.000000e+000 -1.000000e+000  0.000000e+000
    outer loop
      vertex -1.500000e+001 -1.236068e+001  2.000000e+001
      vertex -1.500000e+001 -1.236068e+001  0.000000e+000
      vertex  1.500000e+001 -1.236068e+001  2.000000e+001
    endloop
  endfacet
  facet normal  0.000000e+000 -1.000000e+000  -0.000000e+000
    outer loop
      vertex  1.500000e+001 -1.236068e+001  2.000000e+001
      vertex -1.500000e+001 -1.236068e+001  0.000000e+000
      vertex  1.500000e+001 -1.236068e+001  0.000000e+000
    endloop
  endfacet
  facet normal -6.371351e-001 -7.707521e-001  -0.000000e+000
    outer loop
      vertex -1.500000e+001 -1.236068e+001  0.000000e+000
      vertex -1.500000e+001 -1.236068e+001  2.000000e+001
      vertex -1.913970e+001 -8.938634e+000  0.000000e+000
    endloop
  endfacet
  facet normal -6.371351e-001 -7.707521e-001  0.000000e+000
    outer loop
      vertex -1.913970e+001 -8.938634e+000  0.000000e+000
      vertex -1.500000e+001 -1.236068e+001  2.000000e+001
      vertex -1.913970e+001 -8.938634e+000  2.000000e+001
    endloop
  endfacet
  facet normal -7.774377e-001 -6.289601e-001  -0.000000e+000
    outer loop
      vertex -1.913970e+001 -8.938634e+000  0.000000e+000
      vertex -1.913970e+001 -8.938634e+000  2.000000e+001
      vertex -2.251784e+001 -4.763025e+000  0.000000e+000
    endloop
  endfacet
  facet normal -7.774377e-001 -6.289601e-001  0.000000e+000
    outer loop
      vertex -2.251784e+001 -4.763025e+000  0.000000e+000
      vertex -1.913970e+001 -8.938634e+000  2.000000e+001
      vertex -2.251784e+001 -4.763025e+000  2.000000e+001
    endloop
  endfacet
  facet normal -8.868059e-001 -4.621422e-001  -0.000000e+000
    outer loop
      vertex -2.251784e+001 -4.763025e+000  0.000000e+000
      vertex -2.251784e+001 -4.763025e+000  2.000000e+001
      vertex -2.500000e+001  1.776357e-015  0.000000e+000
    endloop
  endfacet
  facet normal -8.868059e-001 -4.621422e-001  0.000000e+000
    outer loop
      vertex -2.500000e+001  1.776357e-015  0.000000e+000
      vertex -2.251784e+001 -4.763025e+000  2.000000e+001
      vertex -2.500000e+001  1.776357e-015  2.000000e+001
    endloop
  endfacet
endsolid CATIA STL
