solid CATIA STL
  facet normal -1.000000e+000  0.000000e+000  0.000000e+000
    outer loop
      vertex -5.000000e+001 -2.000000e+001  2.250000e+001
      vertex -5.000000e+001 -2.000000e+001 -2.250000e+001
      vertex -5.000000e+001 -2.176777e+001  2.323223e+001
    endloop
  endfacet
  facet normal -1.000000e+000  0.000000e+000  0.000000e+000
    outer loop
      vertex -5.000000e+001  2.000000e+001 -2.250000e+001
      vertex -5.000000e+001  2.000000e+001  2.250000e+001
      vertex -5.000000e+001  2.176777e+001  2.323223e+001
    endloop
  endfacet
  facet normal -1.000000e+000  0.000000e+000  0.000000e+000
    outer loop
      vertex -5.000000e+001  2.560000e+001 -3.000000e+001
      vertex -5.000000e+001 -2.560000e+001 -3.000000e+001
      vertex -5.000000e+001 -2.000000e+001 -2.750000e+001
    endloop
  endfacet
  facet normal -1.000000e+000  0.000000e+000  0.000000e+000
    outer loop
      vertex -5.000000e+001  2.560000e+001 -3.000000e+001
      vertex -5.000000e+001 -2.000000e+001 -2.750000e+001
      vertex -5.000000e+001  2.000000e+001 -2.750000e+001
    endloop
  endfacet
  facet normal -1.000000e+000  0.000000e+000  0.000000e+000
    outer loop
      vertex -5.000000e+001  2.560000e+001 -3.000000e+001
      vertex -5.000000e+001  2.000000e+001 -2.750000e+001
      vertex -5.000000e+001  2.176777e+001 -2.676777e+001
    endloop
  endfacet
  facet normal -1.000000e+000  0.000000e+000  0.000000e+000
    outer loop
      vertex -5.000000e+001  2.560000e+001 -3.000000e+001
      vertex -5.000000e+001  2.176777e+001 -2.676777e+001
      vertex -5.000000e+001  2.250000e+001 -2.500000e+001
    endloop
  endfacet
  facet normal -1.000000e+000  0.000000e+000  0.000000e+000
    outer loop
      vertex -5.000000e+001  2.560000e+001 -3.000000e+001
      vertex -5.000000e+001  2.250000e+001 -2.500000e+001
      vertex -5.000000e+001  2.560000e+001  3.000000e+001
    endloop
  endfacet
  facet normal -1.000000e+000  -0.000000e+000  0.000000e+000
    outer loop
      vertex -5.000000e+001 -2.560000e+001  3.000000e+001
      vertex -5.000000e+001  2.560000e+001  3.000000e+001
      vertex -5.000000e+001  2.000000e+001  2.750000e+001
    endloop
  endfacet
  facet normal -1.000000e+000  0.000000e+000  0.000000e+000
    outer loop
      vertex -5.000000e+001 -2.560000e+001  3.000000e+001
      vertex -5.000000e+001  2.000000e+001  2.750000e+001
      vertex -5.000000e+001 -2.000000e+001  2.750000e+001
    endloop
  endfacet
  facet normal -1.000000e+000  -0.000000e+000  0.000000e+000
    outer loop
      vertex -5.000000e+001 -2.560000e+001  3.000000e+001
      vertex -5.000000e+001 -2.000000e+001  2.750000e+001
      vertex -5.000000e+001 -2.176777e+001  2.676777e+001
    endloop
  endfacet
  facet normal -1.000000e+000  -0.000000e+000  0.000000e+000
    outer loop
      vertex -5.000000e+001 -2.560000e+001  3.000000e+001
      vertex -5.000000e+001 -2.176777e+001  2.676777e+001
      vertex -5.000000e+001 -2.250000e+001  2.500000e+001
    endloop
  endfacet
  facet normal -1.000000e+000  -0.000000e+000  -0.000000e+000
    outer loop
      vertex -5.000000e+001 -2.560000e+001  3.000000e+001
      vertex -5.000000e+001 -2.250000e+001  2.500000e+001
      vertex -5.000000e+001 -2.176777e+001  2.323223e+001
    endloop
  endfacet
  facet normal -1.000000e+000  -0.000000e+000  -0.000000e+000
    outer loop
      vertex -5.000000e+001 -2.560000e+001  3.000000e+001
      vertex -5.000000e+001 -2.176777e+001  2.323223e+001
      vertex -5.000000e+001 -2.000000e+001 -2.250000e+001
    endloop
  endfacet
  facet normal -1.000000e+000  -0.000000e+000  0.000000e+000
    outer loop
      vertex -5.000000e+001 -2.560000e+001  3.000000e+001
      vertex -5.000000e+001 -2.000000e+001 -2.250000e+001
      vertex -5.000000e+001 -2.176777e+001 -2.323223e+001
    endloop
  endfacet
  facet normal -1.000000e+000  -0.000000e+000  0.000000e+000
    outer loop
      vertex -5.000000e+001 -2.560000e+001  3.000000e+001
      vertex -5.000000e+001 -2.176777e+001 -2.323223e+001
      vertex -5.000000e+001 -2.250000e+001 -2.500000e+001
    endloop
  endfacet
  facet normal -1.000000e+000  0.000000e+000  0.000000e+000
    outer loop
      vertex -5.000000e+001 -2.560000e+001 -3.000000e+001
      vertex -5.000000e+001 -2.560000e+001  3.000000e+001
      vertex -5.000000e+001 -2.250000e+001 -2.500000e+001
    endloop
  endfacet
  facet normal -1.000000e+000  0.000000e+000  -0.000000e+000
    outer loop
      vertex -5.000000e+001 -2.560000e+001 -3.000000e+001
      vertex -5.000000e+001 -2.250000e+001 -2.500000e+001
      vertex -5.000000e+001 -2.176777e+001 -2.676777e+001
    endloop
  endfacet
  facet normal -1.000000e+000  0.000000e+000  -0.000000e+000
    outer loop
      vertex -5.000000e+001 -2.560000e+001 -3.000000e+001
      vertex -5.000000e+001 -2.176777e+001 -2.676777e+001
      vertex -5.000000e+001 -2.000000e+001 -2.750000e+001
    endloop
  endfacet
  facet normal -1.000000e+000  0.000000e+000  0.000000e+000
    outer loop
      vertex -5.000000e+001  2.560000e+001  3.000000e+001
      vertex -5.000000e+001  2.250000e+001 -2.500000e+001
      vertex -5.000000e+001  2.176777e+001 -2.323223e+001
    endloop
  endfacet
  facet normal -1.000000e+000  0.000000e+000  0.000000e+000
    outer loop
      vertex -5.000000e+001  2.560000e+001  3.000000e+001
      vertex -5.000000e+001  2.176777e+001 -2.323223e+001
      vertex -5.000000e+001  2.000000e+001 -2.250000e+001
    endloop
  endfacet
  facet normal -1.000000e+000  0.000000e+000  0.000000e+000
    outer loop
      vertex -5.000000e+001  2.560000e+001  3.000000e+001
      vertex -5.000000e+001  2.000000e+001 -2.250000e+001
      vertex -5.000000e+001  2.176777e+001  2.323223e+001
    endloop
  endfacet
  facet normal -1.000000e+000  0.000000e+000  0.000000e+000
    outer loop
      vertex -5.000000e+001  2.560000e+001  3.000000e+001
      vertex -5.000000e+001  2.176777e+001  2.323223e+001
      vertex -5.000000e+001  2.250000e+001  2.500000e+001
    endloop
  endfacet
  facet normal -1.000000e+000  0.000000e+000  0.000000e+000
    outer loop
      vertex -5.000000e+001  2.560000e+001  3.000000e+001
      vertex -5.000000e+001  2.250000e+001  2.500000e+001
      vertex -5.000000e+001  2.176777e+001  2.676777e+001
    endloop
  endfacet
  facet normal -1.000000e+000  0.000000e+000  0.000000e+000
    outer loop
      vertex -5.000000e+001  2.560000e+001  3.000000e+001
      vertex -5.000000e+001  2.176777e+001  2.676777e+001
      vertex -5.000000e+001  2.000000e+001  2.750000e+001
    endloop
  endfacet
  facet normal -1.000000e+000  0.000000e+000  0.000000e+000
    outer loop
      vertex -5.000000e+001  2.000000e+001 -2.750000e+001
      vertex -5.000000e+001 -2.000000e+001 -2.750000e+001
      vertex -5.000000e+001  1.823223e+001 -2.676777e+001
    endloop
  endfacet
  facet normal -1.000000e+000  -0.000000e+000  0.000000e+000
    outer loop
      vertex -5.000000e+001  1.823223e+001 -2.676777e+001
      vertex -5.000000e+001 -2.000000e+001 -2.750000e+001
      vertex -5.000000e+001 -1.823223e+001 -2.676777e+001
    endloop
  endfacet
  facet normal -1.000000e+000  0.000000e+000  0.000000e+000
    outer loop
      vertex -5.000000e+001  1.823223e+001 -2.676777e+001
      vertex -5.000000e+001 -1.823223e+001 -2.676777e+001
      vertex -5.000000e+001  1.750000e+001 -2.500000e+001
    endloop
  endfacet
  facet normal -1.000000e+000  -0.000000e+000  0.000000e+000
    outer loop
      vertex -5.000000e+001  1.750000e+001 -2.500000e+001
      vertex -5.000000e+001 -1.823223e+001 -2.676777e+001
      vertex -5.000000e+001 -1.750000e+001 -2.500000e+001
    endloop
  endfacet
  facet normal -1.000000e+000  0.000000e+000  0.000000e+000
    outer loop
      vertex -5.000000e+001  1.750000e+001 -2.500000e+001
      vertex -5.000000e+001 -1.750000e+001 -2.500000e+001
      vertex -5.000000e+001  1.823223e+001 -2.323223e+001
    endloop
  endfacet
  facet normal -1.000000e+000  -0.000000e+000  0.000000e+000
    outer loop
      vertex -5.000000e+001  1.823223e+001 -2.323223e+001
      vertex -5.000000e+001 -1.750000e+001 -2.500000e+001
      vertex -5.000000e+001 -1.823223e+001 -2.323223e+001
    endloop
  endfacet
  facet normal -1.000000e+000  0.000000e+000  0.000000e+000
    outer loop
      vertex -5.000000e+001  1.823223e+001 -2.323223e+001
      vertex -5.000000e+001 -1.823223e+001 -2.323223e+001
      vertex -5.000000e+001  2.000000e+001 -2.250000e+001
    endloop
  endfacet
  facet normal -1.000000e+000  -0.000000e+000  0.000000e+000
    outer loop
      vertex -5.000000e+001  2.000000e+001 -2.250000e+001
      vertex -5.000000e+001 -1.823223e+001 -2.323223e+001
      vertex -5.000000e+001 -2.000000e+001 -2.250000e+001
    endloop
  endfacet
  facet normal -1.000000e+000  0.000000e+000  0.000000e+000
    outer loop
      vertex -5.000000e+001  2.000000e+001 -2.250000e+001
      vertex -5.000000e+001 -2.000000e+001 -2.250000e+001
      vertex -5.000000e+001  2.000000e+001  2.250000e+001
    endloop
  endfacet
  facet normal -1.000000e+000  -0.000000e+000  0.000000e+000
    outer loop
      vertex -5.000000e+001  2.000000e+001  2.250000e+001
      vertex -5.000000e+001 -2.000000e+001 -2.250000e+001
      vertex -5.000000e+001 -2.000000e+001  2.250000e+001
    endloop
  endfacet
  facet normal -1.000000e+000  0.000000e+000  0.000000e+000
    outer loop
      vertex -5.000000e+001  2.000000e+001  2.250000e+001
      vertex -5.000000e+001 -2.000000e+001  2.250000e+001
      vertex -5.000000e+001  1.823223e+001  2.323223e+001
    endloop
  endfacet
  facet normal -1.000000e+000  -0.000000e+000  0.000000e+000
    outer loop
      vertex -5.000000e+001  1.823223e+001  2.323223e+001
      vertex -5.000000e+001 -2.000000e+001  2.250000e+001
      vertex -5.000000e+001 -1.823223e+001  2.323223e+001
    endloop
  endfacet
  facet normal -1.000000e+000  0.000000e+000  0.000000e+000
    outer loop
      vertex -5.000000e+001  1.823223e+001  2.323223e+001
      vertex -5.000000e+001 -1.823223e+001  2.323223e+001
      vertex -5.000000e+001  1.750000e+001  2.500000e+001
    endloop
  endfacet
  facet normal -1.000000e+000  -0.000000e+000  0.000000e+000
    outer loop
      vertex -5.000000e+001  1.750000e+001  2.500000e+001
      vertex -5.000000e+001 -1.823223e+001  2.323223e+001
      vertex -5.000000e+001 -1.750000e+001  2.500000e+001
    endloop
  endfacet
  facet normal -1.000000e+000  0.000000e+000  0.000000e+000
    outer loop
      vertex -5.000000e+001  1.750000e+001  2.500000e+001
      vertex -5.000000e+001 -1.750000e+001  2.500000e+001
      vertex -5.000000e+001  1.823223e+001  2.676777e+001
    endloop
  endfacet
  facet normal -1.000000e+000  -0.000000e+000  0.000000e+000
    outer loop
      vertex -5.000000e+001  1.823223e+001  2.676777e+001
      vertex -5.000000e+001 -1.750000e+001  2.500000e+001
      vertex -5.000000e+001 -1.823223e+001  2.676777e+001
    endloop
  endfacet
  facet normal -1.000000e+000  0.000000e+000  0.000000e+000
    outer loop
      vertex -5.000000e+001  1.823223e+001  2.676777e+001
      vertex -5.000000e+001 -1.823223e+001  2.676777e+001
      vertex -5.000000e+001  2.000000e+001  2.750000e+001
    endloop
  endfacet
  facet normal -1.000000e+000  -0.000000e+000  0.000000e+000
    outer loop
      vertex -5.000000e+001  2.000000e+001  2.750000e+001
      vertex -5.000000e+001 -1.823223e+001  2.676777e+001
      vertex -5.000000e+001 -2.000000e+001  2.750000e+001
    endloop
  endfacet
  facet normal  0.000000e+000  9.238796e-001  3.826834e-001
    outer loop
      vertex -5.000000e+001  1.750000e+001 -2.500000e+001
      vertex -2.500000e+001  1.750000e+001 -2.500000e+001
      vertex -5.000000e+001  1.823223e+001 -2.676777e+001
    endloop
  endfacet
  facet normal  -0.000000e+000  9.238796e-001  3.826834e-001
    outer loop
      vertex -5.000000e+001  1.823223e+001 -2.676777e+001
      vertex -2.500000e+001  1.750000e+001 -2.500000e+001
      vertex -2.500000e+001  1.823223e+001 -2.676777e+001
    endloop
  endfacet
  facet normal  0.000000e+000  3.826834e-001  9.238796e-001
    outer loop
      vertex -5.000000e+001  1.823223e+001 -2.676777e+001
      vertex -2.500000e+001  1.823223e+001 -2.676777e+001
      vertex -5.000000e+001  2.000000e+001 -2.750000e+001
    endloop
  endfacet
  facet normal  -0.000000e+000  3.826834e-001  9.238796e-001
    outer loop
      vertex -5.000000e+001  2.000000e+001 -2.750000e+001
      vertex -2.500000e+001  1.823223e+001 -2.676777e+001
      vertex -2.500000e+001  2.000000e+001 -2.750000e+001
    endloop
  endfacet
  facet normal  0.000000e+000 -3.826834e-001  9.238796e-001
    outer loop
      vertex -5.000000e+001  2.000000e+001 -2.750000e+001
      vertex -2.500000e+001  2.000000e+001 -2.750000e+001
      vertex -5.000000e+001  2.176777e+001 -2.676777e+001
    endloop
  endfacet
  facet normal  0.000000e+000 -3.826834e-001  9.238796e-001
    outer loop
      vertex -5.000000e+001  2.176777e+001 -2.676777e+001
      vertex -2.500000e+001  2.000000e+001 -2.750000e+001
      vertex -2.500000e+001  2.176777e+001 -2.676777e+001
    endloop
  endfacet
  facet normal  0.000000e+000 -9.238796e-001  3.826834e-001
    outer loop
      vertex -5.000000e+001  2.176777e+001 -2.676777e+001
      vertex -2.500000e+001  2.176777e+001 -2.676777e+001
      vertex -5.000000e+001  2.250000e+001 -2.500000e+001
    endloop
  endfacet
  facet normal  0.000000e+000 -9.238796e-001  3.826834e-001
    outer loop
      vertex -5.000000e+001  2.250000e+001 -2.500000e+001
      vertex -2.500000e+001  2.176777e+001 -2.676777e+001
      vertex -2.500000e+001  2.250000e+001 -2.500000e+001
    endloop
  endfacet
  facet normal  -0.000000e+000 -9.238796e-001 -3.826834e-001
    outer loop
      vertex -5.000000e+001  2.250000e+001 -2.500000e+001
      vertex -2.500000e+001  2.250000e+001 -2.500000e+001
      vertex -5.000000e+001  2.176777e+001 -2.323223e+001
    endloop
  endfacet
  facet normal  0.000000e+000 -9.238796e-001 -3.826834e-001
    outer loop
      vertex -5.000000e+001  2.176777e+001 -2.323223e+001
      vertex -2.500000e+001  2.250000e+001 -2.500000e+001
      vertex -2.500000e+001  2.176777e+001 -2.323223e+001
    endloop
  endfacet
  facet normal  -0.000000e+000 -3.826834e-001 -9.238796e-001
    outer loop
      vertex -5.000000e+001  2.176777e+001 -2.323223e+001
      vertex -2.500000e+001  2.176777e+001 -2.323223e+001
      vertex -5.000000e+001  2.000000e+001 -2.250000e+001
    endloop
  endfacet
  facet normal  0.000000e+000 -3.826834e-001 -9.238796e-001
    outer loop
      vertex -5.000000e+001  2.000000e+001 -2.250000e+001
      vertex -2.500000e+001  2.176777e+001 -2.323223e+001
      vertex -2.500000e+001  2.000000e+001 -2.250000e+001
    endloop
  endfacet
  facet normal  0.000000e+000  3.826834e-001 -9.238796e-001
    outer loop
      vertex -5.000000e+001  2.000000e+001 -2.250000e+001
      vertex -2.500000e+001  2.000000e+001 -2.250000e+001
      vertex -5.000000e+001  1.823223e+001 -2.323223e+001
    endloop
  endfacet
  facet normal  0.000000e+000  3.826834e-001 -9.238796e-001
    outer loop
      vertex -5.000000e+001  1.823223e+001 -2.323223e+001
      vertex -2.500000e+001  2.000000e+001 -2.250000e+001
      vertex -2.500000e+001  1.823223e+001 -2.323223e+001
    endloop
  endfacet
  facet normal  0.000000e+000  9.238796e-001 -3.826834e-001
    outer loop
      vertex -5.000000e+001  1.823223e+001 -2.323223e+001
      vertex -2.500000e+001  1.823223e+001 -2.323223e+001
      vertex -5.000000e+001  1.750000e+001 -2.500000e+001
    endloop
  endfacet
  facet normal  0.000000e+000  9.238796e-001 -3.826834e-001
    outer loop
      vertex -5.000000e+001  1.750000e+001 -2.500000e+001
      vertex -2.500000e+001  1.823223e+001 -2.323223e+001
      vertex -2.500000e+001  1.750000e+001 -2.500000e+001
    endloop
  endfacet
  facet normal  0.000000e+000  9.238796e-001  3.826834e-001
    outer loop
      vertex -5.000000e+001 -2.250000e+001 -2.500000e+001
      vertex -2.500000e+001 -2.250000e+001 -2.500000e+001
      vertex -5.000000e+001 -2.176777e+001 -2.676777e+001
    endloop
  endfacet
  facet normal  -0.000000e+000  9.238796e-001  3.826834e-001
    outer loop
      vertex -5.000000e+001 -2.176777e+001 -2.676777e+001
      vertex -2.500000e+001 -2.250000e+001 -2.500000e+001
      vertex -2.500000e+001 -2.176777e+001 -2.676777e+001
    endloop
  endfacet
  facet normal  0.000000e+000  3.826834e-001  9.238796e-001
    outer loop
      vertex -5.000000e+001 -2.176777e+001 -2.676777e+001
      vertex -2.500000e+001 -2.176777e+001 -2.676777e+001
      vertex -5.000000e+001 -2.000000e+001 -2.750000e+001
    endloop
  endfacet
  facet normal  -0.000000e+000  3.826834e-001  9.238796e-001
    outer loop
      vertex -5.000000e+001 -2.000000e+001 -2.750000e+001
      vertex -2.500000e+001 -2.176777e+001 -2.676777e+001
      vertex -2.500000e+001 -2.000000e+001 -2.750000e+001
    endloop
  endfacet
  facet normal  0.000000e+000 -3.826834e-001  9.238796e-001
    outer loop
      vertex -5.000000e+001 -2.000000e+001 -2.750000e+001
      vertex -2.500000e+001 -2.000000e+001 -2.750000e+001
      vertex -5.000000e+001 -1.823223e+001 -2.676777e+001
    endloop
  endfacet
  facet normal  0.000000e+000 -3.826834e-001  9.238796e-001
    outer loop
      vertex -5.000000e+001 -1.823223e+001 -2.676777e+001
      vertex -2.500000e+001 -2.000000e+001 -2.750000e+001
      vertex -2.500000e+001 -1.823223e+001 -2.676777e+001
    endloop
  endfacet
  facet normal  0.000000e+000 -9.238796e-001  3.826834e-001
    outer loop
      vertex -5.000000e+001 -1.823223e+001 -2.676777e+001
      vertex -2.500000e+001 -1.823223e+001 -2.676777e+001
      vertex -5.000000e+001 -1.750000e+001 -2.500000e+001
    endloop
  endfacet
  facet normal  0.000000e+000 -9.238796e-001  3.826834e-001
    outer loop
      vertex -5.000000e+001 -1.750000e+001 -2.500000e+001
      vertex -2.500000e+001 -1.823223e+001 -2.676777e+001
      vertex -2.500000e+001 -1.750000e+001 -2.500000e+001
    endloop
  endfacet
  facet normal  -0.000000e+000 -9.238796e-001 -3.826834e-001
    outer loop
      vertex -5.000000e+001 -1.750000e+001 -2.500000e+001
      vertex -2.500000e+001 -1.750000e+001 -2.500000e+001
      vertex -5.000000e+001 -1.823223e+001 -2.323223e+001
    endloop
  endfacet
  facet normal  0.000000e+000 -9.238796e-001 -3.826834e-001
    outer loop
      vertex -5.000000e+001 -1.823223e+001 -2.323223e+001
      vertex -2.500000e+001 -1.750000e+001 -2.500000e+001
      vertex -2.500000e+001 -1.823223e+001 -2.323223e+001
    endloop
  endfacet
  facet normal  -0.000000e+000 -3.826834e-001 -9.238796e-001
    outer loop
      vertex -5.000000e+001 -1.823223e+001 -2.323223e+001
      vertex -2.500000e+001 -1.823223e+001 -2.323223e+001
      vertex -5.000000e+001 -2.000000e+001 -2.250000e+001
    endloop
  endfacet
  facet normal  0.000000e+000 -3.826834e-001 -9.238796e-001
    outer loop
      vertex -5.000000e+001 -2.000000e+001 -2.250000e+001
      vertex -2.500000e+001 -1.823223e+001 -2.323223e+001
      vertex -2.500000e+001 -2.000000e+001 -2.250000e+001
    endloop
  endfacet
  facet normal  0.000000e+000  3.826834e-001 -9.238796e-001
    outer loop
      vertex -5.000000e+001 -2.000000e+001 -2.250000e+001
      vertex -2.500000e+001 -2.000000e+001 -2.250000e+001
      vertex -5.000000e+001 -2.176777e+001 -2.323223e+001
    endloop
  endfacet
  facet normal  0.000000e+000  3.826834e-001 -9.238796e-001
    outer loop
      vertex -5.000000e+001 -2.176777e+001 -2.323223e+001
      vertex -2.500000e+001 -2.000000e+001 -2.250000e+001
      vertex -2.500000e+001 -2.176777e+001 -2.323223e+001
    endloop
  endfacet
  facet normal  0.000000e+000  9.238796e-001 -3.826834e-001
    outer loop
      vertex -5.000000e+001 -2.176777e+001 -2.323223e+001
      vertex -2.500000e+001 -2.176777e+001 -2.323223e+001
      vertex -5.000000e+001 -2.250000e+001 -2.500000e+001
    endloop
  endfacet
  facet normal  0.000000e+000  9.238796e-001 -3.826834e-001
    outer loop
      vertex -5.000000e+001 -2.250000e+001 -2.500000e+001
      vertex -2.500000e+001 -2.176777e+001 -2.323223e+001
      vertex -2.500000e+001 -2.250000e+001 -2.500000e+001
    endloop
  endfacet
  facet normal  0.000000e+000  9.238796e-001  3.826834e-001
    outer loop
      vertex -5.000000e+001  1.750000e+001  2.500000e+001
      vertex -2.500000e+001  1.750000e+001  2.500000e+001
      vertex -5.000000e+001  1.823223e+001  2.323223e+001
    endloop
  endfacet
  facet normal  -0.000000e+000  9.238796e-001  3.826834e-001
    outer loop
      vertex -5.000000e+001  1.823223e+001  2.323223e+001
      vertex -2.500000e+001  1.750000e+001  2.500000e+001
      vertex -2.500000e+001  1.823223e+001  2.323223e+001
    endloop
  endfacet
  facet normal  0.000000e+000  3.826834e-001  9.238796e-001
    outer loop
      vertex -5.000000e+001  1.823223e+001  2.323223e+001
      vertex -2.500000e+001  1.823223e+001  2.323223e+001
      vertex -5.000000e+001  2.000000e+001  2.250000e+001
    endloop
  endfacet
  facet normal  -0.000000e+000  3.826834e-001  9.238796e-001
    outer loop
      vertex -5.000000e+001  2.000000e+001  2.250000e+001
      vertex -2.500000e+001  1.823223e+001  2.323223e+001
      vertex -2.500000e+001  2.000000e+001  2.250000e+001
    endloop
  endfacet
  facet normal  0.000000e+000 -3.826834e-001  9.238796e-001
    outer loop
      vertex -5.000000e+001  2.000000e+001  2.250000e+001
      vertex -2.500000e+001  2.000000e+001  2.250000e+001
      vertex -5.000000e+001  2.176777e+001  2.323223e+001
    endloop
  endfacet
  facet normal  0.000000e+000 -3.826834e-001  9.238796e-001
    outer loop
      vertex -5.000000e+001  2.176777e+001  2.323223e+001
      vertex -2.500000e+001  2.000000e+001  2.250000e+001
      vertex -2.500000e+001  2.176777e+001  2.323223e+001
    endloop
  endfacet
  facet normal  0.000000e+000 -9.238796e-001  3.826834e-001
    outer loop
      vertex -5.000000e+001  2.176777e+001  2.323223e+001
      vertex -2.500000e+001  2.176777e+001  2.323223e+001
      vertex -5.000000e+001  2.250000e+001  2.500000e+001
    endloop
  endfacet
  facet normal  0.000000e+000 -9.238796e-001  3.826834e-001
    outer loop
      vertex -5.000000e+001  2.250000e+001  2.500000e+001
      vertex -2.500000e+001  2.176777e+001  2.323223e+001
      vertex -2.500000e+001  2.250000e+001  2.500000e+001
    endloop
  endfacet
  facet normal  -0.000000e+000 -9.238796e-001 -3.826834e-001
    outer loop
      vertex -5.000000e+001  2.250000e+001  2.500000e+001
      vertex -2.500000e+001  2.250000e+001  2.500000e+001
      vertex -5.000000e+001  2.176777e+001  2.676777e+001
    endloop
  endfacet
  facet normal  0.000000e+000 -9.238796e-001 -3.826834e-001
    outer loop
      vertex -5.000000e+001  2.176777e+001  2.676777e+001
      vertex -2.500000e+001  2.250000e+001  2.500000e+001
      vertex -2.500000e+001  2.176777e+001  2.676777e+001
    endloop
  endfacet
  facet normal  -0.000000e+000 -3.826834e-001 -9.238796e-001
    outer loop
      vertex -5.000000e+001  2.176777e+001  2.676777e+001
      vertex -2.500000e+001  2.176777e+001  2.676777e+001
      vertex -5.000000e+001  2.000000e+001  2.750000e+001
    endloop
  endfacet
  facet normal  0.000000e+000 -3.826834e-001 -9.238796e-001
    outer loop
      vertex -5.000000e+001  2.000000e+001  2.750000e+001
      vertex -2.500000e+001  2.176777e+001  2.676777e+001
      vertex -2.500000e+001  2.000000e+001  2.750000e+001
    endloop
  endfacet
  facet normal  0.000000e+000  3.826834e-001 -9.238796e-001
    outer loop
      vertex -5.000000e+001  2.000000e+001  2.750000e+001
      vertex -2.500000e+001  2.000000e+001  2.750000e+001
      vertex -5.000000e+001  1.823223e+001  2.676777e+001
    endloop
  endfacet
  facet normal  0.000000e+000  3.826834e-001 -9.238796e-001
    outer loop
      vertex -5.000000e+001  1.823223e+001  2.676777e+001
      vertex -2.500000e+001  2.000000e+001  2.750000e+001
      vertex -2.500000e+001  1.823223e+001  2.676777e+001
    endloop
  endfacet
  facet normal  0.000000e+000  9.238796e-001 -3.826834e-001
    outer loop
      vertex -5.000000e+001  1.823223e+001  2.676777e+001
      vertex -2.500000e+001  1.823223e+001  2.676777e+001
      vertex -5.000000e+001  1.750000e+001  2.500000e+001
    endloop
  endfacet
  facet normal  0.000000e+000  9.238796e-001 -3.826834e-001
    outer loop
      vertex -5.000000e+001  1.750000e+001  2.500000e+001
      vertex -2.500000e+001  1.823223e+001  2.676777e+001
      vertex -2.500000e+001  1.750000e+001  2.500000e+001
    endloop
  endfacet
  facet normal  0.000000e+000  9.238796e-001  3.826834e-001
    outer loop
      vertex -5.000000e+001 -2.250000e+001  2.500000e+001
      vertex -2.500000e+001 -2.250000e+001  2.500000e+001
      vertex -5.000000e+001 -2.176777e+001  2.323223e+001
    endloop
  endfacet
  facet normal  -0.000000e+000  9.238796e-001  3.826834e-001
    outer loop
      vertex -5.000000e+001 -2.176777e+001  2.323223e+001
      vertex -2.500000e+001 -2.250000e+001  2.500000e+001
      vertex -2.500000e+001 -2.176777e+001  2.323223e+001
    endloop
  endfacet
  facet normal  0.000000e+000  3.826834e-001  9.238796e-001
    outer loop
      vertex -5.000000e+001 -2.176777e+001  2.323223e+001
      vertex -2.500000e+001 -2.176777e+001  2.323223e+001
      vertex -5.000000e+001 -2.000000e+001  2.250000e+001
    endloop
  endfacet
  facet normal  -0.000000e+000  3.826834e-001  9.238796e-001
    outer loop
      vertex -5.000000e+001 -2.000000e+001  2.250000e+001
      vertex -2.500000e+001 -2.176777e+001  2.323223e+001
      vertex -2.500000e+001 -2.000000e+001  2.250000e+001
    endloop
  endfacet
  facet normal  0.000000e+000 -3.826834e-001  9.238796e-001
    outer loop
      vertex -5.000000e+001 -2.000000e+001  2.250000e+001
      vertex -2.500000e+001 -2.000000e+001  2.250000e+001
      vertex -5.000000e+001 -1.823223e+001  2.323223e+001
    endloop
  endfacet
  facet normal  0.000000e+000 -3.826834e-001  9.238796e-001
    outer loop
      vertex -5.000000e+001 -1.823223e+001  2.323223e+001
      vertex -2.500000e+001 -2.000000e+001  2.250000e+001
      vertex -2.500000e+001 -1.823223e+001  2.323223e+001
    endloop
  endfacet
  facet normal  0.000000e+000 -9.238796e-001  3.826834e-001
    outer loop
      vertex -5.000000e+001 -1.823223e+001  2.323223e+001
      vertex -2.500000e+001 -1.823223e+001  2.323223e+001
      vertex -5.000000e+001 -1.750000e+001  2.500000e+001
    endloop
  endfacet
  facet normal  0.000000e+000 -9.238796e-001  3.826834e-001
    outer loop
      vertex -5.000000e+001 -1.750000e+001  2.500000e+001
      vertex -2.500000e+001 -1.823223e+001  2.323223e+001
      vertex -2.500000e+001 -1.750000e+001  2.500000e+001
    endloop
  endfacet
  facet normal  -0.000000e+000 -9.238796e-001 -3.826834e-001
    outer loop
      vertex -5.000000e+001 -1.750000e+001  2.500000e+001
      vertex -2.500000e+001 -1.750000e+001  2.500000e+001
      vertex -5.000000e+001 -1.823223e+001  2.676777e+001
    endloop
  endfacet
  facet normal  0.000000e+000 -9.238796e-001 -3.826834e-001
    outer loop
      vertex -5.000000e+001 -1.823223e+001  2.676777e+001
      vertex -2.500000e+001 -1.750000e+001  2.500000e+001
      vertex -2.500000e+001 -1.823223e+001  2.676777e+001
    endloop
  endfacet
  facet normal  -0.000000e+000 -3.826834e-001 -9.238796e-001
    outer loop
      vertex -5.000000e+001 -1.823223e+001  2.676777e+001
      vertex -2.500000e+001 -1.823223e+001  2.676777e+001
      vertex -5.000000e+001 -2.000000e+001  2.750000e+001
    endloop
  endfacet
  facet normal  0.000000e+000 -3.826834e-001 -9.238796e-001
    outer loop
      vertex -5.000000e+001 -2.000000e+001  2.750000e+001
      vertex -2.500000e+001 -1.823223e+001  2.676777e+001
      vertex -2.500000e+001 -2.000000e+001  2.750000e+001
    endloop
  endfacet
  facet normal  0.000000e+000  3.826834e-001 -9.238796e-001
    outer loop
      vertex -5.000000e+001 -2.000000e+001  2.750000e+001
      vertex -2.500000e+001 -2.000000e+001  2.750000e+001
      vertex -5.000000e+001 -2.176777e+001  2.676777e+001
    endloop
  endfacet
  facet normal  0.000000e+000  3.826834e-001 -9.238796e-001
    outer loop
      vertex -5.000000e+001 -2.176777e+001  2.676777e+001
      vertex -2.500000e+001 -2.000000e+001  2.750000e+001
      vertex -2.500000e+001 -2.176777e+001  2.676777e+001
    endloop
  endfacet
  facet normal  0.000000e+000  9.238796e-001 -3.826834e-001
    outer loop
      vertex -5.000000e+001 -2.176777e+001  2.676777e+001
      vertex -2.500000e+001 -2.176777e+001  2.676777e+001
      vertex -5.000000e+001 -2.250000e+001  2.500000e+001
    endloop
  endfacet
  facet normal  0.000000e+000  9.238796e-001 -3.826834e-001
    outer loop
      vertex -5.000000e+001 -2.250000e+001  2.500000e+001
      vertex -2.500000e+001 -2.176777e+001  2.676777e+001
      vertex -2.500000e+001 -2.250000e+001  2.500000e+001
    endloop
  endfacet
  facet normal -1.000000e+000  0.000000e+000  0.000000e+000
    outer loop
      vertex -2.500000e+001  2.176777e+001 -2.323223e+001
      vertex -2.500000e+001  1.823223e+001 -2.323223e+001
      vertex -2.500000e+001  2.000000e+001 -2.250000e+001
    endloop
  endfacet
  facet normal -1.000000e+000  -0.000000e+000  0.000000e+000
    outer loop
      vertex -2.500000e+001  1.823223e+001 -2.323223e+001
      vertex -2.500000e+001  2.176777e+001 -2.323223e+001
      vertex -2.500000e+001  1.750000e+001 -2.500000e+001
    endloop
  endfacet
  facet normal -1.000000e+000  0.000000e+000  0.000000e+000
    outer loop
      vertex -2.500000e+001  1.750000e+001 -2.500000e+001
      vertex -2.500000e+001  2.176777e+001 -2.323223e+001
      vertex -2.500000e+001  2.250000e+001 -2.500000e+001
    endloop
  endfacet
  facet normal -1.000000e+000  -0.000000e+000  0.000000e+000
    outer loop
      vertex -2.500000e+001  1.750000e+001 -2.500000e+001
      vertex -2.500000e+001  2.250000e+001 -2.500000e+001
      vertex -2.500000e+001  1.823223e+001 -2.676777e+001
    endloop
  endfacet
  facet normal -1.000000e+000  0.000000e+000  0.000000e+000
    outer loop
      vertex -2.500000e+001  1.823223e+001 -2.676777e+001
      vertex -2.500000e+001  2.250000e+001 -2.500000e+001
      vertex -2.500000e+001  2.176777e+001 -2.676777e+001
    endloop
  endfacet
  facet normal -1.000000e+000  -0.000000e+000  0.000000e+000
    outer loop
      vertex -2.500000e+001  1.823223e+001 -2.676777e+001
      vertex -2.500000e+001  2.176777e+001 -2.676777e+001
      vertex -2.500000e+001  2.000000e+001 -2.750000e+001
    endloop
  endfacet
  facet normal -1.000000e+000  0.000000e+000  0.000000e+000
    outer loop
      vertex -2.500000e+001 -1.823223e+001 -2.323223e+001
      vertex -2.500000e+001 -2.176777e+001 -2.323223e+001
      vertex -2.500000e+001 -2.000000e+001 -2.250000e+001
    endloop
  endfacet
  facet normal -1.000000e+000  -0.000000e+000  0.000000e+000
    outer loop
      vertex -2.500000e+001 -2.176777e+001 -2.323223e+001
      vertex -2.500000e+001 -1.823223e+001 -2.323223e+001
      vertex -2.500000e+001 -2.250000e+001 -2.500000e+001
    endloop
  endfacet
  facet normal -1.000000e+000  0.000000e+000  0.000000e+000
    outer loop
      vertex -2.500000e+001 -2.250000e+001 -2.500000e+001
      vertex -2.500000e+001 -1.823223e+001 -2.323223e+001
      vertex -2.500000e+001 -1.750000e+001 -2.500000e+001
    endloop
  endfacet
  facet normal -1.000000e+000  -0.000000e+000  0.000000e+000
    outer loop
      vertex -2.500000e+001 -2.250000e+001 -2.500000e+001
      vertex -2.500000e+001 -1.750000e+001 -2.500000e+001
      vertex -2.500000e+001 -2.176777e+001 -2.676777e+001
    endloop
  endfacet
  facet normal -1.000000e+000  0.000000e+000  0.000000e+000
    outer loop
      vertex -2.500000e+001 -2.176777e+001 -2.676777e+001
      vertex -2.500000e+001 -1.750000e+001 -2.500000e+001
      vertex -2.500000e+001 -1.823223e+001 -2.676777e+001
    endloop
  endfacet
  facet normal -1.000000e+000  -0.000000e+000  0.000000e+000
    outer loop
      vertex -2.500000e+001 -2.176777e+001 -2.676777e+001
      vertex -2.500000e+001 -1.823223e+001 -2.676777e+001
      vertex -2.500000e+001 -2.000000e+001 -2.750000e+001
    endloop
  endfacet
  facet normal -1.000000e+000  0.000000e+000  0.000000e+000
    outer loop
      vertex -2.500000e+001  2.176777e+001  2.676777e+001
      vertex -2.500000e+001  1.823223e+001  2.676777e+001
      vertex -2.500000e+001  2.000000e+001  2.750000e+001
    endloop
  endfacet
  facet normal -1.000000e+000  -0.000000e+000  0.000000e+000
    outer loop
      vertex -2.500000e+001  1.823223e+001  2.676777e+001
      vertex -2.500000e+001  2.176777e+001  2.676777e+001
      vertex -2.500000e+001  1.750000e+001  2.500000e+001
    endloop
  endfacet
  facet normal -1.000000e+000  0.000000e+000  0.000000e+000
    outer loop
      vertex -2.500000e+001  1.750000e+001  2.500000e+001
      vertex -2.500000e+001  2.176777e+001  2.676777e+001
      vertex -2.500000e+001  2.250000e+001  2.500000e+001
    endloop
  endfacet
  facet normal -1.000000e+000  -0.000000e+000  0.000000e+000
    outer loop
      vertex -2.500000e+001  1.750000e+001  2.500000e+001
      vertex -2.500000e+001  2.250000e+001  2.500000e+001
      vertex -2.500000e+001  1.823223e+001  2.323223e+001
    endloop
  endfacet
  facet normal -1.000000e+000  0.000000e+000  0.000000e+000
    outer loop
      vertex -2.500000e+001  1.823223e+001  2.323223e+001
      vertex -2.500000e+001  2.250000e+001  2.500000e+001
      vertex -2.500000e+001  2.176777e+001  2.323223e+001
    endloop
  endfacet
  facet normal -1.000000e+000  -0.000000e+000  0.000000e+000
    outer loop
      vertex -2.500000e+001  1.823223e+001  2.323223e+001
      vertex -2.500000e+001  2.176777e+001  2.323223e+001
      vertex -2.500000e+001  2.000000e+001  2.250000e+001
    endloop
  endfacet
  facet normal -1.000000e+000  0.000000e+000  0.000000e+000
    outer loop
      vertex -2.500000e+001 -1.823223e+001  2.676777e+001
      vertex -2.500000e+001 -2.176777e+001  2.676777e+001
      vertex -2.500000e+001 -2.000000e+001  2.750000e+001
    endloop
  endfacet
  facet normal -1.000000e+000  -0.000000e+000  0.000000e+000
    outer loop
      vertex -2.500000e+001 -2.176777e+001  2.676777e+001
      vertex -2.500000e+001 -1.823223e+001  2.676777e+001
      vertex -2.500000e+001 -2.250000e+001  2.500000e+001
    endloop
  endfacet
  facet normal -1.000000e+000  0.000000e+000  0.000000e+000
    outer loop
      vertex -2.500000e+001 -2.250000e+001  2.500000e+001
      vertex -2.500000e+001 -1.823223e+001  2.676777e+001
      vertex -2.500000e+001 -1.750000e+001  2.500000e+001
    endloop
  endfacet
  facet normal -1.000000e+000  -0.000000e+000  0.000000e+000
    outer loop
      vertex -2.500000e+001 -2.250000e+001  2.500000e+001
      vertex -2.500000e+001 -1.750000e+001  2.500000e+001
      vertex -2.500000e+001 -2.176777e+001  2.323223e+001
    endloop
  endfacet
  facet normal -1.000000e+000  0.000000e+000  0.000000e+000
    outer loop
      vertex -2.500000e+001 -2.176777e+001  2.323223e+001
      vertex -2.500000e+001 -1.750000e+001  2.500000e+001
      vertex -2.500000e+001 -1.823223e+001  2.323223e+001
    endloop
  endfacet
  facet normal -1.000000e+000  -0.000000e+000  0.000000e+000
    outer loop
      vertex -2.500000e+001 -2.176777e+001  2.323223e+001
      vertex -2.500000e+001 -1.823223e+001  2.323223e+001
      vertex -2.500000e+001 -2.000000e+001  2.250000e+001
    endloop
  endfacet
  facet normal  0.000000e+000 -9.999999e-001  0.000000e+000
    outer loop
      vertex  3.061467e+000 -3.060000e+001 -7.391036e+000
      vertex  3.328698e+001 -3.060000e+001 -1.081559e+001
      vertex  5.656854e+000 -3.060000e+001 -5.656854e+000
    endloop
  endfacet
  facet normal  0.000000e+000 -1.000000e+000  0.000000e+000
    outer loop
      vertex  3.061467e+000 -3.060000e+001 -7.391036e+000
      vertex  1.469528e-015 -3.060000e+001 -8.000000e+000
      vertex  3.328698e+001 -3.060000e+001 -1.081559e+001
    endloop
  endfacet
  facet normal  -0.000000e+000 -1.000000e+000  0.000000e+000
    outer loop
      vertex -4.898425e-016 -3.060000e+001  8.000000e+000
      vertex  3.328698e+001 -3.060000e+001  1.081559e+001
      vertex  3.031089e+001 -3.060000e+001  1.750000e+001
    endloop
  endfacet
  facet normal  -0.000000e+000 -1.000000e+000  0.000000e+000
    outer loop
      vertex -4.898425e-016 -3.060000e+001  8.000000e+000
      vertex  3.031089e+001 -3.060000e+001  1.750000e+001
      vertex  2.601007e+001 -3.060000e+001  2.341957e+001
    endloop
  endfacet
  facet normal  -0.000000e+000 -9.999999e-001  0.000000e+000
    outer loop
      vertex -4.898425e-016 -3.060000e+001  8.000000e+000
      vertex  2.601007e+001 -3.060000e+001  2.341957e+001
      vertex  2.057248e+001 -3.060000e+001  2.831560e+001
    endloop
  endfacet
  facet normal  -0.000000e+000 -1.000000e+000  0.000000e+000
    outer loop
      vertex -4.898425e-016 -3.060000e+001  8.000000e+000
      vertex  2.057248e+001 -3.060000e+001  2.831560e+001
      vertex  1.423578e+001 -3.060000e+001  3.197409e+001
    endloop
  endfacet
  facet normal  -0.000000e+000 -1.000000e+000  0.000000e+000
    outer loop
      vertex -4.898425e-016 -3.060000e+001  8.000000e+000
      vertex  1.423578e+001 -3.060000e+001  3.197409e+001
      vertex  7.276909e+000 -3.060000e+001  3.423516e+001
    endloop
  endfacet
  facet normal  -0.000000e+000 -9.999999e-001  0.000000e+000
    outer loop
      vertex -4.898425e-016 -3.060000e+001  8.000000e+000
      vertex  7.276909e+000 -3.060000e+001  3.423516e+001
      vertex -2.143061e-015 -3.060000e+001  3.500000e+001
    endloop
  endfacet
  facet normal  -0.000000e+000 -1.000000e+000  -0.000000e+000
    outer loop
      vertex -4.898425e-016 -3.060000e+001  8.000000e+000
      vertex -2.143061e-015 -3.060000e+001  3.500000e+001
      vertex -4.500000e+001 -3.060000e+001  3.500000e+001
    endloop
  endfacet
  facet normal  0.000000e+000 -1.000000e+000  -0.000000e+000
    outer loop
      vertex  3.480827e+001 -3.060000e+001  3.658496e+000
      vertex  3.328698e+001 -3.060000e+001  1.081559e+001
      vertex -4.898425e-016 -3.060000e+001  8.000000e+000
    endloop
  endfacet
  facet normal  0.000000e+000 -1.000000e+000  0.000000e+000
    outer loop
      vertex  3.480827e+001 -3.060000e+001  3.658496e+000
      vertex -4.898425e-016 -3.060000e+001  8.000000e+000
      vertex  3.061467e+000 -3.060000e+001  7.391036e+000
    endloop
  endfacet
  facet normal  0.000000e+000 -1.000000e+000  0.000000e+000
    outer loop
      vertex  3.480827e+001 -3.060000e+001  3.658496e+000
      vertex  3.061467e+000 -3.060000e+001  7.391036e+000
      vertex  5.656854e+000 -3.060000e+001  5.656854e+000
    endloop
  endfacet
  facet normal  0.000000e+000 -1.000000e+000  0.000000e+000
    outer loop
      vertex  3.480827e+001 -3.060000e+001  3.658496e+000
      vertex  5.656854e+000 -3.060000e+001  5.656854e+000
      vertex  7.391036e+000 -3.060000e+001  3.061467e+000
    endloop
  endfacet
  facet normal  0.000000e+000 -1.000000e+000  -0.000000e+000
    outer loop
      vertex  3.480827e+001 -3.060000e+001 -3.658496e+000
      vertex  3.480827e+001 -3.060000e+001  3.658496e+000
      vertex  7.391036e+000 -3.060000e+001  3.061467e+000
    endloop
  endfacet
  facet normal  0.000000e+000 -1.000000e+000  0.000000e+000
    outer loop
      vertex  3.480827e+001 -3.060000e+001 -3.658496e+000
      vertex  7.391036e+000 -3.060000e+001  3.061467e+000
      vertex  8.000000e+000 -3.060000e+001  9.796851e-016
    endloop
  endfacet
  facet normal  0.000000e+000 -1.000000e+000  -0.000000e+000
    outer loop
      vertex  3.480827e+001 -3.060000e+001 -3.658496e+000
      vertex  8.000000e+000 -3.060000e+001  9.796851e-016
      vertex  7.391036e+000 -3.060000e+001 -3.061467e+000
    endloop
  endfacet
  facet normal  0.000000e+000 -1.000000e+000  -0.000000e+000
    outer loop
      vertex  3.480827e+001 -3.060000e+001 -3.658496e+000
      vertex  7.391036e+000 -3.060000e+001 -3.061467e+000
      vertex  5.656854e+000 -3.060000e+001 -5.656854e+000
    endloop
  endfacet
  facet normal  0.000000e+000 -1.000000e+000  0.000000e+000
    outer loop
      vertex  3.480827e+001 -3.060000e+001 -3.658496e+000
      vertex  5.656854e+000 -3.060000e+001 -5.656854e+000
      vertex  3.328698e+001 -3.060000e+001 -1.081559e+001
    endloop
  endfacet
  facet normal  -0.000000e+000 -1.000000e+000  0.000000e+000
    outer loop
      vertex  6.429183e-015 -3.060000e+001 -3.500000e+001
      vertex  7.276909e+000 -3.060000e+001 -3.423516e+001
      vertex  1.423578e+001 -3.060000e+001 -3.197409e+001
    endloop
  endfacet
  facet normal  -0.000000e+000 -1.000000e+000  0.000000e+000
    outer loop
      vertex  6.429183e-015 -3.060000e+001 -3.500000e+001
      vertex  1.423578e+001 -3.060000e+001 -3.197409e+001
      vertex  2.057248e+001 -3.060000e+001 -2.831560e+001
    endloop
  endfacet
  facet normal  -0.000000e+000 -1.000000e+000  0.000000e+000
    outer loop
      vertex  6.429183e-015 -3.060000e+001 -3.500000e+001
      vertex  2.057248e+001 -3.060000e+001 -2.831560e+001
      vertex  2.601007e+001 -3.060000e+001 -2.341957e+001
    endloop
  endfacet
  facet normal  -0.000000e+000 -1.000000e+000  0.000000e+000
    outer loop
      vertex  6.429183e-015 -3.060000e+001 -3.500000e+001
      vertex  2.601007e+001 -3.060000e+001 -2.341957e+001
      vertex  3.031089e+001 -3.060000e+001 -1.750000e+001
    endloop
  endfacet
  facet normal  -0.000000e+000 -1.000000e+000  0.000000e+000
    outer loop
      vertex  6.429183e-015 -3.060000e+001 -3.500000e+001
      vertex  3.031089e+001 -3.060000e+001 -1.750000e+001
      vertex  3.328698e+001 -3.060000e+001 -1.081559e+001
    endloop
  endfacet
  facet normal  -0.000000e+000 -1.000000e+000  0.000000e+000
    outer loop
      vertex  6.429183e-015 -3.060000e+001 -3.500000e+001
      vertex  3.328698e+001 -3.060000e+001 -1.081559e+001
      vertex  1.469528e-015 -3.060000e+001 -8.000000e+000
    endloop
  endfacet
  facet normal  0.000000e+000 -1.000000e+000  0.000000e+000
    outer loop
      vertex -4.500000e+001 -3.060000e+001 -3.500000e+001
      vertex  6.429183e-015 -3.060000e+001 -3.500000e+001
      vertex  1.469528e-015 -3.060000e+001 -8.000000e+000
    endloop
  endfacet
  facet normal  -0.000000e+000 -9.999999e-001  0.000000e+000
    outer loop
      vertex -4.500000e+001 -3.060000e+001 -3.500000e+001
      vertex  1.469528e-015 -3.060000e+001 -8.000000e+000
      vertex -3.061467e+000 -3.060000e+001 -7.391036e+000
    endloop
  endfacet
  facet normal  -0.000000e+000 -1.000000e+000  0.000000e+000
    outer loop
      vertex -4.500000e+001 -3.060000e+001 -3.500000e+001
      vertex -3.061467e+000 -3.060000e+001 -7.391036e+000
      vertex -5.656854e+000 -3.060000e+001 -5.656854e+000
    endloop
  endfacet
  facet normal  -0.000000e+000 -1.000000e+000  0.000000e+000
    outer loop
      vertex -4.500000e+001 -3.060000e+001 -3.500000e+001
      vertex -5.656854e+000 -3.060000e+001 -5.656854e+000
      vertex -7.391036e+000 -3.060000e+001 -3.061467e+000
    endloop
  endfacet
  facet normal  -0.000000e+000 -1.000000e+000  0.000000e+000
    outer loop
      vertex -4.500000e+001 -3.060000e+001 -3.500000e+001
      vertex -7.391036e+000 -3.060000e+001 -3.061467e+000
      vertex -8.000000e+000 -3.060000e+001  0.000000e+000
    endloop
  endfacet
  facet normal  -0.000000e+000 -1.000000e+000  0.000000e+000
    outer loop
      vertex -4.500000e+001 -3.060000e+001 -3.500000e+001
      vertex -8.000000e+000 -3.060000e+001  0.000000e+000
      vertex -7.391036e+000 -3.060000e+001  3.061467e+000
    endloop
  endfacet
  facet normal  -0.000000e+000 -9.999999e-001  0.000000e+000
    outer loop
      vertex -4.500000e+001 -3.060000e+001 -3.500000e+001
      vertex -7.391036e+000 -3.060000e+001  3.061467e+000
      vertex -5.656854e+000 -3.060000e+001  5.656854e+000
    endloop
  endfacet
  facet normal  0.000000e+000 -1.000000e+000  0.000000e+000
    outer loop
      vertex -4.500000e+001 -3.060000e+001  3.500000e+001
      vertex -4.500000e+001 -3.060000e+001 -3.500000e+001
      vertex -5.656854e+000 -3.060000e+001  5.656854e+000
    endloop
  endfacet
  facet normal  0.000000e+000 -1.000000e+000  0.000000e+000
    outer loop
      vertex -4.500000e+001 -3.060000e+001  3.500000e+001
      vertex -5.656854e+000 -3.060000e+001  5.656854e+000
      vertex -3.061467e+000 -3.060000e+001  7.391036e+000
    endloop
  endfacet
  facet normal  0.000000e+000 -9.999999e-001  0.000000e+000
    outer loop
      vertex -4.500000e+001 -3.060000e+001  3.500000e+001
      vertex -3.061467e+000 -3.060000e+001  7.391036e+000
      vertex -4.898425e-016 -3.060000e+001  8.000000e+000
    endloop
  endfacet
  facet normal  0.000000e+000  0.000000e+000  1.000000e+000
    outer loop
      vertex -4.500000e+001 -3.060000e+001  3.500000e+001
      vertex -2.143061e-015 -3.060000e+001  3.500000e+001
      vertex -4.500000e+001  3.060000e+001  3.500000e+001
    endloop
  endfacet
  facet normal  -0.000000e+000  0.000000e+000  1.000000e+000
    outer loop
      vertex -4.500000e+001  3.060000e+001  3.500000e+001
      vertex -2.143061e-015 -3.060000e+001  3.500000e+001
      vertex -2.143061e-015  3.060000e+001  3.500000e+001
    endloop
  endfacet
  facet normal  0.000000e+000  0.000000e+000 -1.000000e+000
    outer loop
      vertex  6.429183e-015 -3.060000e+001 -3.500000e+001
      vertex -4.500000e+001 -3.060000e+001 -3.500000e+001
      vertex  6.429183e-015  3.060000e+001 -3.500000e+001
    endloop
  endfacet
  facet normal  -0.000000e+000  0.000000e+000 -1.000000e+000
    outer loop
      vertex  6.429183e-015  3.060000e+001 -3.500000e+001
      vertex -4.500000e+001 -3.060000e+001 -3.500000e+001
      vertex -4.500000e+001  3.060000e+001 -3.500000e+001
    endloop
  endfacet
  facet normal  0.000000e+000  9.999999e-001  0.000000e+000
    outer loop
      vertex  5.656854e+000  3.060000e+001 -5.656854e+000
      vertex  3.328698e+001  3.060000e+001 -1.081559e+001
      vertex  3.061467e+000  3.060000e+001 -7.391036e+000
    endloop
  endfacet
  facet normal  -0.000000e+000  1.000000e+000  0.000000e+000
    outer loop
      vertex  3.328698e+001  3.060000e+001 -1.081559e+001
      vertex  1.469528e-015  3.060000e+001 -8.000000e+000
      vertex  3.061467e+000  3.060000e+001 -7.391036e+000
    endloop
  endfacet
  facet normal  -0.000000e+000  1.000000e+000  0.000000e+000
    outer loop
      vertex -4.898425e-016  3.060000e+001  8.000000e+000
      vertex -4.500000e+001  3.060000e+001  3.500000e+001
      vertex -2.143061e-015  3.060000e+001  3.500000e+001
    endloop
  endfacet
  facet normal  0.000000e+000  9.999999e-001  0.000000e+000
    outer loop
      vertex -4.898425e-016  3.060000e+001  8.000000e+000
      vertex -2.143061e-015  3.060000e+001  3.500000e+001
      vertex  7.276909e+000  3.060000e+001  3.423516e+001
    endloop
  endfacet
  facet normal  0.000000e+000  1.000000e+000  0.000000e+000
    outer loop
      vertex -4.898425e-016  3.060000e+001  8.000000e+000
      vertex  7.276909e+000  3.060000e+001  3.423516e+001
      vertex  1.423578e+001  3.060000e+001  3.197409e+001
    endloop
  endfacet
  facet normal  0.000000e+000  1.000000e+000  0.000000e+000
    outer loop
      vertex -4.898425e-016  3.060000e+001  8.000000e+000
      vertex  1.423578e+001  3.060000e+001  3.197409e+001
      vertex  2.057248e+001  3.060000e+001  2.831560e+001
    endloop
  endfacet
  facet normal  0.000000e+000  9.999999e-001  0.000000e+000
    outer loop
      vertex -4.898425e-016  3.060000e+001  8.000000e+000
      vertex  2.057248e+001  3.060000e+001  2.831560e+001
      vertex  2.601007e+001  3.060000e+001  2.341957e+001
    endloop
  endfacet
  facet normal  0.000000e+000  1.000000e+000  0.000000e+000
    outer loop
      vertex -4.898425e-016  3.060000e+001  8.000000e+000
      vertex  2.601007e+001  3.060000e+001  2.341957e+001
      vertex  3.031089e+001  3.060000e+001  1.750000e+001
    endloop
  endfacet
  facet normal  0.000000e+000  1.000000e+000  0.000000e+000
    outer loop
      vertex -4.898425e-016  3.060000e+001  8.000000e+000
      vertex  3.031089e+001  3.060000e+001  1.750000e+001
      vertex  3.328698e+001  3.060000e+001  1.081559e+001
    endloop
  endfacet
  facet normal  0.000000e+000  1.000000e+000  -0.000000e+000
    outer loop
      vertex  3.480827e+001  3.060000e+001  3.658496e+000
      vertex  7.391036e+000  3.060000e+001  3.061467e+000
      vertex  5.656854e+000  3.060000e+001  5.656854e+000
    endloop
  endfacet
  facet normal  -0.000000e+000  1.000000e+000  -0.000000e+000
    outer loop
      vertex  3.480827e+001  3.060000e+001  3.658496e+000
      vertex  5.656854e+000  3.060000e+001  5.656854e+000
      vertex  3.061467e+000  3.060000e+001  7.391036e+000
    endloop
  endfacet
  facet normal  -0.000000e+000  9.999999e-001  -0.000000e+000
    outer loop
      vertex  3.480827e+001  3.060000e+001  3.658496e+000
      vertex  3.061467e+000  3.060000e+001  7.391036e+000
      vertex -4.898425e-016  3.060000e+001  8.000000e+000
    endloop
  endfacet
  facet normal  -0.000000e+000  1.000000e+000  0.000000e+000
    outer loop
      vertex  3.480827e+001  3.060000e+001  3.658496e+000
      vertex -4.898425e-016  3.060000e+001  8.000000e+000
      vertex  3.328698e+001  3.060000e+001  1.081559e+001
    endloop
  endfacet
  facet normal  0.000000e+000  1.000000e+000  -0.000000e+000
    outer loop
      vertex  3.480827e+001  3.060000e+001 -3.658496e+000
      vertex  3.328698e+001  3.060000e+001 -1.081559e+001
      vertex  5.656854e+000  3.060000e+001 -5.656854e+000
    endloop
  endfacet
  facet normal  0.000000e+000  1.000000e+000  0.000000e+000
    outer loop
      vertex  3.480827e+001  3.060000e+001 -3.658496e+000
      vertex  5.656854e+000  3.060000e+001 -5.656854e+000
      vertex  7.391036e+000  3.060000e+001 -3.061467e+000
    endloop
  endfacet
  facet normal  -0.000000e+000  1.000000e+000  0.000000e+000
    outer loop
      vertex  3.480827e+001  3.060000e+001 -3.658496e+000
      vertex  7.391036e+000  3.060000e+001 -3.061467e+000
      vertex  8.000000e+000  3.060000e+001  9.796851e-016
    endloop
  endfacet
  facet normal  -0.000000e+000  9.999999e-001  -0.000000e+000
    outer loop
      vertex  3.480827e+001  3.060000e+001 -3.658496e+000
      vertex  8.000000e+000  3.060000e+001  9.796851e-016
      vertex  7.391036e+000  3.060000e+001  3.061467e+000
    endloop
  endfacet
  facet normal  -0.000000e+000  1.000000e+000  0.000000e+000
    outer loop
      vertex  3.480827e+001  3.060000e+001 -3.658496e+000
      vertex  7.391036e+000  3.060000e+001  3.061467e+000
      vertex  3.480827e+001  3.060000e+001  3.658496e+000
    endloop
  endfacet
  facet normal  0.000000e+000  1.000000e+000  0.000000e+000
    outer loop
      vertex  6.429183e-015  3.060000e+001 -3.500000e+001
      vertex  1.469528e-015  3.060000e+001 -8.000000e+000
      vertex  3.328698e+001  3.060000e+001 -1.081559e+001
    endloop
  endfacet
  facet normal  0.000000e+000  1.000000e+000  0.000000e+000
    outer loop
      vertex  6.429183e-015  3.060000e+001 -3.500000e+001
      vertex  3.328698e+001  3.060000e+001 -1.081559e+001
      vertex  3.031089e+001  3.060000e+001 -1.750000e+001
    endloop
  endfacet
  facet normal  0.000000e+000  1.000000e+000  0.000000e+000
    outer loop
      vertex  6.429183e-015  3.060000e+001 -3.500000e+001
      vertex  3.031089e+001  3.060000e+001 -1.750000e+001
      vertex  2.601007e+001  3.060000e+001 -2.341957e+001
    endloop
  endfacet
  facet normal  0.000000e+000  1.000000e+000  0.000000e+000
    outer loop
      vertex  6.429183e-015  3.060000e+001 -3.500000e+001
      vertex  2.601007e+001  3.060000e+001 -2.341957e+001
      vertex  2.057248e+001  3.060000e+001 -2.831560e+001
    endloop
  endfacet
  facet normal  0.000000e+000  1.000000e+000  0.000000e+000
    outer loop
      vertex  6.429183e-015  3.060000e+001 -3.500000e+001
      vertex  2.057248e+001  3.060000e+001 -2.831560e+001
      vertex  1.423578e+001  3.060000e+001 -3.197409e+001
    endloop
  endfacet
  facet normal  0.000000e+000  1.000000e+000  0.000000e+000
    outer loop
      vertex  6.429183e-015  3.060000e+001 -3.500000e+001
      vertex  1.423578e+001  3.060000e+001 -3.197409e+001
      vertex  7.276909e+000  3.060000e+001 -3.423516e+001
    endloop
  endfacet
  facet normal  0.000000e+000  1.000000e+000  0.000000e+000
    outer loop
      vertex -4.500000e+001  3.060000e+001 -3.500000e+001
      vertex -5.656854e+000  3.060000e+001  5.656854e+000
      vertex -7.391036e+000  3.060000e+001  3.061467e+000
    endloop
  endfacet
  facet normal  0.000000e+000  1.000000e+000  0.000000e+000
    outer loop
      vertex -4.500000e+001  3.060000e+001 -3.500000e+001
      vertex -7.391036e+000  3.060000e+001  3.061467e+000
      vertex -8.000000e+000  3.060000e+001  0.000000e+000
    endloop
  endfacet
  facet normal  0.000000e+000  1.000000e+000  0.000000e+000
    outer loop
      vertex -4.500000e+001  3.060000e+001 -3.500000e+001
      vertex -8.000000e+000  3.060000e+001  0.000000e+000
      vertex -7.391036e+000  3.060000e+001 -3.061467e+000
    endloop
  endfacet
  facet normal  0.000000e+000  1.000000e+000  0.000000e+000
    outer loop
      vertex -4.500000e+001  3.060000e+001 -3.500000e+001
      vertex -7.391036e+000  3.060000e+001 -3.061467e+000
      vertex -5.656854e+000  3.060000e+001 -5.656854e+000
    endloop
  endfacet
  facet normal  0.000000e+000  1.000000e+000  0.000000e+000
    outer loop
      vertex -4.500000e+001  3.060000e+001 -3.500000e+001
      vertex -5.656854e+000  3.060000e+001 -5.656854e+000
      vertex -3.061467e+000  3.060000e+001 -7.391036e+000
    endloop
  endfacet
  facet normal  0.000000e+000  9.999999e-001  0.000000e+000
    outer loop
      vertex -4.500000e+001  3.060000e+001 -3.500000e+001
      vertex -3.061467e+000  3.060000e+001 -7.391036e+000
      vertex  1.469528e-015  3.060000e+001 -8.000000e+000
    endloop
  endfacet
  facet normal  0.000000e+000  1.000000e+000  0.000000e+000
    outer loop
      vertex -4.500000e+001  3.060000e+001 -3.500000e+001
      vertex  1.469528e-015  3.060000e+001 -8.000000e+000
      vertex  6.429183e-015  3.060000e+001 -3.500000e+001
    endloop
  endfacet
  facet normal  0.000000e+000  9.999999e-001  0.000000e+000
    outer loop
      vertex -4.500000e+001  3.060000e+001  3.500000e+001
      vertex -4.898425e-016  3.060000e+001  8.000000e+000
      vertex -3.061467e+000  3.060000e+001  7.391036e+000
    endloop
  endfacet
  facet normal  0.000000e+000  1.000000e+000  0.000000e+000
    outer loop
      vertex -4.500000e+001  3.060000e+001  3.500000e+001
      vertex -3.061467e+000  3.060000e+001  7.391036e+000
      vertex -5.656854e+000  3.060000e+001  5.656854e+000
    endloop
  endfacet
  facet normal  0.000000e+000  1.000000e+000  0.000000e+000
    outer loop
      vertex -4.500000e+001  3.060000e+001  3.500000e+001
      vertex -5.656854e+000  3.060000e+001  5.656854e+000
      vertex -4.500000e+001  3.060000e+001 -3.500000e+001
    endloop
  endfacet
  facet normal -1.878971e-001 -9.821888e-001  -0.000000e+000
    outer loop
      vertex -4.500000e+001 -3.060000e+001 -3.500000e+001
      vertex -4.500000e+001 -3.060000e+001  3.500000e+001
      vertex -4.684551e+001 -3.024695e+001 -3.464694e+001
    endloop
  endfacet
  facet normal -1.878971e-001 -9.821888e-001  0.000000e+000
    outer loop
      vertex -4.684551e+001 -3.024695e+001 -3.464694e+001
      vertex -4.500000e+001 -3.060000e+001  3.500000e+001
      vertex -4.684551e+001 -3.024695e+001  3.464694e+001
    endloop
  endfacet
  facet normal -4.751324e-001 -8.799143e-001  -0.000000e+000
    outer loop
      vertex -4.684551e+001 -3.024695e+001 -3.464694e+001
      vertex -4.684551e+001 -3.024695e+001  3.464694e+001
      vertex -4.787329e+001 -2.969197e+001 -3.409197e+001
    endloop
  endfacet
  facet normal -4.751324e-001 -8.799143e-001  0.000000e+000
    outer loop
      vertex -4.787329e+001 -2.969197e+001 -3.409197e+001
      vertex -4.684551e+001 -3.024695e+001  3.464694e+001
      vertex -4.787329e+001 -2.969197e+001  3.409197e+001
    endloop
  endfacet
  facet normal -7.328839e-001 -6.803538e-001  -0.000000e+000
    outer loop
      vertex -4.787329e+001 -2.969197e+001 -3.409197e+001
      vertex -4.787329e+001 -2.969197e+001  3.409197e+001
      vertex -4.929398e+001 -2.816159e+001 -3.256159e+001
    endloop
  endfacet
  facet normal -7.328839e-001 -6.803538e-001  0.000000e+000
    outer loop
      vertex -4.929398e+001 -2.816159e+001 -3.256159e+001
      vertex -4.787329e+001 -2.969197e+001  3.409197e+001
      vertex -4.929398e+001 -2.816159e+001  3.256159e+001
    endloop
  endfacet
  facet normal -9.401779e-001 -3.406840e-001  -0.000000e+000
    outer loop
      vertex -4.929398e+001 -2.816159e+001 -3.256159e+001
      vertex -4.929398e+001 -2.816159e+001  3.256159e+001
      vertex -4.993819e+001 -2.638378e+001 -3.078378e+001
    endloop
  endfacet
  facet normal -9.401778e-001 -3.406840e-001  0.000000e+000
    outer loop
      vertex -4.993819e+001 -2.638378e+001 -3.078378e+001
      vertex -4.929398e+001 -2.816159e+001  3.256159e+001
      vertex -4.993819e+001 -2.638378e+001  3.078378e+001
    endloop
  endfacet
  facet normal -9.969046e-001 -7.862128e-002  -0.000000e+000
    outer loop
      vertex -4.993819e+001 -2.638378e+001 -3.078378e+001
      vertex -4.993819e+001 -2.638378e+001  3.078378e+001
      vertex -5.000000e+001 -2.560000e+001 -3.000000e+001
    endloop
  endfacet
  facet normal -9.969046e-001 -7.862128e-002  0.000000e+000
    outer loop
      vertex -5.000000e+001 -2.560000e+001 -3.000000e+001
      vertex -4.993819e+001 -2.638378e+001  3.078378e+001
      vertex -5.000000e+001 -2.560000e+001  3.000000e+001
    endloop
  endfacet
  facet normal -1.878991e-001  0.000000e+000  9.821884e-001
    outer loop
      vertex -4.500000e+001 -3.060000e+001  3.500000e+001
      vertex -4.500000e+001  3.060000e+001  3.500000e+001
      vertex -4.684551e+001 -3.024695e+001  3.464694e+001
    endloop
  endfacet
  facet normal -1.878971e-001 -6.193605e-008  9.821886e-001
    outer loop
      vertex -4.684551e+001 -3.024695e+001  3.464694e+001
      vertex -4.500000e+001  3.060000e+001  3.500000e+001
      vertex -4.684551e+001  3.024694e+001  3.464695e+001
    endloop
  endfacet
  facet normal -4.751311e-001 -5.548675e-008  8.799149e-001
    outer loop
      vertex -4.684551e+001 -3.024695e+001  3.464694e+001
      vertex -4.684551e+001  3.024694e+001  3.464695e+001
      vertex -4.787329e+001 -2.969197e+001  3.409197e+001
    endloop
  endfacet
  facet normal -4.751337e-001  0.000000e+000  8.799137e-001
    outer loop
      vertex -4.787329e+001 -2.969197e+001  3.409197e+001
      vertex -4.684551e+001  3.024694e+001  3.464695e+001
      vertex -4.787329e+001  2.969197e+001  3.409197e+001
    endloop
  endfacet
  facet normal -7.328830e-001  0.000000e+000  6.803547e-001
    outer loop
      vertex -4.787329e+001 -2.969197e+001  3.409197e+001
      vertex -4.787329e+001  2.969197e+001  3.409197e+001
      vertex -4.929398e+001 -2.816159e+001  3.256159e+001
    endloop
  endfacet
  facet normal -7.328830e-001  0.000000e+000  6.803547e-001
    outer loop
      vertex -4.929398e+001 -2.816159e+001  3.256159e+001
      vertex -4.787329e+001  2.969197e+001  3.409197e+001
      vertex -4.929398e+001  2.816159e+001  3.256159e+001
    endloop
  endfacet
  facet normal -9.401780e-001  0.000000e+000  3.406837e-001
    outer loop
      vertex -4.929398e+001 -2.816159e+001  3.256159e+001
      vertex -4.929398e+001  2.816159e+001  3.256159e+001
      vertex -4.993819e+001 -2.638378e+001  3.078378e+001
    endloop
  endfacet
  facet normal -9.401780e-001  0.000000e+000  3.406837e-001
    outer loop
      vertex -4.993819e+001 -2.638378e+001  3.078378e+001
      vertex -4.929398e+001  2.816159e+001  3.256159e+001
      vertex -4.993819e+001  2.638378e+001  3.078378e+001
    endloop
  endfacet
  facet normal -9.969046e-001  0.000000e+000  7.862128e-002
    outer loop
      vertex -4.993819e+001 -2.638378e+001  3.078378e+001
      vertex -4.993819e+001  2.638378e+001  3.078378e+001
      vertex -5.000000e+001 -2.560000e+001  3.000000e+001
    endloop
  endfacet
  facet normal -9.969046e-001  0.000000e+000  7.862128e-002
    outer loop
      vertex -5.000000e+001 -2.560000e+001  3.000000e+001
      vertex -4.993819e+001  2.638378e+001  3.078378e+001
      vertex -5.000000e+001  2.560000e+001  3.000000e+001
    endloop
  endfacet
  facet normal -9.969046e-001  7.862128e-002  0.000000e+000
    outer loop
      vertex -5.000000e+001  2.560000e+001 -3.000000e+001
      vertex -5.000000e+001  2.560000e+001  3.000000e+001
      vertex -4.993819e+001  2.638378e+001 -3.078378e+001
    endloop
  endfacet
  facet normal -9.969046e-001  7.862128e-002  0.000000e+000
    outer loop
      vertex -4.993819e+001  2.638378e+001 -3.078378e+001
      vertex -5.000000e+001  2.560000e+001  3.000000e+001
      vertex -4.993819e+001  2.638378e+001  3.078378e+001
    endloop
  endfacet
  facet normal -9.401778e-001  3.406840e-001  0.000000e+000
    outer loop
      vertex -4.993819e+001  2.638378e+001 -3.078378e+001
      vertex -4.993819e+001  2.638378e+001  3.078378e+001
      vertex -4.929398e+001  2.816159e+001 -3.256159e+001
    endloop
  endfacet
  facet normal -9.401779e-001  3.406840e-001  0.000000e+000
    outer loop
      vertex -4.929398e+001  2.816159e+001 -3.256159e+001
      vertex -4.993819e+001  2.638378e+001  3.078378e+001
      vertex -4.929398e+001  2.816159e+001  3.256159e+001
    endloop
  endfacet
  facet normal -7.328839e-001  6.803538e-001  0.000000e+000
    outer loop
      vertex -4.929398e+001  2.816159e+001 -3.256159e+001
      vertex -4.929398e+001  2.816159e+001  3.256159e+001
      vertex -4.787329e+001  2.969197e+001 -3.409197e+001
    endloop
  endfacet
  facet normal -7.328839e-001  6.803538e-001  0.000000e+000
    outer loop
      vertex -4.787329e+001  2.969197e+001 -3.409197e+001
      vertex -4.929398e+001  2.816159e+001  3.256159e+001
      vertex -4.787329e+001  2.969197e+001  3.409197e+001
    endloop
  endfacet
  facet normal -4.751324e-001  8.799143e-001  0.000000e+000
    outer loop
      vertex -4.787329e+001  2.969197e+001 -3.409197e+001
      vertex -4.787329e+001  2.969197e+001  3.409197e+001
      vertex -4.684551e+001  3.024695e+001 -3.464694e+001
    endloop
  endfacet
  facet normal -4.751299e-001  8.799157e-001  4.844023e-008
    outer loop
      vertex -4.684551e+001  3.024695e+001 -3.464694e+001
      vertex -4.787329e+001  2.969197e+001  3.409197e+001
      vertex -4.684551e+001  3.024694e+001  3.464695e+001
    endloop
  endfacet
  facet normal -1.878971e-001  9.821888e-001  5.407047e-008
    outer loop
      vertex -4.684551e+001  3.024695e+001 -3.464694e+001
      vertex -4.684551e+001  3.024694e+001  3.464695e+001
      vertex -4.500000e+001  3.060000e+001 -3.500000e+001
    endloop
  endfacet
  facet normal -1.878990e-001  9.821883e-001  0.000000e+000
    outer loop
      vertex -4.500000e+001  3.060000e+001 -3.500000e+001
      vertex -4.684551e+001  3.024694e+001  3.464695e+001
      vertex -4.500000e+001  3.060000e+001  3.500000e+001
    endloop
  endfacet
  facet normal -9.969046e-001  -0.000000e+000 -7.862128e-002
    outer loop
      vertex -5.000000e+001 -2.560000e+001 -3.000000e+001
      vertex -5.000000e+001  2.560000e+001 -3.000000e+001
      vertex -4.993819e+001 -2.638378e+001 -3.078378e+001
    endloop
  endfacet
  facet normal -9.969046e-001  0.000000e+000 -7.862128e-002
    outer loop
      vertex -4.993819e+001 -2.638378e+001 -3.078378e+001
      vertex -5.000000e+001  2.560000e+001 -3.000000e+001
      vertex -4.993819e+001  2.638378e+001 -3.078378e+001
    endloop
  endfacet
  facet normal -9.401780e-001  -0.000000e+000 -3.406837e-001
    outer loop
      vertex -4.993819e+001 -2.638378e+001 -3.078378e+001
      vertex -4.993819e+001  2.638378e+001 -3.078378e+001
      vertex -4.929398e+001 -2.816159e+001 -3.256159e+001
    endloop
  endfacet
  facet normal -9.401780e-001  0.000000e+000 -3.406837e-001
    outer loop
      vertex -4.929398e+001 -2.816159e+001 -3.256159e+001
      vertex -4.993819e+001  2.638378e+001 -3.078378e+001
      vertex -4.929398e+001  2.816159e+001 -3.256159e+001
    endloop
  endfacet
  facet normal -7.328830e-001  -0.000000e+000 -6.803547e-001
    outer loop
      vertex -4.929398e+001 -2.816159e+001 -3.256159e+001
      vertex -4.929398e+001  2.816159e+001 -3.256159e+001
      vertex -4.787329e+001 -2.969197e+001 -3.409197e+001
    endloop
  endfacet
  facet normal -7.328830e-001  0.000000e+000 -6.803547e-001
    outer loop
      vertex -4.787329e+001 -2.969197e+001 -3.409197e+001
      vertex -4.929398e+001  2.816159e+001 -3.256159e+001
      vertex -4.787329e+001  2.969197e+001 -3.409197e+001
    endloop
  endfacet
  facet normal -4.751311e-001  -0.000000e+000 -8.799150e-001
    outer loop
      vertex -4.787329e+001 -2.969197e+001 -3.409197e+001
      vertex -4.787329e+001  2.969197e+001 -3.409197e+001
      vertex -4.684551e+001 -3.024695e+001 -3.464694e+001
    endloop
  endfacet
  facet normal -4.751311e-001  0.000000e+000 -8.799150e-001
    outer loop
      vertex -4.684551e+001 -3.024695e+001 -3.464694e+001
      vertex -4.787329e+001  2.969197e+001 -3.409197e+001
      vertex -4.684551e+001  3.024695e+001 -3.464694e+001
    endloop
  endfacet
  facet normal -1.878991e-001  -0.000000e+000 -9.821884e-001
    outer loop
      vertex -4.684551e+001 -3.024695e+001 -3.464694e+001
      vertex -4.684551e+001  3.024695e+001 -3.464694e+001
      vertex -4.500000e+001 -3.060000e+001 -3.500000e+001
    endloop
  endfacet
  facet normal -1.878991e-001  0.000000e+000 -9.821884e-001
    outer loop
      vertex -4.500000e+001 -3.060000e+001 -3.500000e+001
      vertex -4.684551e+001  3.024695e+001 -3.464694e+001
      vertex -4.500000e+001  3.060000e+001 -3.500000e+001
    endloop
  endfacet
  facet normal -9.807853e-001  0.000000e+000 -1.950904e-001
    outer loop
      vertex  8.000000e+000  3.060000e+001  9.796851e-016
      vertex  8.000000e+000 -3.060000e+001  9.796851e-016
      vertex  7.391036e+000  3.060000e+001  3.061467e+000
    endloop
  endfacet
  facet normal -9.807853e-001  -0.000000e+000 -1.950904e-001
    outer loop
      vertex  7.391036e+000  3.060000e+001  3.061467e+000
      vertex  8.000000e+000 -3.060000e+001  9.796851e-016
      vertex  7.391036e+000 -3.060000e+001  3.061467e+000
    endloop
  endfacet
  facet normal -8.314697e-001  0.000000e+000 -5.555702e-001
    outer loop
      vertex  7.391036e+000  3.060000e+001  3.061467e+000
      vertex  7.391036e+000 -3.060000e+001  3.061467e+000
      vertex  5.656854e+000  3.060000e+001  5.656854e+000
    endloop
  endfacet
  facet normal -8.314697e-001  -0.000000e+000 -5.555702e-001
    outer loop
      vertex  5.656854e+000  3.060000e+001  5.656854e+000
      vertex  7.391036e+000 -3.060000e+001  3.061467e+000
      vertex  5.656854e+000 -3.060000e+001  5.656854e+000
    endloop
  endfacet
  facet normal -5.555702e-001  0.000000e+000 -8.314697e-001
    outer loop
      vertex  5.656854e+000  3.060000e+001  5.656854e+000
      vertex  5.656854e+000 -3.060000e+001  5.656854e+000
      vertex  3.061467e+000  3.060000e+001  7.391036e+000
    endloop
  endfacet
  facet normal -5.555702e-001  -0.000000e+000 -8.314697e-001
    outer loop
      vertex  3.061467e+000  3.060000e+001  7.391036e+000
      vertex  5.656854e+000 -3.060000e+001  5.656854e+000
      vertex  3.061467e+000 -3.060000e+001  7.391036e+000
    endloop
  endfacet
  facet normal -1.950904e-001  0.000000e+000 -9.807853e-001
    outer loop
      vertex  3.061467e+000  3.060000e+001  7.391036e+000
      vertex  3.061467e+000 -3.060000e+001  7.391036e+000
      vertex -4.898425e-016  3.060000e+001  8.000000e+000
    endloop
  endfacet
  facet normal -1.950904e-001  -0.000000e+000 -9.807853e-001
    outer loop
      vertex -4.898425e-016  3.060000e+001  8.000000e+000
      vertex  3.061467e+000 -3.060000e+001  7.391036e+000
      vertex -4.898425e-016 -3.060000e+001  8.000000e+000
    endloop
  endfacet
  facet normal  1.950904e-001  0.000000e+000 -9.807853e-001
    outer loop
      vertex -4.898425e-016  3.060000e+001  8.000000e+000
      vertex -4.898425e-016 -3.060000e+001  8.000000e+000
      vertex -3.061467e+000  3.060000e+001  7.391036e+000
    endloop
  endfacet
  facet normal  1.950904e-001  0.000000e+000 -9.807853e-001
    outer loop
      vertex -3.061467e+000  3.060000e+001  7.391036e+000
      vertex -4.898425e-016 -3.060000e+001  8.000000e+000
      vertex -3.061467e+000 -3.060000e+001  7.391036e+000
    endloop
  endfacet
  facet normal  5.555702e-001  0.000000e+000 -8.314697e-001
    outer loop
      vertex -3.061467e+000  3.060000e+001  7.391036e+000
      vertex -3.061467e+000 -3.060000e+001  7.391036e+000
      vertex -5.656854e+000  3.060000e+001  5.656854e+000
    endloop
  endfacet
  facet normal  5.555702e-001  0.000000e+000 -8.314697e-001
    outer loop
      vertex -5.656854e+000  3.060000e+001  5.656854e+000
      vertex -3.061467e+000 -3.060000e+001  7.391036e+000
      vertex -5.656854e+000 -3.060000e+001  5.656854e+000
    endloop
  endfacet
  facet normal  8.314697e-001  0.000000e+000 -5.555702e-001
    outer loop
      vertex -5.656854e+000  3.060000e+001  5.656854e+000
      vertex -5.656854e+000 -3.060000e+001  5.656854e+000
      vertex -7.391036e+000  3.060000e+001  3.061467e+000
    endloop
  endfacet
  facet normal  8.314697e-001  0.000000e+000 -5.555702e-001
    outer loop
      vertex -7.391036e+000  3.060000e+001  3.061467e+000
      vertex -5.656854e+000 -3.060000e+001  5.656854e+000
      vertex -7.391036e+000 -3.060000e+001  3.061467e+000
    endloop
  endfacet
  facet normal  9.807853e-001  0.000000e+000 -1.950904e-001
    outer loop
      vertex -7.391036e+000  3.060000e+001  3.061467e+000
      vertex -7.391036e+000 -3.060000e+001  3.061467e+000
      vertex -8.000000e+000  3.060000e+001  0.000000e+000
    endloop
  endfacet
  facet normal  9.807853e-001  0.000000e+000 -1.950904e-001
    outer loop
      vertex -8.000000e+000  3.060000e+001  0.000000e+000
      vertex -7.391036e+000 -3.060000e+001  3.061467e+000
      vertex -8.000000e+000 -3.060000e+001  0.000000e+000
    endloop
  endfacet
  facet normal  9.807853e-001  -0.000000e+000  1.950904e-001
    outer loop
      vertex -8.000000e+000  3.060000e+001  0.000000e+000
      vertex -8.000000e+000 -3.060000e+001  0.000000e+000
      vertex -7.391036e+000  3.060000e+001 -3.061467e+000
    endloop
  endfacet
  facet normal  9.807853e-001  0.000000e+000  1.950904e-001
    outer loop
      vertex -7.391036e+000  3.060000e+001 -3.061467e+000
      vertex -8.000000e+000 -3.060000e+001  0.000000e+000
      vertex -7.391036e+000 -3.060000e+001 -3.061467e+000
    endloop
  endfacet
  facet normal  8.314697e-001  -0.000000e+000  5.555702e-001
    outer loop
      vertex -7.391036e+000  3.060000e+001 -3.061467e+000
      vertex -7.391036e+000 -3.060000e+001 -3.061467e+000
      vertex -5.656854e+000  3.060000e+001 -5.656854e+000
    endloop
  endfacet
  facet normal  8.314697e-001  0.000000e+000  5.555702e-001
    outer loop
      vertex -5.656854e+000  3.060000e+001 -5.656854e+000
      vertex -7.391036e+000 -3.060000e+001 -3.061467e+000
      vertex -5.656854e+000 -3.060000e+001 -5.656854e+000
    endloop
  endfacet
  facet normal  5.555702e-001  -0.000000e+000  8.314697e-001
    outer loop
      vertex -5.656854e+000  3.060000e+001 -5.656854e+000
      vertex -5.656854e+000 -3.060000e+001 -5.656854e+000
      vertex -3.061467e+000  3.060000e+001 -7.391036e+000
    endloop
  endfacet
  facet normal  5.555702e-001  0.000000e+000  8.314697e-001
    outer loop
      vertex -3.061467e+000  3.060000e+001 -7.391036e+000
      vertex -5.656854e+000 -3.060000e+001 -5.656854e+000
      vertex -3.061467e+000 -3.060000e+001 -7.391036e+000
    endloop
  endfacet
  facet normal  1.950904e-001  -0.000000e+000  9.807853e-001
    outer loop
      vertex -3.061467e+000  3.060000e+001 -7.391036e+000
      vertex -3.061467e+000 -3.060000e+001 -7.391036e+000
      vertex  1.469528e-015  3.060000e+001 -8.000000e+000
    endloop
  endfacet
  facet normal  1.950904e-001  0.000000e+000  9.807853e-001
    outer loop
      vertex  1.469528e-015  3.060000e+001 -8.000000e+000
      vertex -3.061467e+000 -3.060000e+001 -7.391036e+000
      vertex  1.469528e-015 -3.060000e+001 -8.000000e+000
    endloop
  endfacet
  facet normal -1.950904e-001  0.000000e+000  9.807853e-001
    outer loop
      vertex  1.469528e-015  3.060000e+001 -8.000000e+000
      vertex  1.469528e-015 -3.060000e+001 -8.000000e+000
      vertex  3.061467e+000  3.060000e+001 -7.391036e+000
    endloop
  endfacet
  facet normal -1.950904e-001  0.000000e+000  9.807853e-001
    outer loop
      vertex  3.061467e+000  3.060000e+001 -7.391036e+000
      vertex  1.469528e-015 -3.060000e+001 -8.000000e+000
      vertex  3.061467e+000 -3.060000e+001 -7.391036e+000
    endloop
  endfacet
  facet normal -5.555702e-001  0.000000e+000  8.314697e-001
    outer loop
      vertex  3.061467e+000  3.060000e+001 -7.391036e+000
      vertex  3.061467e+000 -3.060000e+001 -7.391036e+000
      vertex  5.656854e+000  3.060000e+001 -5.656854e+000
    endloop
  endfacet
  facet normal -5.555702e-001  0.000000e+000  8.314697e-001
    outer loop
      vertex  5.656854e+000  3.060000e+001 -5.656854e+000
      vertex  3.061467e+000 -3.060000e+001 -7.391036e+000
      vertex  5.656854e+000 -3.060000e+001 -5.656854e+000
    endloop
  endfacet
  facet normal -8.314697e-001  0.000000e+000  5.555702e-001
    outer loop
      vertex  5.656854e+000  3.060000e+001 -5.656854e+000
      vertex  5.656854e+000 -3.060000e+001 -5.656854e+000
      vertex  7.391036e+000  3.060000e+001 -3.061467e+000
    endloop
  endfacet
  facet normal -8.314697e-001  0.000000e+000  5.555702e-001
    outer loop
      vertex  7.391036e+000  3.060000e+001 -3.061467e+000
      vertex  5.656854e+000 -3.060000e+001 -5.656854e+000
      vertex  7.391036e+000 -3.060000e+001 -3.061467e+000
    endloop
  endfacet
  facet normal -9.807853e-001  0.000000e+000  1.950904e-001
    outer loop
      vertex  7.391036e+000  3.060000e+001 -3.061467e+000
      vertex  7.391036e+000 -3.060000e+001 -3.061467e+000
      vertex  8.000000e+000  3.060000e+001  9.796851e-016
    endloop
  endfacet
  facet normal -9.807853e-001  0.000000e+000  1.950904e-001
    outer loop
      vertex  8.000000e+000  3.060000e+001  9.796851e-016
      vertex  7.391036e+000 -3.060000e+001 -3.061467e+000
      vertex  8.000000e+000 -3.060000e+001  9.796851e-016
    endloop
  endfacet
  facet normal  1.045287e-001  0.000000e+000 -9.945219e-001
    outer loop
      vertex  6.429183e-015 -3.060000e+001 -3.500000e+001
      vertex  6.429183e-015  3.060000e+001 -3.500000e+001
      vertex  7.276909e+000 -3.060000e+001 -3.423516e+001
    endloop
  endfacet
  facet normal  1.045287e-001  0.000000e+000 -9.945219e-001
    outer loop
      vertex  7.276909e+000 -3.060000e+001 -3.423516e+001
      vertex  6.429183e-015  3.060000e+001 -3.500000e+001
      vertex  7.276909e+000  3.060000e+001 -3.423516e+001
    endloop
  endfacet
  facet normal  3.090169e-001  0.000000e+000 -9.510565e-001
    outer loop
      vertex  7.276909e+000 -3.060000e+001 -3.423516e+001
      vertex  7.276909e+000  3.060000e+001 -3.423516e+001
      vertex  1.423578e+001 -3.060000e+001 -3.197409e+001
    endloop
  endfacet
  facet normal  3.090169e-001  0.000000e+000 -9.510565e-001
    outer loop
      vertex  1.423578e+001 -3.060000e+001 -3.197409e+001
      vertex  7.276909e+000  3.060000e+001 -3.423516e+001
      vertex  1.423578e+001  3.060000e+001 -3.197409e+001
    endloop
  endfacet
  facet normal  4.999999e-001  0.000000e+000 -8.660254e-001
    outer loop
      vertex  1.423578e+001 -3.060000e+001 -3.197409e+001
      vertex  1.423578e+001  3.060000e+001 -3.197409e+001
      vertex  2.057248e+001 -3.060000e+001 -2.831560e+001
    endloop
  endfacet
  facet normal  4.999999e-001  0.000000e+000 -8.660254e-001
    outer loop
      vertex  2.057248e+001 -3.060000e+001 -2.831560e+001
      vertex  1.423578e+001  3.060000e+001 -3.197409e+001
      vertex  2.057248e+001  3.060000e+001 -2.831560e+001
    endloop
  endfacet
  facet normal  6.691307e-001  0.000000e+000 -7.431448e-001
    outer loop
      vertex  2.057248e+001 -3.060000e+001 -2.831560e+001
      vertex  2.057248e+001  3.060000e+001 -2.831560e+001
      vertex  2.601007e+001 -3.060000e+001 -2.341957e+001
    endloop
  endfacet
  facet normal  6.691307e-001  0.000000e+000 -7.431448e-001
    outer loop
      vertex  2.601007e+001 -3.060000e+001 -2.341957e+001
      vertex  2.057248e+001  3.060000e+001 -2.831560e+001
      vertex  2.601007e+001  3.060000e+001 -2.341957e+001
    endloop
  endfacet
  facet normal  8.090171e-001  0.000000e+000 -5.877852e-001
    outer loop
      vertex  2.601007e+001 -3.060000e+001 -2.341957e+001
      vertex  2.601007e+001  3.060000e+001 -2.341957e+001
      vertex  3.031089e+001 -3.060000e+001 -1.750000e+001
    endloop
  endfacet
  facet normal  8.090171e-001  0.000000e+000 -5.877852e-001
    outer loop
      vertex  3.031089e+001 -3.060000e+001 -1.750000e+001
      vertex  2.601007e+001  3.060000e+001 -2.341957e+001
      vertex  3.031089e+001  3.060000e+001 -1.750000e+001
    endloop
  endfacet
  facet normal  9.135453e-001  0.000000e+000 -4.067369e-001
    outer loop
      vertex  3.031089e+001 -3.060000e+001 -1.750000e+001
      vertex  3.031089e+001  3.060000e+001 -1.750000e+001
      vertex  3.328698e+001 -3.060000e+001 -1.081559e+001
    endloop
  endfacet
  facet normal  9.135453e-001  0.000000e+000 -4.067369e-001
    outer loop
      vertex  3.328698e+001 -3.060000e+001 -1.081559e+001
      vertex  3.031089e+001  3.060000e+001 -1.750000e+001
      vertex  3.328698e+001  3.060000e+001 -1.081559e+001
    endloop
  endfacet
  facet normal  9.781477e-001  0.000000e+000 -2.079114e-001
    outer loop
      vertex  3.328698e+001 -3.060000e+001 -1.081559e+001
      vertex  3.328698e+001  3.060000e+001 -1.081559e+001
      vertex  3.480827e+001 -3.060000e+001 -3.658496e+000
    endloop
  endfacet
  facet normal  9.781477e-001  0.000000e+000 -2.079114e-001
    outer loop
      vertex  3.480827e+001 -3.060000e+001 -3.658496e+000
      vertex  3.328698e+001  3.060000e+001 -1.081559e+001
      vertex  3.480827e+001  3.060000e+001 -3.658496e+000
    endloop
  endfacet
  facet normal  1.000000e+000  0.000000e+000  0.000000e+000
    outer loop
      vertex  3.480827e+001 -3.060000e+001 -3.658496e+000
      vertex  3.480827e+001  3.060000e+001 -3.658496e+000
      vertex  3.480827e+001 -3.060000e+001  3.658496e+000
    endloop
  endfacet
  facet normal  1.000000e+000  -0.000000e+000  0.000000e+000
    outer loop
      vertex  3.480827e+001 -3.060000e+001  3.658496e+000
      vertex  3.480827e+001  3.060000e+001 -3.658496e+000
      vertex  3.480827e+001  3.060000e+001  3.658496e+000
    endloop
  endfacet
  facet normal  9.781477e-001  0.000000e+000  2.079114e-001
    outer loop
      vertex  3.480827e+001 -3.060000e+001  3.658496e+000
      vertex  3.480827e+001  3.060000e+001  3.658496e+000
      vertex  3.328698e+001 -3.060000e+001  1.081559e+001
    endloop
  endfacet
  facet normal  9.781477e-001  -0.000000e+000  2.079114e-001
    outer loop
      vertex  3.328698e+001 -3.060000e+001  1.081559e+001
      vertex  3.480827e+001  3.060000e+001  3.658496e+000
      vertex  3.328698e+001  3.060000e+001  1.081559e+001
    endloop
  endfacet
  facet normal  9.135453e-001  0.000000e+000  4.067369e-001
    outer loop
      vertex  3.328698e+001 -3.060000e+001  1.081559e+001
      vertex  3.328698e+001  3.060000e+001  1.081559e+001
      vertex  3.031089e+001 -3.060000e+001  1.750000e+001
    endloop
  endfacet
  facet normal  9.135453e-001  -0.000000e+000  4.067369e-001
    outer loop
      vertex  3.031089e+001 -3.060000e+001  1.750000e+001
      vertex  3.328698e+001  3.060000e+001  1.081559e+001
      vertex  3.031089e+001  3.060000e+001  1.750000e+001
    endloop
  endfacet
  facet normal  8.090171e-001  0.000000e+000  5.877852e-001
    outer loop
      vertex  3.031089e+001 -3.060000e+001  1.750000e+001
      vertex  3.031089e+001  3.060000e+001  1.750000e+001
      vertex  2.601007e+001 -3.060000e+001  2.341957e+001
    endloop
  endfacet
  facet normal  8.090171e-001  -0.000000e+000  5.877852e-001
    outer loop
      vertex  2.601007e+001 -3.060000e+001  2.341957e+001
      vertex  3.031089e+001  3.060000e+001  1.750000e+001
      vertex  2.601007e+001  3.060000e+001  2.341957e+001
    endloop
  endfacet
  facet normal  6.691307e-001  0.000000e+000  7.431448e-001
    outer loop
      vertex  2.601007e+001 -3.060000e+001  2.341957e+001
      vertex  2.601007e+001  3.060000e+001  2.341957e+001
      vertex  2.057248e+001 -3.060000e+001  2.831560e+001
    endloop
  endfacet
  facet normal  6.691307e-001  -0.000000e+000  7.431448e-001
    outer loop
      vertex  2.057248e+001 -3.060000e+001  2.831560e+001
      vertex  2.601007e+001  3.060000e+001  2.341957e+001
      vertex  2.057248e+001  3.060000e+001  2.831560e+001
    endloop
  endfacet
  facet normal  4.999999e-001  0.000000e+000  8.660254e-001
    outer loop
      vertex  2.057248e+001 -3.060000e+001  2.831560e+001
      vertex  2.057248e+001  3.060000e+001  2.831560e+001
      vertex  1.423578e+001 -3.060000e+001  3.197409e+001
    endloop
  endfacet
  facet normal  4.999999e-001  -0.000000e+000  8.660254e-001
    outer loop
      vertex  1.423578e+001 -3.060000e+001  3.197409e+001
      vertex  2.057248e+001  3.060000e+001  2.831560e+001
      vertex  1.423578e+001  3.060000e+001  3.197409e+001
    endloop
  endfacet
  facet normal  3.090169e-001  0.000000e+000  9.510565e-001
    outer loop
      vertex  1.423578e+001 -3.060000e+001  3.197409e+001
      vertex  1.423578e+001  3.060000e+001  3.197409e+001
      vertex  7.276909e+000 -3.060000e+001  3.423516e+001
    endloop
  endfacet
  facet normal  3.090169e-001  -0.000000e+000  9.510565e-001
    outer loop
      vertex  7.276909e+000 -3.060000e+001  3.423516e+001
      vertex  1.423578e+001  3.060000e+001  3.197409e+001
      vertex  7.276909e+000  3.060000e+001  3.423516e+001
    endloop
  endfacet
  facet normal  1.045287e-001  0.000000e+000  9.945219e-001
    outer loop
      vertex  7.276909e+000 -3.060000e+001  3.423516e+001
      vertex  7.276909e+000  3.060000e+001  3.423516e+001
      vertex -2.143061e-015 -3.060000e+001  3.500000e+001
    endloop
  endfacet
  facet normal  1.045287e-001  -0.000000e+000  9.945219e-001
    outer loop
      vertex -2.143061e-015 -3.060000e+001  3.500000e+001
      vertex  7.276909e+000  3.060000e+001  3.423516e+001
      vertex -2.143061e-015  3.060000e+001  3.500000e+001
    endloop
  endfacet
endsolid CATIA STL
