solid CATIA STL
  facet normal  0.000000e+000  1.000000e+000  0.000000e+000
    outer loop
      vertex  7.244548e+000  3.060000e+001  2.555420e+002
      vertex -7.244548e+000  3.060000e+001  2.555420e+002
      vertex -4.180155e-014  3.060000e+001  2.563000e+002
    endloop
  endfacet
  facet normal  0.000000e+000  1.000000e+000  0.000000e+000
    outer loop
      vertex -7.244548e+000  3.060000e+001  2.555420e+002
      vertex  7.244548e+000  3.060000e+001  2.555420e+002
      vertex -1.417532e+001  3.060000e+001  2.533009e+002
    endloop
  endfacet
  facet normal  0.000000e+000  1.000000e+000  0.000000e+000
    outer loop
      vertex -1.417532e+001  3.060000e+001  2.533009e+002
      vertex  7.244548e+000  3.060000e+001  2.555420e+002
      vertex  1.417532e+001  3.060000e+001  2.533009e+002
    endloop
  endfacet
  facet normal  0.000000e+000  1.000000e+000  0.000000e+000
    outer loop
      vertex -1.417532e+001  3.060000e+001  2.533009e+002
      vertex  1.417532e+001  3.060000e+001  2.533009e+002
      vertex -2.049211e+001  3.060000e+001  2.496738e+002
    endloop
  endfacet
  facet normal  0.000000e+000  9.999999e-001  0.000000e+000
    outer loop
      vertex -2.049211e+001  3.060000e+001  2.496738e+002
      vertex  1.417532e+001  3.060000e+001  2.533009e+002
      vertex  2.049211e+001  3.060000e+001  2.496738e+002
    endloop
  endfacet
  facet normal  0.000000e+000  1.000000e+000  0.000000e+000
    outer loop
      vertex -2.049211e+001  3.060000e+001  2.496738e+002
      vertex  2.049211e+001  3.060000e+001  2.496738e+002
      vertex -2.592134e+001  3.060000e+001  2.448177e+002
    endloop
  endfacet
  facet normal  0.000000e+000  1.000000e+000  0.000000e+000
    outer loop
      vertex -2.592134e+001  3.060000e+001  2.448177e+002
      vertex  2.049211e+001  3.060000e+001  2.496738e+002
      vertex  2.592134e+001  3.060000e+001  2.448177e+002
    endloop
  endfacet
  facet normal  0.000000e+000  1.000000e+000  0.000000e+000
    outer loop
      vertex -2.592134e+001  3.060000e+001  2.448177e+002
      vertex  2.592134e+001  3.060000e+001  2.448177e+002
      vertex -3.022785e+001  3.060000e+001  2.389431e+002
    endloop
  endfacet
  facet normal  0.000000e+000  1.000000e+000  0.000000e+000
    outer loop
      vertex -3.022785e+001  3.060000e+001  2.389431e+002
      vertex  2.592134e+001  3.060000e+001  2.448177e+002
      vertex  3.022785e+001  3.060000e+001  2.389431e+002
    endloop
  endfacet
  facet normal  0.000000e+000  1.000000e+000  0.000000e+000
    outer loop
      vertex -3.022785e+001  3.060000e+001  2.389431e+002
      vertex  3.022785e+001  3.060000e+001  2.389431e+002
      vertex -3.322511e+001  3.060000e+001  2.323042e+002
    endloop
  endfacet
  facet normal  0.000000e+000  1.000000e+000  0.000000e+000
    outer loop
      vertex -3.322511e+001  3.060000e+001  2.323042e+002
      vertex  3.022785e+001  3.060000e+001  2.389431e+002
      vertex  3.322511e+001  3.060000e+001  2.323042e+002
    endloop
  endfacet
  facet normal  0.000000e+000  1.000000e+000  0.000000e+000
    outer loop
      vertex -3.322511e+001  3.060000e+001  2.323042e+002
      vertex  3.322511e+001  3.060000e+001  2.323042e+002
      vertex -3.478330e+001  3.060000e+001  2.251887e+002
    endloop
  endfacet
  facet normal  0.000000e+000  1.000000e+000  0.000000e+000
    outer loop
      vertex -3.478330e+001  3.060000e+001  2.251887e+002
      vertex  3.322511e+001  3.060000e+001  2.323042e+002
      vertex  3.478330e+001  3.060000e+001  2.251887e+002
    endloop
  endfacet
  facet normal  0.000000e+000  1.000000e+000  0.000000e+000
    outer loop
      vertex -3.478330e+001  3.060000e+001  2.251887e+002
      vertex  3.478330e+001  3.060000e+001  2.251887e+002
      vertex -3.483493e+001  3.060000e+001  2.179048e+002
    endloop
  endfacet
  facet normal  0.000000e+000  9.999999e-001  0.000000e+000
    outer loop
      vertex -3.483493e+001  3.060000e+001  2.179048e+002
      vertex  3.478330e+001  3.060000e+001  2.251887e+002
      vertex  3.483493e+001  3.060000e+001  2.179048e+002
    endloop
  endfacet
  facet normal  0.000000e+000  9.999999e-001  0.000000e+000
    outer loop
      vertex -3.483493e+001  3.060000e+001  2.179048e+002
      vertex  3.483493e+001  3.060000e+001  2.179048e+002
      vertex -3.337777e+001  3.060000e+001  2.107679e+002
    endloop
  endfacet
  facet normal  0.000000e+000  1.000000e+000  0.000000e+000
    outer loop
      vertex -3.337777e+001  3.060000e+001  2.107679e+002
      vertex  3.483493e+001  3.060000e+001  2.179048e+002
      vertex  3.337777e+001  3.060000e+001  2.107679e+002
    endloop
  endfacet
  facet normal  0.000000e+000  1.000000e+000  0.000000e+000
    outer loop
      vertex -3.337777e+001  3.060000e+001  2.107679e+002
      vertex  3.337777e+001  3.060000e+001  2.107679e+002
      vertex -2.752287e+001  3.060000e+001  1.898677e+002
    endloop
  endfacet
  facet normal  0.000000e+000  1.000000e+000  0.000000e+000
    outer loop
      vertex -2.752287e+001  3.060000e+001  1.898677e+002
      vertex  3.337777e+001  3.060000e+001  2.107679e+002
      vertex  2.752287e+001  3.060000e+001  1.898677e+002
    endloop
  endfacet
  facet normal  0.000000e+000  1.000000e+000  0.000000e+000
    outer loop
      vertex -2.752287e+001  3.060000e+001  1.898677e+002
      vertex  2.752287e+001  3.060000e+001  1.898677e+002
      vertex -2.306361e+001  3.060000e+001  1.687042e+002
    endloop
  endfacet
  facet normal  0.000000e+000  1.000000e+000  0.000000e+000
    outer loop
      vertex -2.306361e+001  3.060000e+001  1.687042e+002
      vertex  2.752287e+001  3.060000e+001  1.898677e+002
      vertex  2.306361e+001  3.060000e+001  1.687042e+002
    endloop
  endfacet
  facet normal  0.000000e+000  1.000000e+000  0.000000e+000
    outer loop
      vertex -2.306361e+001  3.060000e+001  1.687042e+002
      vertex  2.306361e+001  3.060000e+001  1.687042e+002
      vertex -2.000000e+001  3.060000e+001  1.473000e+002
    endloop
  endfacet
  facet normal  0.000000e+000  9.999999e-001  0.000000e+000
    outer loop
      vertex -2.000000e+001  3.060000e+001  1.473000e+002
      vertex  2.306361e+001  3.060000e+001  1.687042e+002
      vertex  2.000000e+001  3.060000e+001  1.473000e+002
    endloop
  endfacet
  facet normal  0.000000e+000  9.999999e-001  0.000000e+000
    outer loop
      vertex -2.000000e+001  3.060000e+001  1.473000e+002
      vertex  2.000000e+001  3.060000e+001  1.473000e+002
      vertex -1.849613e+001  3.060000e+001  1.290115e+002
    endloop
  endfacet
  facet normal  0.000000e+000  1.000000e+000  0.000000e+000
    outer loop
      vertex -1.849613e+001  3.060000e+001  1.290115e+002
      vertex  2.000000e+001  3.060000e+001  1.473000e+002
      vertex  1.849613e+001  3.060000e+001  1.290115e+002
    endloop
  endfacet
  facet normal  0.000000e+000  1.000000e+000  0.000000e+000
    outer loop
      vertex -1.849613e+001  3.060000e+001  1.290115e+002
      vertex  1.849613e+001  3.060000e+001  1.290115e+002
      vertex -1.799484e+001  3.060000e+001  1.106500e+002
    endloop
  endfacet
  facet normal  0.000000e+000  9.999999e-001  0.000000e+000
    outer loop
      vertex -1.799484e+001  3.060000e+001  1.106500e+002
      vertex  1.849613e+001  3.060000e+001  1.290115e+002
      vertex  1.799484e+001  3.060000e+001  1.106500e+002
    endloop
  endfacet
  facet normal  0.000000e+000  9.999999e-001  0.000000e+000
    outer loop
      vertex -1.799484e+001  3.060000e+001  1.106500e+002
      vertex  1.799484e+001  3.060000e+001  1.106500e+002
      vertex -1.849613e+001  3.060000e+001  9.228848e+001
    endloop
  endfacet
  facet normal  0.000000e+000  1.000000e+000  0.000000e+000
    outer loop
      vertex -1.849613e+001  3.060000e+001  9.228848e+001
      vertex  1.799484e+001  3.060000e+001  1.106500e+002
      vertex  1.849613e+001  3.060000e+001  9.228848e+001
    endloop
  endfacet
  facet normal  0.000000e+000  1.000000e+000  0.000000e+000
    outer loop
      vertex -1.849613e+001  3.060000e+001  9.228848e+001
      vertex  1.849613e+001  3.060000e+001  9.228848e+001
      vertex -2.000000e+001  3.060000e+001  7.400000e+001
    endloop
  endfacet
  facet normal  0.000000e+000  9.999999e-001  0.000000e+000
    outer loop
      vertex -2.000000e+001  3.060000e+001  7.400000e+001
      vertex  1.849613e+001  3.060000e+001  9.228848e+001
      vertex  2.000000e+001  3.060000e+001  7.400000e+001
    endloop
  endfacet
  facet normal  0.000000e+000  1.000000e+000  0.000000e+000
    outer loop
      vertex -2.000000e+001  3.060000e+001  7.400000e+001
      vertex  2.000000e+001  3.060000e+001  7.400000e+001
      vertex -2.306361e+001  3.060000e+001  5.259576e+001
    endloop
  endfacet
  facet normal  0.000000e+000  1.000000e+000  0.000000e+000
    outer loop
      vertex -2.306361e+001  3.060000e+001  5.259576e+001
      vertex  2.000000e+001  3.060000e+001  7.400000e+001
      vertex  2.306361e+001  3.060000e+001  5.259576e+001
    endloop
  endfacet
  facet normal  0.000000e+000  1.000000e+000  0.000000e+000
    outer loop
      vertex -2.306361e+001  3.060000e+001  5.259576e+001
      vertex  2.306361e+001  3.060000e+001  5.259576e+001
      vertex -2.752287e+001  3.060000e+001  3.143234e+001
    endloop
  endfacet
  facet normal  0.000000e+000  1.000000e+000  0.000000e+000
    outer loop
      vertex -2.752287e+001  3.060000e+001  3.143234e+001
      vertex  2.306361e+001  3.060000e+001  5.259576e+001
      vertex  2.752287e+001  3.060000e+001  3.143234e+001
    endloop
  endfacet
  facet normal  0.000000e+000  1.000000e+000  0.000000e+000
    outer loop
      vertex -2.752287e+001  3.060000e+001  3.143234e+001
      vertex  2.752287e+001  3.060000e+001  3.143234e+001
      vertex -3.337777e+001  3.060000e+001  1.053205e+001
    endloop
  endfacet
  facet normal  0.000000e+000  1.000000e+000  0.000000e+000
    outer loop
      vertex -3.337777e+001  3.060000e+001  1.053205e+001
      vertex  2.752287e+001  3.060000e+001  3.143234e+001
      vertex  3.337777e+001  3.060000e+001  1.053205e+001
    endloop
  endfacet
  facet normal  0.000000e+000  1.000000e+000  0.000000e+000
    outer loop
      vertex -3.337777e+001  3.060000e+001  1.053205e+001
      vertex  3.337777e+001  3.060000e+001  1.053205e+001
      vertex -3.483493e+001  3.060000e+001  3.395200e+000
    endloop
  endfacet
  facet normal  0.000000e+000  9.999999e-001  0.000000e+000
    outer loop
      vertex -3.483493e+001  3.060000e+001  3.395200e+000
      vertex  3.337777e+001  3.060000e+001  1.053205e+001
      vertex  3.483493e+001  3.060000e+001  3.395200e+000
    endloop
  endfacet
  facet normal  0.000000e+000  1.000000e+000  0.000000e+000
    outer loop
      vertex -3.483493e+001  3.060000e+001  3.395200e+000
      vertex  3.483493e+001  3.060000e+001  3.395200e+000
      vertex -3.478330e+001  3.060000e+001 -3.888710e+000
    endloop
  endfacet
  facet normal  0.000000e+000  1.000000e+000  0.000000e+000
    outer loop
      vertex -3.478330e+001  3.060000e+001 -3.888710e+000
      vertex  3.483493e+001  3.060000e+001  3.395200e+000
      vertex  3.478330e+001  3.060000e+001 -3.888710e+000
    endloop
  endfacet
  facet normal  0.000000e+000  1.000000e+000  0.000000e+000
    outer loop
      vertex -3.478330e+001  3.060000e+001 -3.888710e+000
      vertex  3.478330e+001  3.060000e+001 -3.888710e+000
      vertex -3.322511e+001  3.060000e+001 -1.100419e+001
    endloop
  endfacet
  facet normal  0.000000e+000  1.000000e+000  0.000000e+000
    outer loop
      vertex -3.322511e+001  3.060000e+001 -1.100419e+001
      vertex  3.478330e+001  3.060000e+001 -3.888710e+000
      vertex  3.322511e+001  3.060000e+001 -1.100419e+001
    endloop
  endfacet
  facet normal  0.000000e+000  9.999999e-001  0.000000e+000
    outer loop
      vertex -3.322511e+001  3.060000e+001 -1.100419e+001
      vertex  3.322511e+001  3.060000e+001 -1.100419e+001
      vertex -3.022785e+001  3.060000e+001 -1.764305e+001
    endloop
  endfacet
  facet normal  0.000000e+000  1.000000e+000  0.000000e+000
    outer loop
      vertex -3.022785e+001  3.060000e+001 -1.764305e+001
      vertex  3.322511e+001  3.060000e+001 -1.100419e+001
      vertex  3.022785e+001  3.060000e+001 -1.764305e+001
    endloop
  endfacet
  facet normal  0.000000e+000  1.000000e+000  0.000000e+000
    outer loop
      vertex -3.022785e+001  3.060000e+001 -1.764305e+001
      vertex  3.022785e+001  3.060000e+001 -1.764305e+001
      vertex -2.592134e+001  3.060000e+001 -2.351774e+001
    endloop
  endfacet
  facet normal  0.000000e+000  1.000000e+000  0.000000e+000
    outer loop
      vertex -2.592134e+001  3.060000e+001 -2.351774e+001
      vertex  3.022785e+001  3.060000e+001 -1.764305e+001
      vertex  2.592134e+001  3.060000e+001 -2.351774e+001
    endloop
  endfacet
  facet normal  0.000000e+000  1.000000e+000  0.000000e+000
    outer loop
      vertex -2.592134e+001  3.060000e+001 -2.351774e+001
      vertex  2.592134e+001  3.060000e+001 -2.351774e+001
      vertex -2.049211e+001  3.060000e+001 -2.837381e+001
    endloop
  endfacet
  facet normal  0.000000e+000  1.000000e+000  0.000000e+000
    outer loop
      vertex -2.049211e+001  3.060000e+001 -2.837381e+001
      vertex  2.592134e+001  3.060000e+001 -2.351774e+001
      vertex  2.049211e+001  3.060000e+001 -2.837381e+001
    endloop
  endfacet
  facet normal  0.000000e+000  1.000000e+000  0.000000e+000
    outer loop
      vertex -2.049211e+001  3.060000e+001 -2.837381e+001
      vertex  2.049211e+001  3.060000e+001 -2.837381e+001
      vertex -1.417532e+001  3.060000e+001 -3.200094e+001
    endloop
  endfacet
  facet normal  0.000000e+000  1.000000e+000  0.000000e+000
    outer loop
      vertex -1.417532e+001  3.060000e+001 -3.200094e+001
      vertex  2.049211e+001  3.060000e+001 -2.837381e+001
      vertex  1.417532e+001  3.060000e+001 -3.200094e+001
    endloop
  endfacet
  facet normal  0.000000e+000  1.000000e+000  0.000000e+000
    outer loop
      vertex -1.417532e+001  3.060000e+001 -3.200094e+001
      vertex  1.417532e+001  3.060000e+001 -3.200094e+001
      vertex -7.244548e+000  3.060000e+001 -3.424203e+001
    endloop
  endfacet
  facet normal  0.000000e+000  1.000000e+000  0.000000e+000
    outer loop
      vertex -7.244548e+000  3.060000e+001 -3.424203e+001
      vertex  1.417532e+001  3.060000e+001 -3.200094e+001
      vertex  7.244548e+000  3.060000e+001 -3.424203e+001
    endloop
  endfacet
  facet normal  0.000000e+000  9.999999e-001  0.000000e+000
    outer loop
      vertex -7.244548e+000  3.060000e+001 -3.424203e+001
      vertex  7.244548e+000  3.060000e+001 -3.424203e+001
      vertex  6.429183e-015  3.060000e+001 -3.500000e+001
    endloop
  endfacet
  facet normal  0.000000e+000 -1.000000e+000  0.000000e+000
    outer loop
      vertex -4.180155e-014 -3.060000e+001  2.563000e+002
      vertex -7.244548e+000 -3.060000e+001  2.555420e+002
      vertex  7.244548e+000 -3.060000e+001  2.555420e+002
    endloop
  endfacet
  facet normal  0.000000e+000 -1.000000e+000  0.000000e+000
    outer loop
      vertex  7.244548e+000 -3.060000e+001  2.555420e+002
      vertex -7.244548e+000 -3.060000e+001  2.555420e+002
      vertex  1.417532e+001 -3.060000e+001  2.533009e+002
    endloop
  endfacet
  facet normal  0.000000e+000 -1.000000e+000  0.000000e+000
    outer loop
      vertex  1.417532e+001 -3.060000e+001  2.533009e+002
      vertex -7.244548e+000 -3.060000e+001  2.555420e+002
      vertex -1.417532e+001 -3.060000e+001  2.533009e+002
    endloop
  endfacet
  facet normal  0.000000e+000 -1.000000e+000  0.000000e+000
    outer loop
      vertex  1.417532e+001 -3.060000e+001  2.533009e+002
      vertex -1.417532e+001 -3.060000e+001  2.533009e+002
      vertex  2.049211e+001 -3.060000e+001  2.496738e+002
    endloop
  endfacet
  facet normal  0.000000e+000 -9.999999e-001  0.000000e+000
    outer loop
      vertex  2.049211e+001 -3.060000e+001  2.496738e+002
      vertex -1.417532e+001 -3.060000e+001  2.533009e+002
      vertex -2.049211e+001 -3.060000e+001  2.496738e+002
    endloop
  endfacet
  facet normal  0.000000e+000 -1.000000e+000  0.000000e+000
    outer loop
      vertex  2.049211e+001 -3.060000e+001  2.496738e+002
      vertex -2.049211e+001 -3.060000e+001  2.496738e+002
      vertex  2.592134e+001 -3.060000e+001  2.448177e+002
    endloop
  endfacet
  facet normal  0.000000e+000 -1.000000e+000  0.000000e+000
    outer loop
      vertex  2.592134e+001 -3.060000e+001  2.448177e+002
      vertex -2.049211e+001 -3.060000e+001  2.496738e+002
      vertex -2.592134e+001 -3.060000e+001  2.448177e+002
    endloop
  endfacet
  facet normal  0.000000e+000 -1.000000e+000  0.000000e+000
    outer loop
      vertex  2.592134e+001 -3.060000e+001  2.448177e+002
      vertex -2.592134e+001 -3.060000e+001  2.448177e+002
      vertex  3.022785e+001 -3.060000e+001  2.389431e+002
    endloop
  endfacet
  facet normal  0.000000e+000 -1.000000e+000  0.000000e+000
    outer loop
      vertex  3.022785e+001 -3.060000e+001  2.389431e+002
      vertex -2.592134e+001 -3.060000e+001  2.448177e+002
      vertex -3.022785e+001 -3.060000e+001  2.389431e+002
    endloop
  endfacet
  facet normal  0.000000e+000 -1.000000e+000  0.000000e+000
    outer loop
      vertex  3.022785e+001 -3.060000e+001  2.389431e+002
      vertex -3.022785e+001 -3.060000e+001  2.389431e+002
      vertex  3.322511e+001 -3.060000e+001  2.323042e+002
    endloop
  endfacet
  facet normal  0.000000e+000 -1.000000e+000  0.000000e+000
    outer loop
      vertex  3.322511e+001 -3.060000e+001  2.323042e+002
      vertex -3.022785e+001 -3.060000e+001  2.389431e+002
      vertex -3.322511e+001 -3.060000e+001  2.323042e+002
    endloop
  endfacet
  facet normal  0.000000e+000 -1.000000e+000  0.000000e+000
    outer loop
      vertex  3.322511e+001 -3.060000e+001  2.323042e+002
      vertex -3.322511e+001 -3.060000e+001  2.323042e+002
      vertex  3.478330e+001 -3.060000e+001  2.251887e+002
    endloop
  endfacet
  facet normal  0.000000e+000 -1.000000e+000  0.000000e+000
    outer loop
      vertex  3.478330e+001 -3.060000e+001  2.251887e+002
      vertex -3.322511e+001 -3.060000e+001  2.323042e+002
      vertex -3.478330e+001 -3.060000e+001  2.251887e+002
    endloop
  endfacet
  facet normal  0.000000e+000 -1.000000e+000  0.000000e+000
    outer loop
      vertex  3.478330e+001 -3.060000e+001  2.251887e+002
      vertex -3.478330e+001 -3.060000e+001  2.251887e+002
      vertex  3.483493e+001 -3.060000e+001  2.179048e+002
    endloop
  endfacet
  facet normal  0.000000e+000 -9.999999e-001  0.000000e+000
    outer loop
      vertex  3.483493e+001 -3.060000e+001  2.179048e+002
      vertex -3.478330e+001 -3.060000e+001  2.251887e+002
      vertex -3.483493e+001 -3.060000e+001  2.179048e+002
    endloop
  endfacet
  facet normal  0.000000e+000 -9.999999e-001  0.000000e+000
    outer loop
      vertex  3.483493e+001 -3.060000e+001  2.179048e+002
      vertex -3.483493e+001 -3.060000e+001  2.179048e+002
      vertex  3.337777e+001 -3.060000e+001  2.107679e+002
    endloop
  endfacet
  facet normal  0.000000e+000 -1.000000e+000  0.000000e+000
    outer loop
      vertex  3.337777e+001 -3.060000e+001  2.107679e+002
      vertex -3.483493e+001 -3.060000e+001  2.179048e+002
      vertex -3.337777e+001 -3.060000e+001  2.107679e+002
    endloop
  endfacet
  facet normal  0.000000e+000 -1.000000e+000  0.000000e+000
    outer loop
      vertex  3.337777e+001 -3.060000e+001  2.107679e+002
      vertex -3.337777e+001 -3.060000e+001  2.107679e+002
      vertex  2.752287e+001 -3.060000e+001  1.898677e+002
    endloop
  endfacet
  facet normal  0.000000e+000 -1.000000e+000  0.000000e+000
    outer loop
      vertex  2.752287e+001 -3.060000e+001  1.898677e+002
      vertex -3.337777e+001 -3.060000e+001  2.107679e+002
      vertex -2.752287e+001 -3.060000e+001  1.898677e+002
    endloop
  endfacet
  facet normal  0.000000e+000 -1.000000e+000  0.000000e+000
    outer loop
      vertex  2.752287e+001 -3.060000e+001  1.898677e+002
      vertex -2.752287e+001 -3.060000e+001  1.898677e+002
      vertex  2.306361e+001 -3.060000e+001  1.687042e+002
    endloop
  endfacet
  facet normal  0.000000e+000 -1.000000e+000  0.000000e+000
    outer loop
      vertex  2.306361e+001 -3.060000e+001  1.687042e+002
      vertex -2.752287e+001 -3.060000e+001  1.898677e+002
      vertex -2.306361e+001 -3.060000e+001  1.687042e+002
    endloop
  endfacet
  facet normal  0.000000e+000 -1.000000e+000  0.000000e+000
    outer loop
      vertex  2.306361e+001 -3.060000e+001  1.687042e+002
      vertex -2.306361e+001 -3.060000e+001  1.687042e+002
      vertex  2.000000e+001 -3.060000e+001  1.473000e+002
    endloop
  endfacet
  facet normal  0.000000e+000 -9.999999e-001  0.000000e+000
    outer loop
      vertex  2.000000e+001 -3.060000e+001  1.473000e+002
      vertex -2.306361e+001 -3.060000e+001  1.687042e+002
      vertex -2.000000e+001 -3.060000e+001  1.473000e+002
    endloop
  endfacet
  facet normal  0.000000e+000 -9.999999e-001  0.000000e+000
    outer loop
      vertex  2.000000e+001 -3.060000e+001  1.473000e+002
      vertex -2.000000e+001 -3.060000e+001  1.473000e+002
      vertex  1.849613e+001 -3.060000e+001  1.290115e+002
    endloop
  endfacet
  facet normal  0.000000e+000 -1.000000e+000  0.000000e+000
    outer loop
      vertex  1.849613e+001 -3.060000e+001  1.290115e+002
      vertex -2.000000e+001 -3.060000e+001  1.473000e+002
      vertex -1.849613e+001 -3.060000e+001  1.290115e+002
    endloop
  endfacet
  facet normal  0.000000e+000 -1.000000e+000  0.000000e+000
    outer loop
      vertex  1.849613e+001 -3.060000e+001  1.290115e+002
      vertex -1.849613e+001 -3.060000e+001  1.290115e+002
      vertex  1.799484e+001 -3.060000e+001  1.106500e+002
    endloop
  endfacet
  facet normal  0.000000e+000 -9.999999e-001  0.000000e+000
    outer loop
      vertex  1.799484e+001 -3.060000e+001  1.106500e+002
      vertex -1.849613e+001 -3.060000e+001  1.290115e+002
      vertex -1.799484e+001 -3.060000e+001  1.106500e+002
    endloop
  endfacet
  facet normal  0.000000e+000 -9.999999e-001  0.000000e+000
    outer loop
      vertex  1.799484e+001 -3.060000e+001  1.106500e+002
      vertex -1.799484e+001 -3.060000e+001  1.106500e+002
      vertex  1.849613e+001 -3.060000e+001  9.228848e+001
    endloop
  endfacet
  facet normal  0.000000e+000 -1.000000e+000  0.000000e+000
    outer loop
      vertex  1.849613e+001 -3.060000e+001  9.228848e+001
      vertex -1.799484e+001 -3.060000e+001  1.106500e+002
      vertex -1.849613e+001 -3.060000e+001  9.228848e+001
    endloop
  endfacet
  facet normal  0.000000e+000 -1.000000e+000  0.000000e+000
    outer loop
      vertex  1.849613e+001 -3.060000e+001  9.228848e+001
      vertex -1.849613e+001 -3.060000e+001  9.228848e+001
      vertex  2.000000e+001 -3.060000e+001  7.400000e+001
    endloop
  endfacet
  facet normal  0.000000e+000 -9.999999e-001  0.000000e+000
    outer loop
      vertex  2.000000e+001 -3.060000e+001  7.400000e+001
      vertex -1.849613e+001 -3.060000e+001  9.228848e+001
      vertex -2.000000e+001 -3.060000e+001  7.400000e+001
    endloop
  endfacet
  facet normal  0.000000e+000 -1.000000e+000  0.000000e+000
    outer loop
      vertex  2.000000e+001 -3.060000e+001  7.400000e+001
      vertex -2.000000e+001 -3.060000e+001  7.400000e+001
      vertex  2.306361e+001 -3.060000e+001  5.259576e+001
    endloop
  endfacet
  facet normal  0.000000e+000 -1.000000e+000  0.000000e+000
    outer loop
      vertex  2.306361e+001 -3.060000e+001  5.259576e+001
      vertex -2.000000e+001 -3.060000e+001  7.400000e+001
      vertex -2.306361e+001 -3.060000e+001  5.259576e+001
    endloop
  endfacet
  facet normal  0.000000e+000 -1.000000e+000  0.000000e+000
    outer loop
      vertex  2.306361e+001 -3.060000e+001  5.259576e+001
      vertex -2.306361e+001 -3.060000e+001  5.259576e+001
      vertex  2.752287e+001 -3.060000e+001  3.143234e+001
    endloop
  endfacet
  facet normal  0.000000e+000 -1.000000e+000  0.000000e+000
    outer loop
      vertex  2.752287e+001 -3.060000e+001  3.143234e+001
      vertex -2.306361e+001 -3.060000e+001  5.259576e+001
      vertex -2.752287e+001 -3.060000e+001  3.143234e+001
    endloop
  endfacet
  facet normal  0.000000e+000 -1.000000e+000  0.000000e+000
    outer loop
      vertex  2.752287e+001 -3.060000e+001  3.143234e+001
      vertex -2.752287e+001 -3.060000e+001  3.143234e+001
      vertex  3.337777e+001 -3.060000e+001  1.053205e+001
    endloop
  endfacet
  facet normal  0.000000e+000 -1.000000e+000  0.000000e+000
    outer loop
      vertex  3.337777e+001 -3.060000e+001  1.053205e+001
      vertex -2.752287e+001 -3.060000e+001  3.143234e+001
      vertex -3.337777e+001 -3.060000e+001  1.053205e+001
    endloop
  endfacet
  facet normal  0.000000e+000 -1.000000e+000  0.000000e+000
    outer loop
      vertex  3.337777e+001 -3.060000e+001  1.053205e+001
      vertex -3.337777e+001 -3.060000e+001  1.053205e+001
      vertex  3.483493e+001 -3.060000e+001  3.395200e+000
    endloop
  endfacet
  facet normal  0.000000e+000 -9.999999e-001  0.000000e+000
    outer loop
      vertex  3.483493e+001 -3.060000e+001  3.395200e+000
      vertex -3.337777e+001 -3.060000e+001  1.053205e+001
      vertex -3.483493e+001 -3.060000e+001  3.395200e+000
    endloop
  endfacet
  facet normal  0.000000e+000 -1.000000e+000  0.000000e+000
    outer loop
      vertex  3.483493e+001 -3.060000e+001  3.395200e+000
      vertex -3.483493e+001 -3.060000e+001  3.395200e+000
      vertex  3.478330e+001 -3.060000e+001 -3.888710e+000
    endloop
  endfacet
  facet normal  0.000000e+000 -1.000000e+000  0.000000e+000
    outer loop
      vertex  3.478330e+001 -3.060000e+001 -3.888710e+000
      vertex -3.483493e+001 -3.060000e+001  3.395200e+000
      vertex -3.478330e+001 -3.060000e+001 -3.888710e+000
    endloop
  endfacet
  facet normal  0.000000e+000 -1.000000e+000  0.000000e+000
    outer loop
      vertex  3.478330e+001 -3.060000e+001 -3.888710e+000
      vertex -3.478330e+001 -3.060000e+001 -3.888710e+000
      vertex  3.322511e+001 -3.060000e+001 -1.100419e+001
    endloop
  endfacet
  facet normal  0.000000e+000 -1.000000e+000  0.000000e+000
    outer loop
      vertex  3.322511e+001 -3.060000e+001 -1.100419e+001
      vertex -3.478330e+001 -3.060000e+001 -3.888710e+000
      vertex -3.322511e+001 -3.060000e+001 -1.100419e+001
    endloop
  endfacet
  facet normal  0.000000e+000 -9.999999e-001  0.000000e+000
    outer loop
      vertex  3.322511e+001 -3.060000e+001 -1.100419e+001
      vertex -3.322511e+001 -3.060000e+001 -1.100419e+001
      vertex  3.022785e+001 -3.060000e+001 -1.764305e+001
    endloop
  endfacet
  facet normal  0.000000e+000 -1.000000e+000  0.000000e+000
    outer loop
      vertex  3.022785e+001 -3.060000e+001 -1.764305e+001
      vertex -3.322511e+001 -3.060000e+001 -1.100419e+001
      vertex -3.022785e+001 -3.060000e+001 -1.764305e+001
    endloop
  endfacet
  facet normal  0.000000e+000 -1.000000e+000  0.000000e+000
    outer loop
      vertex  3.022785e+001 -3.060000e+001 -1.764305e+001
      vertex -3.022785e+001 -3.060000e+001 -1.764305e+001
      vertex  2.592134e+001 -3.060000e+001 -2.351774e+001
    endloop
  endfacet
  facet normal  0.000000e+000 -1.000000e+000  0.000000e+000
    outer loop
      vertex  2.592134e+001 -3.060000e+001 -2.351774e+001
      vertex -3.022785e+001 -3.060000e+001 -1.764305e+001
      vertex -2.592134e+001 -3.060000e+001 -2.351774e+001
    endloop
  endfacet
  facet normal  0.000000e+000 -1.000000e+000  0.000000e+000
    outer loop
      vertex  2.592134e+001 -3.060000e+001 -2.351774e+001
      vertex -2.592134e+001 -3.060000e+001 -2.351774e+001
      vertex  2.049211e+001 -3.060000e+001 -2.837381e+001
    endloop
  endfacet
  facet normal  0.000000e+000 -1.000000e+000  0.000000e+000
    outer loop
      vertex  2.049211e+001 -3.060000e+001 -2.837381e+001
      vertex -2.592134e+001 -3.060000e+001 -2.351774e+001
      vertex -2.049211e+001 -3.060000e+001 -2.837381e+001
    endloop
  endfacet
  facet normal  0.000000e+000 -1.000000e+000  0.000000e+000
    outer loop
      vertex  2.049211e+001 -3.060000e+001 -2.837381e+001
      vertex -2.049211e+001 -3.060000e+001 -2.837381e+001
      vertex  1.417532e+001 -3.060000e+001 -3.200094e+001
    endloop
  endfacet
  facet normal  0.000000e+000 -1.000000e+000  0.000000e+000
    outer loop
      vertex  1.417532e+001 -3.060000e+001 -3.200094e+001
      vertex -2.049211e+001 -3.060000e+001 -2.837381e+001
      vertex -1.417532e+001 -3.060000e+001 -3.200094e+001
    endloop
  endfacet
  facet normal  0.000000e+000 -1.000000e+000  0.000000e+000
    outer loop
      vertex  1.417532e+001 -3.060000e+001 -3.200094e+001
      vertex -1.417532e+001 -3.060000e+001 -3.200094e+001
      vertex  7.244548e+000 -3.060000e+001 -3.424203e+001
    endloop
  endfacet
  facet normal  0.000000e+000 -1.000000e+000  0.000000e+000
    outer loop
      vertex  7.244548e+000 -3.060000e+001 -3.424203e+001
      vertex -1.417532e+001 -3.060000e+001 -3.200094e+001
      vertex -7.244548e+000 -3.060000e+001 -3.424203e+001
    endloop
  endfacet
  facet normal  0.000000e+000 -9.999999e-001  0.000000e+000
    outer loop
      vertex  7.244548e+000 -3.060000e+001 -3.424203e+001
      vertex -7.244548e+000 -3.060000e+001 -3.424203e+001
      vertex  6.429183e-015 -3.060000e+001 -3.500000e+001
    endloop
  endfacet
  facet normal  9.629302e-001  0.000000e+000  2.697505e-001
    outer loop
      vertex  3.337777e+001 -3.060000e+001  1.053205e+001
      vertex  3.337777e+001  3.060000e+001  1.053205e+001
      vertex  2.752287e+001 -3.060000e+001  3.143234e+001
    endloop
  endfacet
  facet normal  9.629302e-001  -0.000000e+000  2.697505e-001
    outer loop
      vertex  2.752287e+001 -3.060000e+001  3.143234e+001
      vertex  3.337777e+001  3.060000e+001  1.053205e+001
      vertex  2.752287e+001  3.060000e+001  3.143234e+001
    endloop
  endfacet
  facet normal  9.785143e-001  0.000000e+000  2.061788e-001
    outer loop
      vertex  2.752287e+001 -3.060000e+001  3.143234e+001
      vertex  2.752287e+001  3.060000e+001  3.143234e+001
      vertex  2.306361e+001 -3.060000e+001  5.259576e+001
    endloop
  endfacet
  facet normal  9.785143e-001  -0.000000e+000  2.061788e-001
    outer loop
      vertex  2.306361e+001 -3.060000e+001  5.259576e+001
      vertex  2.752287e+001  3.060000e+001  3.143234e+001
      vertex  2.306361e+001  3.060000e+001  5.259576e+001
    endloop
  endfacet
  facet normal  9.899114e-001  0.000000e+000  1.416872e-001
    outer loop
      vertex  2.306361e+001 -3.060000e+001  5.259576e+001
      vertex  2.306361e+001  3.060000e+001  5.259576e+001
      vertex  2.000000e+001 -3.060000e+001  7.400000e+001
    endloop
  endfacet
  facet normal  9.899114e-001  -0.000000e+000  1.416872e-001
    outer loop
      vertex  2.000000e+001 -3.060000e+001  7.400000e+001
      vertex  2.306361e+001  3.060000e+001  5.259576e+001
      vertex  2.000000e+001  3.060000e+001  7.400000e+001
    endloop
  endfacet
  facet normal  9.966362e-001  0.000000e+000  8.195362e-002
    outer loop
      vertex  2.000000e+001 -3.060000e+001  7.400000e+001
      vertex  2.000000e+001  3.060000e+001  7.400000e+001
      vertex  1.849613e+001 -3.060000e+001  9.228848e+001
    endloop
  endfacet
  facet normal  9.966362e-001  -0.000000e+000  8.195362e-002
    outer loop
      vertex  1.849613e+001 -3.060000e+001  9.228848e+001
      vertex  2.000000e+001  3.060000e+001  7.400000e+001
      vertex  1.849613e+001  3.060000e+001  9.228848e+001
    endloop
  endfacet
  facet normal  9.996276e-001  0.000000e+000  2.729092e-002
    outer loop
      vertex  1.849613e+001 -3.060000e+001  9.228848e+001
      vertex  1.849613e+001  3.060000e+001  9.228848e+001
      vertex  1.799484e+001 -3.060000e+001  1.106500e+002
    endloop
  endfacet
  facet normal  9.996276e-001  -0.000000e+000  2.729092e-002
    outer loop
      vertex  1.799484e+001 -3.060000e+001  1.106500e+002
      vertex  1.849613e+001  3.060000e+001  9.228848e+001
      vertex  1.799484e+001  3.060000e+001  1.106500e+002
    endloop
  endfacet
  facet normal  9.996276e-001  0.000000e+000 -2.729092e-002
    outer loop
      vertex  1.799484e+001 -3.060000e+001  1.106500e+002
      vertex  1.799484e+001  3.060000e+001  1.106500e+002
      vertex  1.849613e+001 -3.060000e+001  1.290115e+002
    endloop
  endfacet
  facet normal  9.996276e-001  0.000000e+000 -2.729092e-002
    outer loop
      vertex  1.849613e+001 -3.060000e+001  1.290115e+002
      vertex  1.799484e+001  3.060000e+001  1.106500e+002
      vertex  1.849613e+001  3.060000e+001  1.290115e+002
    endloop
  endfacet
  facet normal  9.966362e-001  0.000000e+000 -8.195362e-002
    outer loop
      vertex  1.849613e+001 -3.060000e+001  1.290115e+002
      vertex  1.849613e+001  3.060000e+001  1.290115e+002
      vertex  2.000000e+001 -3.060000e+001  1.473000e+002
    endloop
  endfacet
  facet normal  9.966362e-001  0.000000e+000 -8.195362e-002
    outer loop
      vertex  2.000000e+001 -3.060000e+001  1.473000e+002
      vertex  1.849613e+001  3.060000e+001  1.290115e+002
      vertex  2.000000e+001  3.060000e+001  1.473000e+002
    endloop
  endfacet
  facet normal  9.899115e-001  0.000000e+000 -1.416872e-001
    outer loop
      vertex  2.000000e+001 -3.060000e+001  1.473000e+002
      vertex  2.000000e+001  3.060000e+001  1.473000e+002
      vertex  2.306361e+001 -3.060000e+001  1.687042e+002
    endloop
  endfacet
  facet normal  9.899115e-001  0.000000e+000 -1.416872e-001
    outer loop
      vertex  2.306361e+001 -3.060000e+001  1.687042e+002
      vertex  2.000000e+001  3.060000e+001  1.473000e+002
      vertex  2.306361e+001  3.060000e+001  1.687042e+002
    endloop
  endfacet
  facet normal  9.785144e-001  0.000000e+000 -2.061787e-001
    outer loop
      vertex  2.306361e+001 -3.060000e+001  1.687042e+002
      vertex  2.306361e+001  3.060000e+001  1.687042e+002
      vertex  2.752287e+001 -3.060000e+001  1.898677e+002
    endloop
  endfacet
  facet normal  9.785144e-001  0.000000e+000 -2.061787e-001
    outer loop
      vertex  2.752287e+001 -3.060000e+001  1.898677e+002
      vertex  2.306361e+001  3.060000e+001  1.687042e+002
      vertex  2.752287e+001  3.060000e+001  1.898677e+002
    endloop
  endfacet
  facet normal  9.629303e-001  0.000000e+000 -2.697505e-001
    outer loop
      vertex  2.752287e+001 -3.060000e+001  1.898677e+002
      vertex  2.752287e+001  3.060000e+001  1.898677e+002
      vertex  3.337777e+001 -3.060000e+001  2.107679e+002
    endloop
  endfacet
  facet normal  9.629303e-001  0.000000e+000 -2.697505e-001
    outer loop
      vertex  3.337777e+001 -3.060000e+001  2.107679e+002
      vertex  2.752287e+001  3.060000e+001  1.898677e+002
      vertex  3.337777e+001  3.060000e+001  2.107679e+002
    endloop
  endfacet
  facet normal  9.797863e-001  0.000000e+000 -2.000470e-001
    outer loop
      vertex  3.337777e+001 -3.060000e+001  2.107679e+002
      vertex  3.337777e+001  3.060000e+001  2.107679e+002
      vertex  3.483493e+001 -3.060000e+001  2.179048e+002
    endloop
  endfacet
  facet normal  9.797863e-001  0.000000e+000 -2.000470e-001
    outer loop
      vertex  3.483493e+001 -3.060000e+001  2.179048e+002
      vertex  3.337777e+001  3.060000e+001  2.107679e+002
      vertex  3.483493e+001  3.060000e+001  2.179048e+002
    endloop
  endfacet
  facet normal  9.999748e-001  0.000000e+000  7.088840e-003
    outer loop
      vertex  3.483493e+001 -3.060000e+001  2.179048e+002
      vertex  3.483493e+001  3.060000e+001  2.179048e+002
      vertex  3.478330e+001 -3.060000e+001  2.251887e+002
    endloop
  endfacet
  facet normal  9.999748e-001  -0.000000e+000  7.088840e-003
    outer loop
      vertex  3.478330e+001 -3.060000e+001  2.251887e+002
      vertex  3.483493e+001  3.060000e+001  2.179048e+002
      vertex  3.478330e+001  3.060000e+001  2.251887e+002
    endloop
  endfacet
  facet normal  9.768519e-001  0.000000e+000  2.139168e-001
    outer loop
      vertex  3.478330e+001 -3.060000e+001  2.251887e+002
      vertex  3.478330e+001  3.060000e+001  2.251887e+002
      vertex  3.322511e+001 -3.060000e+001  2.323042e+002
    endloop
  endfacet
  facet normal  9.768519e-001  -0.000000e+000  2.139168e-001
    outer loop
      vertex  3.322511e+001 -3.060000e+001  2.323042e+002
      vertex  3.478330e+001  3.060000e+001  2.251887e+002
      vertex  3.322511e+001  3.060000e+001  2.323042e+002
    endloop
  endfacet
  facet normal  9.114190e-001  0.000000e+000  4.114795e-001
    outer loop
      vertex  3.322511e+001 -3.060000e+001  2.323042e+002
      vertex  3.322511e+001  3.060000e+001  2.323042e+002
      vertex  3.022785e+001 -3.060000e+001  2.389431e+002
    endloop
  endfacet
  facet normal  9.114190e-001  -0.000000e+000  4.114795e-001
    outer loop
      vertex  3.022785e+001 -3.060000e+001  2.389431e+002
      vertex  3.322511e+001  3.060000e+001  2.323042e+002
      vertex  3.022785e+001  3.060000e+001  2.389431e+002
    endloop
  endfacet
  facet normal  8.065091e-001  0.000000e+000  5.912216e-001
    outer loop
      vertex  3.022785e+001 -3.060000e+001  2.389431e+002
      vertex  3.022785e+001  3.060000e+001  2.389431e+002
      vertex  2.592134e+001 -3.060000e+001  2.448177e+002
    endloop
  endfacet
  facet normal  8.065091e-001  -0.000000e+000  5.912216e-001
    outer loop
      vertex  2.592134e+001 -3.060000e+001  2.448177e+002
      vertex  3.022785e+001  3.060000e+001  2.389431e+002
      vertex  2.592134e+001  3.060000e+001  2.448177e+002
    endloop
  endfacet
  facet normal  6.666688e-001  0.000000e+000  7.453541e-001
    outer loop
      vertex  2.592134e+001 -3.060000e+001  2.448177e+002
      vertex  2.592134e+001  3.060000e+001  2.448177e+002
      vertex  2.049211e+001 -3.060000e+001  2.496738e+002
    endloop
  endfacet
  facet normal  6.666688e-001  -0.000000e+000  7.453541e-001
    outer loop
      vertex  2.049211e+001 -3.060000e+001  2.496738e+002
      vertex  2.592134e+001  3.060000e+001  2.448177e+002
      vertex  2.049211e+001  3.060000e+001  2.496738e+002
    endloop
  endfacet
  facet normal  4.979529e-001  0.000000e+000  8.672041e-001
    outer loop
      vertex  2.049211e+001 -3.060000e+001  2.496738e+002
      vertex  2.049211e+001  3.060000e+001  2.496738e+002
      vertex  1.417532e+001 -3.060000e+001  2.533009e+002
    endloop
  endfacet
  facet normal  4.979529e-001  -0.000000e+000  8.672041e-001
    outer loop
      vertex  1.417532e+001 -3.060000e+001  2.533009e+002
      vertex  2.049211e+001  3.060000e+001  2.496738e+002
      vertex  1.417532e+001  3.060000e+001  2.533009e+002
    endloop
  endfacet
  facet normal  3.076670e-001  0.000000e+000  9.514942e-001
    outer loop
      vertex  1.417532e+001 -3.060000e+001  2.533009e+002
      vertex  1.417532e+001  3.060000e+001  2.533009e+002
      vertex  7.244548e+000 -3.060000e+001  2.555420e+002
    endloop
  endfacet
  facet normal  3.076670e-001  -0.000000e+000  9.514942e-001
    outer loop
      vertex  7.244548e+000 -3.060000e+001  2.555420e+002
      vertex  1.417532e+001  3.060000e+001  2.533009e+002
      vertex  7.244548e+000  3.060000e+001  2.555420e+002
    endloop
  endfacet
  facet normal  1.040576e-001  0.000000e+000  9.945713e-001
    outer loop
      vertex  7.244548e+000 -3.060000e+001  2.555420e+002
      vertex  7.244548e+000  3.060000e+001  2.555420e+002
      vertex -4.180155e-014 -3.060000e+001  2.563000e+002
    endloop
  endfacet
  facet normal  1.040576e-001  -0.000000e+000  9.945713e-001
    outer loop
      vertex -4.180155e-014 -3.060000e+001  2.563000e+002
      vertex  7.244548e+000  3.060000e+001  2.555420e+002
      vertex -4.180155e-014  3.060000e+001  2.563000e+002
    endloop
  endfacet
  facet normal -1.040576e-001  0.000000e+000  9.945713e-001
    outer loop
      vertex -4.180155e-014 -3.060000e+001  2.563000e+002
      vertex -4.180155e-014  3.060000e+001  2.563000e+002
      vertex -7.244548e+000 -3.060000e+001  2.555420e+002
    endloop
  endfacet
  facet normal -1.040576e-001  0.000000e+000  9.945713e-001
    outer loop
      vertex -7.244548e+000 -3.060000e+001  2.555420e+002
      vertex -4.180155e-014  3.060000e+001  2.563000e+002
      vertex -7.244548e+000  3.060000e+001  2.555420e+002
    endloop
  endfacet
  facet normal -3.076670e-001  0.000000e+000  9.514942e-001
    outer loop
      vertex -7.244548e+000 -3.060000e+001  2.555420e+002
      vertex -7.244548e+000  3.060000e+001  2.555420e+002
      vertex -1.417532e+001 -3.060000e+001  2.533009e+002
    endloop
  endfacet
  facet normal -3.076670e-001  0.000000e+000  9.514942e-001
    outer loop
      vertex -1.417532e+001 -3.060000e+001  2.533009e+002
      vertex -7.244548e+000  3.060000e+001  2.555420e+002
      vertex -1.417532e+001  3.060000e+001  2.533009e+002
    endloop
  endfacet
  facet normal -4.979529e-001  0.000000e+000  8.672041e-001
    outer loop
      vertex -1.417532e+001 -3.060000e+001  2.533009e+002
      vertex -1.417532e+001  3.060000e+001  2.533009e+002
      vertex -2.049211e+001 -3.060000e+001  2.496738e+002
    endloop
  endfacet
  facet normal -4.979529e-001  0.000000e+000  8.672041e-001
    outer loop
      vertex -2.049211e+001 -3.060000e+001  2.496738e+002
      vertex -1.417532e+001  3.060000e+001  2.533009e+002
      vertex -2.049211e+001  3.060000e+001  2.496738e+002
    endloop
  endfacet
  facet normal -6.666688e-001  0.000000e+000  7.453541e-001
    outer loop
      vertex -2.049211e+001 -3.060000e+001  2.496738e+002
      vertex -2.049211e+001  3.060000e+001  2.496738e+002
      vertex -2.592134e+001 -3.060000e+001  2.448177e+002
    endloop
  endfacet
  facet normal -6.666688e-001  0.000000e+000  7.453541e-001
    outer loop
      vertex -2.592134e+001 -3.060000e+001  2.448177e+002
      vertex -2.049211e+001  3.060000e+001  2.496738e+002
      vertex -2.592134e+001  3.060000e+001  2.448177e+002
    endloop
  endfacet
  facet normal -8.065091e-001  0.000000e+000  5.912216e-001
    outer loop
      vertex -2.592134e+001 -3.060000e+001  2.448177e+002
      vertex -2.592134e+001  3.060000e+001  2.448177e+002
      vertex -3.022785e+001 -3.060000e+001  2.389431e+002
    endloop
  endfacet
  facet normal -8.065091e-001  0.000000e+000  5.912216e-001
    outer loop
      vertex -3.022785e+001 -3.060000e+001  2.389431e+002
      vertex -2.592134e+001  3.060000e+001  2.448177e+002
      vertex -3.022785e+001  3.060000e+001  2.389431e+002
    endloop
  endfacet
  facet normal -9.114190e-001  0.000000e+000  4.114795e-001
    outer loop
      vertex -3.022785e+001 -3.060000e+001  2.389431e+002
      vertex -3.022785e+001  3.060000e+001  2.389431e+002
      vertex -3.322511e+001 -3.060000e+001  2.323042e+002
    endloop
  endfacet
  facet normal -9.114190e-001  0.000000e+000  4.114795e-001
    outer loop
      vertex -3.322511e+001 -3.060000e+001  2.323042e+002
      vertex -3.022785e+001  3.060000e+001  2.389431e+002
      vertex -3.322511e+001  3.060000e+001  2.323042e+002
    endloop
  endfacet
  facet normal -9.768519e-001  0.000000e+000  2.139168e-001
    outer loop
      vertex -3.322511e+001 -3.060000e+001  2.323042e+002
      vertex -3.322511e+001  3.060000e+001  2.323042e+002
      vertex -3.478330e+001 -3.060000e+001  2.251887e+002
    endloop
  endfacet
  facet normal -9.768519e-001  0.000000e+000  2.139168e-001
    outer loop
      vertex -3.478330e+001 -3.060000e+001  2.251887e+002
      vertex -3.322511e+001  3.060000e+001  2.323042e+002
      vertex -3.478330e+001  3.060000e+001  2.251887e+002
    endloop
  endfacet
  facet normal -9.999748e-001  0.000000e+000  7.088840e-003
    outer loop
      vertex -3.478330e+001 -3.060000e+001  2.251887e+002
      vertex -3.478330e+001  3.060000e+001  2.251887e+002
      vertex -3.483493e+001 -3.060000e+001  2.179048e+002
    endloop
  endfacet
  facet normal -9.999748e-001  0.000000e+000  7.088840e-003
    outer loop
      vertex -3.483493e+001 -3.060000e+001  2.179048e+002
      vertex -3.478330e+001  3.060000e+001  2.251887e+002
      vertex -3.483493e+001  3.060000e+001  2.179048e+002
    endloop
  endfacet
  facet normal -9.797863e-001  -0.000000e+000 -2.000470e-001
    outer loop
      vertex -3.483493e+001 -3.060000e+001  2.179048e+002
      vertex -3.483493e+001  3.060000e+001  2.179048e+002
      vertex -3.337777e+001 -3.060000e+001  2.107679e+002
    endloop
  endfacet
  facet normal -9.797863e-001  0.000000e+000 -2.000470e-001
    outer loop
      vertex -3.337777e+001 -3.060000e+001  2.107679e+002
      vertex -3.483493e+001  3.060000e+001  2.179048e+002
      vertex -3.337777e+001  3.060000e+001  2.107679e+002
    endloop
  endfacet
  facet normal -9.629303e-001  -0.000000e+000 -2.697505e-001
    outer loop
      vertex -3.337777e+001 -3.060000e+001  2.107679e+002
      vertex -3.337777e+001  3.060000e+001  2.107679e+002
      vertex -2.752287e+001 -3.060000e+001  1.898677e+002
    endloop
  endfacet
  facet normal -9.629303e-001  0.000000e+000 -2.697505e-001
    outer loop
      vertex -2.752287e+001 -3.060000e+001  1.898677e+002
      vertex -3.337777e+001  3.060000e+001  2.107679e+002
      vertex -2.752287e+001  3.060000e+001  1.898677e+002
    endloop
  endfacet
  facet normal -9.785144e-001  -0.000000e+000 -2.061787e-001
    outer loop
      vertex -2.752287e+001 -3.060000e+001  1.898677e+002
      vertex -2.752287e+001  3.060000e+001  1.898677e+002
      vertex -2.306361e+001 -3.060000e+001  1.687042e+002
    endloop
  endfacet
  facet normal -9.785144e-001  0.000000e+000 -2.061787e-001
    outer loop
      vertex -2.306361e+001 -3.060000e+001  1.687042e+002
      vertex -2.752287e+001  3.060000e+001  1.898677e+002
      vertex -2.306361e+001  3.060000e+001  1.687042e+002
    endloop
  endfacet
  facet normal -9.899115e-001  -0.000000e+000 -1.416872e-001
    outer loop
      vertex -2.306361e+001 -3.060000e+001  1.687042e+002
      vertex -2.306361e+001  3.060000e+001  1.687042e+002
      vertex -2.000000e+001 -3.060000e+001  1.473000e+002
    endloop
  endfacet
  facet normal -9.899115e-001  0.000000e+000 -1.416872e-001
    outer loop
      vertex -2.000000e+001 -3.060000e+001  1.473000e+002
      vertex -2.306361e+001  3.060000e+001  1.687042e+002
      vertex -2.000000e+001  3.060000e+001  1.473000e+002
    endloop
  endfacet
  facet normal -9.966362e-001  -0.000000e+000 -8.195362e-002
    outer loop
      vertex -2.000000e+001 -3.060000e+001  1.473000e+002
      vertex -2.000000e+001  3.060000e+001  1.473000e+002
      vertex -1.849613e+001 -3.060000e+001  1.290115e+002
    endloop
  endfacet
  facet normal -9.966362e-001  0.000000e+000 -8.195362e-002
    outer loop
      vertex -1.849613e+001 -3.060000e+001  1.290115e+002
      vertex -2.000000e+001  3.060000e+001  1.473000e+002
      vertex -1.849613e+001  3.060000e+001  1.290115e+002
    endloop
  endfacet
  facet normal -9.996276e-001  -0.000000e+000 -2.729092e-002
    outer loop
      vertex -1.849613e+001 -3.060000e+001  1.290115e+002
      vertex -1.849613e+001  3.060000e+001  1.290115e+002
      vertex -1.799484e+001 -3.060000e+001  1.106500e+002
    endloop
  endfacet
  facet normal -9.996276e-001  0.000000e+000 -2.729092e-002
    outer loop
      vertex -1.799484e+001 -3.060000e+001  1.106500e+002
      vertex -1.849613e+001  3.060000e+001  1.290115e+002
      vertex -1.799484e+001  3.060000e+001  1.106500e+002
    endloop
  endfacet
  facet normal -9.996276e-001  0.000000e+000  2.729092e-002
    outer loop
      vertex -1.799484e+001 -3.060000e+001  1.106500e+002
      vertex -1.799484e+001  3.060000e+001  1.106500e+002
      vertex -1.849613e+001 -3.060000e+001  9.228848e+001
    endloop
  endfacet
  facet normal -9.996276e-001  0.000000e+000  2.729092e-002
    outer loop
      vertex -1.849613e+001 -3.060000e+001  9.228848e+001
      vertex -1.799484e+001  3.060000e+001  1.106500e+002
      vertex -1.849613e+001  3.060000e+001  9.228848e+001
    endloop
  endfacet
  facet normal -9.966362e-001  0.000000e+000  8.195362e-002
    outer loop
      vertex -1.849613e+001 -3.060000e+001  9.228848e+001
      vertex -1.849613e+001  3.060000e+001  9.228848e+001
      vertex -2.000000e+001 -3.060000e+001  7.400000e+001
    endloop
  endfacet
  facet normal -9.966362e-001  0.000000e+000  8.195362e-002
    outer loop
      vertex -2.000000e+001 -3.060000e+001  7.400000e+001
      vertex -1.849613e+001  3.060000e+001  9.228848e+001
      vertex -2.000000e+001  3.060000e+001  7.400000e+001
    endloop
  endfacet
  facet normal -9.899114e-001  0.000000e+000  1.416872e-001
    outer loop
      vertex -2.000000e+001 -3.060000e+001  7.400000e+001
      vertex -2.000000e+001  3.060000e+001  7.400000e+001
      vertex -2.306361e+001 -3.060000e+001  5.259576e+001
    endloop
  endfacet
  facet normal -9.899114e-001  0.000000e+000  1.416872e-001
    outer loop
      vertex -2.306361e+001 -3.060000e+001  5.259576e+001
      vertex -2.000000e+001  3.060000e+001  7.400000e+001
      vertex -2.306361e+001  3.060000e+001  5.259576e+001
    endloop
  endfacet
  facet normal -9.785143e-001  0.000000e+000  2.061788e-001
    outer loop
      vertex -2.306361e+001 -3.060000e+001  5.259576e+001
      vertex -2.306361e+001  3.060000e+001  5.259576e+001
      vertex -2.752287e+001 -3.060000e+001  3.143234e+001
    endloop
  endfacet
  facet normal -9.785143e-001  0.000000e+000  2.061788e-001
    outer loop
      vertex -2.752287e+001 -3.060000e+001  3.143234e+001
      vertex -2.306361e+001  3.060000e+001  5.259576e+001
      vertex -2.752287e+001  3.060000e+001  3.143234e+001
    endloop
  endfacet
  facet normal -9.629302e-001  0.000000e+000  2.697505e-001
    outer loop
      vertex -2.752287e+001 -3.060000e+001  3.143234e+001
      vertex -2.752287e+001  3.060000e+001  3.143234e+001
      vertex -3.337777e+001 -3.060000e+001  1.053205e+001
    endloop
  endfacet
  facet normal -9.629302e-001  0.000000e+000  2.697505e-001
    outer loop
      vertex -3.337777e+001 -3.060000e+001  1.053205e+001
      vertex -2.752287e+001  3.060000e+001  3.143234e+001
      vertex -3.337777e+001  3.060000e+001  1.053205e+001
    endloop
  endfacet
  facet normal -9.797863e-001  0.000000e+000  2.000470e-001
    outer loop
      vertex -3.337777e+001 -3.060000e+001  1.053205e+001
      vertex -3.337777e+001  3.060000e+001  1.053205e+001
      vertex -3.483493e+001 -3.060000e+001  3.395200e+000
    endloop
  endfacet
  facet normal -9.797863e-001  0.000000e+000  2.000470e-001
    outer loop
      vertex -3.483493e+001 -3.060000e+001  3.395200e+000
      vertex -3.337777e+001  3.060000e+001  1.053205e+001
      vertex -3.483493e+001  3.060000e+001  3.395200e+000
    endloop
  endfacet
  facet normal -9.999748e-001  -0.000000e+000 -7.088836e-003
    outer loop
      vertex -3.483493e+001 -3.060000e+001  3.395200e+000
      vertex -3.483493e+001  3.060000e+001  3.395200e+000
      vertex -3.478330e+001 -3.060000e+001 -3.888710e+000
    endloop
  endfacet
  facet normal -9.999748e-001  0.000000e+000 -7.088836e-003
    outer loop
      vertex -3.478330e+001 -3.060000e+001 -3.888710e+000
      vertex -3.483493e+001  3.060000e+001  3.395200e+000
      vertex -3.478330e+001  3.060000e+001 -3.888710e+000
    endloop
  endfacet
  facet normal -9.768519e-001  -0.000000e+000 -2.139168e-001
    outer loop
      vertex -3.478330e+001 -3.060000e+001 -3.888710e+000
      vertex -3.478330e+001  3.060000e+001 -3.888710e+000
      vertex -3.322511e+001 -3.060000e+001 -1.100419e+001
    endloop
  endfacet
  facet normal -9.768519e-001  0.000000e+000 -2.139168e-001
    outer loop
      vertex -3.322511e+001 -3.060000e+001 -1.100419e+001
      vertex -3.478330e+001  3.060000e+001 -3.888710e+000
      vertex -3.322511e+001  3.060000e+001 -1.100419e+001
    endloop
  endfacet
  facet normal -9.114187e-001  -0.000000e+000 -4.114801e-001
    outer loop
      vertex -3.322511e+001 -3.060000e+001 -1.100419e+001
      vertex -3.322511e+001  3.060000e+001 -1.100419e+001
      vertex -3.022785e+001 -3.060000e+001 -1.764305e+001
    endloop
  endfacet
  facet normal -9.114187e-001  0.000000e+000 -4.114801e-001
    outer loop
      vertex -3.022785e+001 -3.060000e+001 -1.764305e+001
      vertex -3.322511e+001  3.060000e+001 -1.100419e+001
      vertex -3.022785e+001  3.060000e+001 -1.764305e+001
    endloop
  endfacet
  facet normal -8.065097e-001  -0.000000e+000 -5.912209e-001
    outer loop
      vertex -3.022785e+001 -3.060000e+001 -1.764305e+001
      vertex -3.022785e+001  3.060000e+001 -1.764305e+001
      vertex -2.592134e+001 -3.060000e+001 -2.351774e+001
    endloop
  endfacet
  facet normal -8.065097e-001  0.000000e+000 -5.912209e-001
    outer loop
      vertex -2.592134e+001 -3.060000e+001 -2.351774e+001
      vertex -3.022785e+001  3.060000e+001 -1.764305e+001
      vertex -2.592134e+001  3.060000e+001 -2.351774e+001
    endloop
  endfacet
  facet normal -6.666685e-001  -0.000000e+000 -7.453543e-001
    outer loop
      vertex -2.592134e+001 -3.060000e+001 -2.351774e+001
      vertex -2.592134e+001  3.060000e+001 -2.351774e+001
      vertex -2.049211e+001 -3.060000e+001 -2.837381e+001
    endloop
  endfacet
  facet normal -6.666685e-001  0.000000e+000 -7.453543e-001
    outer loop
      vertex -2.049211e+001 -3.060000e+001 -2.837381e+001
      vertex -2.592134e+001  3.060000e+001 -2.351774e+001
      vertex -2.049211e+001  3.060000e+001 -2.837381e+001
    endloop
  endfacet
  facet normal -4.979521e-001  -0.000000e+000 -8.672045e-001
    outer loop
      vertex -2.049211e+001 -3.060000e+001 -2.837381e+001
      vertex -2.049211e+001  3.060000e+001 -2.837381e+001
      vertex -1.417532e+001 -3.060000e+001 -3.200094e+001
    endloop
  endfacet
  facet normal -4.979521e-001  0.000000e+000 -8.672045e-001
    outer loop
      vertex -1.417532e+001 -3.060000e+001 -3.200094e+001
      vertex -2.049211e+001  3.060000e+001 -2.837381e+001
      vertex -1.417532e+001  3.060000e+001 -3.200094e+001
    endloop
  endfacet
  facet normal -3.076684e-001  -0.000000e+000 -9.514937e-001
    outer loop
      vertex -1.417532e+001 -3.060000e+001 -3.200094e+001
      vertex -1.417532e+001  3.060000e+001 -3.200094e+001
      vertex -7.244548e+000 -3.060000e+001 -3.424203e+001
    endloop
  endfacet
  facet normal -3.076684e-001  0.000000e+000 -9.514937e-001
    outer loop
      vertex -7.244548e+000 -3.060000e+001 -3.424203e+001
      vertex -1.417532e+001  3.060000e+001 -3.200094e+001
      vertex -7.244548e+000  3.060000e+001 -3.424203e+001
    endloop
  endfacet
  facet normal -1.040586e-001  -0.000000e+000 -9.945711e-001
    outer loop
      vertex -7.244548e+000 -3.060000e+001 -3.424203e+001
      vertex -7.244548e+000  3.060000e+001 -3.424203e+001
      vertex  6.429183e-015 -3.060000e+001 -3.500000e+001
    endloop
  endfacet
  facet normal -1.040586e-001  0.000000e+000 -9.945711e-001
    outer loop
      vertex  6.429183e-015 -3.060000e+001 -3.500000e+001
      vertex -7.244548e+000  3.060000e+001 -3.424203e+001
      vertex  6.429183e-015  3.060000e+001 -3.500000e+001
    endloop
  endfacet
  facet normal  1.040586e-001  0.000000e+000 -9.945711e-001
    outer loop
      vertex  6.429183e-015 -3.060000e+001 -3.500000e+001
      vertex  6.429183e-015  3.060000e+001 -3.500000e+001
      vertex  7.244548e+000 -3.060000e+001 -3.424203e+001
    endloop
  endfacet
  facet normal  1.040586e-001  0.000000e+000 -9.945711e-001
    outer loop
      vertex  7.244548e+000 -3.060000e+001 -3.424203e+001
      vertex  6.429183e-015  3.060000e+001 -3.500000e+001
      vertex  7.244548e+000  3.060000e+001 -3.424203e+001
    endloop
  endfacet
  facet normal  3.076684e-001  0.000000e+000 -9.514937e-001
    outer loop
      vertex  7.244548e+000 -3.060000e+001 -3.424203e+001
      vertex  7.244548e+000  3.060000e+001 -3.424203e+001
      vertex  1.417532e+001 -3.060000e+001 -3.200094e+001
    endloop
  endfacet
  facet normal  3.076684e-001  0.000000e+000 -9.514937e-001
    outer loop
      vertex  1.417532e+001 -3.060000e+001 -3.200094e+001
      vertex  7.244548e+000  3.060000e+001 -3.424203e+001
      vertex  1.417532e+001  3.060000e+001 -3.200094e+001
    endloop
  endfacet
  facet normal  4.979521e-001  0.000000e+000 -8.672045e-001
    outer loop
      vertex  1.417532e+001 -3.060000e+001 -3.200094e+001
      vertex  1.417532e+001  3.060000e+001 -3.200094e+001
      vertex  2.049211e+001 -3.060000e+001 -2.837381e+001
    endloop
  endfacet
  facet normal  4.979521e-001  0.000000e+000 -8.672045e-001
    outer loop
      vertex  2.049211e+001 -3.060000e+001 -2.837381e+001
      vertex  1.417532e+001  3.060000e+001 -3.200094e+001
      vertex  2.049211e+001  3.060000e+001 -2.837381e+001
    endloop
  endfacet
  facet normal  6.666685e-001  0.000000e+000 -7.453543e-001
    outer loop
      vertex  2.049211e+001 -3.060000e+001 -2.837381e+001
      vertex  2.049211e+001  3.060000e+001 -2.837381e+001
      vertex  2.592134e+001 -3.060000e+001 -2.351774e+001
    endloop
  endfacet
  facet normal  6.666685e-001  0.000000e+000 -7.453543e-001
    outer loop
      vertex  2.592134e+001 -3.060000e+001 -2.351774e+001
      vertex  2.049211e+001  3.060000e+001 -2.837381e+001
      vertex  2.592134e+001  3.060000e+001 -2.351774e+001
    endloop
  endfacet
  facet normal  8.065097e-001  0.000000e+000 -5.912209e-001
    outer loop
      vertex  2.592134e+001 -3.060000e+001 -2.351774e+001
      vertex  2.592134e+001  3.060000e+001 -2.351774e+001
      vertex  3.022785e+001 -3.060000e+001 -1.764305e+001
    endloop
  endfacet
  facet normal  8.065097e-001  0.000000e+000 -5.912209e-001
    outer loop
      vertex  3.022785e+001 -3.060000e+001 -1.764305e+001
      vertex  2.592134e+001  3.060000e+001 -2.351774e+001
      vertex  3.022785e+001  3.060000e+001 -1.764305e+001
    endloop
  endfacet
  facet normal  9.114187e-001  0.000000e+000 -4.114801e-001
    outer loop
      vertex  3.022785e+001 -3.060000e+001 -1.764305e+001
      vertex  3.022785e+001  3.060000e+001 -1.764305e+001
      vertex  3.322511e+001 -3.060000e+001 -1.100419e+001
    endloop
  endfacet
  facet normal  9.114187e-001  0.000000e+000 -4.114801e-001
    outer loop
      vertex  3.322511e+001 -3.060000e+001 -1.100419e+001
      vertex  3.022785e+001  3.060000e+001 -1.764305e+001
      vertex  3.322511e+001  3.060000e+001 -1.100419e+001
    endloop
  endfacet
  facet normal  9.768519e-001  0.000000e+000 -2.139168e-001
    outer loop
      vertex  3.322511e+001 -3.060000e+001 -1.100419e+001
      vertex  3.322511e+001  3.060000e+001 -1.100419e+001
      vertex  3.478330e+001 -3.060000e+001 -3.888710e+000
    endloop
  endfacet
  facet normal  9.768519e-001  0.000000e+000 -2.139168e-001
    outer loop
      vertex  3.478330e+001 -3.060000e+001 -3.888710e+000
      vertex  3.322511e+001  3.060000e+001 -1.100419e+001
      vertex  3.478330e+001  3.060000e+001 -3.888710e+000
    endloop
  endfacet
  facet normal  9.999748e-001  0.000000e+000 -7.088836e-003
    outer loop
      vertex  3.478330e+001 -3.060000e+001 -3.888710e+000
      vertex  3.478330e+001  3.060000e+001 -3.888710e+000
      vertex  3.483493e+001 -3.060000e+001  3.395200e+000
    endloop
  endfacet
  facet normal  9.999748e-001  0.000000e+000 -7.088836e-003
    outer loop
      vertex  3.483493e+001 -3.060000e+001  3.395200e+000
      vertex  3.478330e+001  3.060000e+001 -3.888710e+000
      vertex  3.483493e+001  3.060000e+001  3.395200e+000
    endloop
  endfacet
  facet normal  9.797863e-001  0.000000e+000  2.000470e-001
    outer loop
      vertex  3.483493e+001 -3.060000e+001  3.395200e+000
      vertex  3.483493e+001  3.060000e+001  3.395200e+000
      vertex  3.337777e+001 -3.060000e+001  1.053205e+001
    endloop
  endfacet
  facet normal  9.797863e-001  -0.000000e+000  2.000470e-001
    outer loop
      vertex  3.337777e+001 -3.060000e+001  1.053205e+001
      vertex  3.483493e+001  3.060000e+001  3.395200e+000
      vertex  3.337777e+001  3.060000e+001  1.053205e+001
    endloop
  endfacet
endsolid CATIA STL
