solid CATIA STL
  facet normal  -0.000000e+000  0.000000e+000  1.000000e+000
    outer loop
      vertex  4.000000e+001  8.000000e+000  1.000000e+001
      vertex  4.898425e-016  8.000000e+000  1.000000e+001
      vertex  4.306147e+001  7.391036e+000  1.000000e+001
    endloop
  endfacet
  facet normal  0.000000e+000  0.000000e+000  9.999999e-001
    outer loop
      vertex  4.306147e+001  7.391036e+000  1.000000e+001
      vertex  4.898425e-016  8.000000e+000  1.000000e+001
      vertex -3.061467e+000  7.391036e+000  1.000000e+001
    endloop
  endfacet
  facet normal  -0.000000e+000  0.000000e+000  1.000000e+000
    outer loop
      vertex  4.306147e+001  7.391036e+000  1.000000e+001
      vertex -3.061467e+000  7.391036e+000  1.000000e+001
      vertex  4.565685e+001  5.656854e+000  1.000000e+001
    endloop
  endfacet
  facet normal  0.000000e+000  0.000000e+000  1.000000e+000
    outer loop
      vertex  4.565685e+001  5.656854e+000  1.000000e+001
      vertex -3.061467e+000  7.391036e+000  1.000000e+001
      vertex -5.656854e+000  5.656854e+000  1.000000e+001
    endloop
  endfacet
  facet normal  -0.000000e+000  0.000000e+000  1.000000e+000
    outer loop
      vertex  4.565685e+001  5.656854e+000  1.000000e+001
      vertex -5.656854e+000  5.656854e+000  1.000000e+001
      vertex  4.739104e+001  3.061467e+000  1.000000e+001
    endloop
  endfacet
  facet normal  0.000000e+000  0.000000e+000  1.000000e+000
    outer loop
      vertex  4.739104e+001  3.061467e+000  1.000000e+001
      vertex -5.656854e+000  5.656854e+000  1.000000e+001
      vertex -7.391036e+000  3.061467e+000  1.000000e+001
    endloop
  endfacet
  facet normal  -0.000000e+000  0.000000e+000  1.000000e+000
    outer loop
      vertex  4.739104e+001  3.061467e+000  1.000000e+001
      vertex -7.391036e+000  3.061467e+000  1.000000e+001
      vertex  4.800000e+001 -1.959370e-015  1.000000e+001
    endloop
  endfacet
  facet normal  0.000000e+000  0.000000e+000  9.999999e-001
    outer loop
      vertex  4.800000e+001 -1.959370e-015  1.000000e+001
      vertex -7.391036e+000  3.061467e+000  1.000000e+001
      vertex -8.000000e+000  9.796851e-016  1.000000e+001
    endloop
  endfacet
  facet normal  0.000000e+000  0.000000e+000  9.999999e-001
    outer loop
      vertex  4.800000e+001 -1.959370e-015  1.000000e+001
      vertex -8.000000e+000  9.796851e-016  1.000000e+001
      vertex  4.739104e+001 -3.061467e+000  1.000000e+001
    endloop
  endfacet
  facet normal  0.000000e+000  0.000000e+000  1.000000e+000
    outer loop
      vertex  4.739104e+001 -3.061467e+000  1.000000e+001
      vertex -8.000000e+000  9.796851e-016  1.000000e+001
      vertex -7.391036e+000 -3.061467e+000  1.000000e+001
    endloop
  endfacet
  facet normal  -0.000000e+000  0.000000e+000  1.000000e+000
    outer loop
      vertex  4.739104e+001 -3.061467e+000  1.000000e+001
      vertex -7.391036e+000 -3.061467e+000  1.000000e+001
      vertex  4.565685e+001 -5.656854e+000  1.000000e+001
    endloop
  endfacet
  facet normal  0.000000e+000  0.000000e+000  1.000000e+000
    outer loop
      vertex  4.565685e+001 -5.656854e+000  1.000000e+001
      vertex -7.391036e+000 -3.061467e+000  1.000000e+001
      vertex -5.656854e+000 -5.656854e+000  1.000000e+001
    endloop
  endfacet
  facet normal  -0.000000e+000  0.000000e+000  1.000000e+000
    outer loop
      vertex  4.565685e+001 -5.656854e+000  1.000000e+001
      vertex -5.656854e+000 -5.656854e+000  1.000000e+001
      vertex  4.306147e+001 -7.391036e+000  1.000000e+001
    endloop
  endfacet
  facet normal  0.000000e+000  0.000000e+000  1.000000e+000
    outer loop
      vertex  4.306147e+001 -7.391036e+000  1.000000e+001
      vertex -5.656854e+000 -5.656854e+000  1.000000e+001
      vertex -3.061467e+000 -7.391036e+000  1.000000e+001
    endloop
  endfacet
  facet normal  -0.000000e+000  0.000000e+000  9.999999e-001
    outer loop
      vertex  4.306147e+001 -7.391036e+000  1.000000e+001
      vertex -3.061467e+000 -7.391036e+000  1.000000e+001
      vertex  4.000000e+001 -8.000000e+000  1.000000e+001
    endloop
  endfacet
  facet normal  0.000000e+000  0.000000e+000  1.000000e+000
    outer loop
      vertex  4.000000e+001 -8.000000e+000  1.000000e+001
      vertex -3.061467e+000 -7.391036e+000  1.000000e+001
      vertex -1.469528e-015 -8.000000e+000  1.000000e+001
    endloop
  endfacet
  facet normal  -0.000000e+000  0.000000e+000 -1.000000e+000
    outer loop
      vertex  4.898425e-016  8.000000e+000  0.000000e+000
      vertex  4.000000e+001  8.000000e+000  0.000000e+000
      vertex -3.061467e+000  7.391036e+000  0.000000e+000
    endloop
  endfacet
  facet normal  0.000000e+000  0.000000e+000 -9.999999e-001
    outer loop
      vertex -3.061467e+000  7.391036e+000  0.000000e+000
      vertex  4.000000e+001  8.000000e+000  0.000000e+000
      vertex  4.306147e+001  7.391036e+000  0.000000e+000
    endloop
  endfacet
  facet normal  -0.000000e+000  0.000000e+000 -1.000000e+000
    outer loop
      vertex -3.061467e+000  7.391036e+000  0.000000e+000
      vertex  4.306147e+001  7.391036e+000  0.000000e+000
      vertex -5.656854e+000  5.656854e+000  0.000000e+000
    endloop
  endfacet
  facet normal  0.000000e+000  0.000000e+000 -1.000000e+000
    outer loop
      vertex -5.656854e+000  5.656854e+000  0.000000e+000
      vertex  4.306147e+001  7.391036e+000  0.000000e+000
      vertex  4.565685e+001  5.656854e+000  0.000000e+000
    endloop
  endfacet
  facet normal  -0.000000e+000  0.000000e+000 -1.000000e+000
    outer loop
      vertex -5.656854e+000  5.656854e+000  0.000000e+000
      vertex  4.565685e+001  5.656854e+000  0.000000e+000
      vertex -7.391036e+000  3.061467e+000  0.000000e+000
    endloop
  endfacet
  facet normal  0.000000e+000  0.000000e+000 -1.000000e+000
    outer loop
      vertex -7.391036e+000  3.061467e+000  0.000000e+000
      vertex  4.565685e+001  5.656854e+000  0.000000e+000
      vertex  4.739104e+001  3.061467e+000  0.000000e+000
    endloop
  endfacet
  facet normal  -0.000000e+000  0.000000e+000 -1.000000e+000
    outer loop
      vertex -7.391036e+000  3.061467e+000  0.000000e+000
      vertex  4.739104e+001  3.061467e+000  0.000000e+000
      vertex -8.000000e+000  9.796851e-016  0.000000e+000
    endloop
  endfacet
  facet normal  0.000000e+000  0.000000e+000 -9.999999e-001
    outer loop
      vertex -8.000000e+000  9.796851e-016  0.000000e+000
      vertex  4.739104e+001  3.061467e+000  0.000000e+000
      vertex  4.800000e+001 -1.959370e-015  0.000000e+000
    endloop
  endfacet
  facet normal  -0.000000e+000  0.000000e+000 -9.999999e-001
    outer loop
      vertex -8.000000e+000  9.796851e-016  0.000000e+000
      vertex  4.800000e+001 -1.959370e-015  0.000000e+000
      vertex -7.391036e+000 -3.061467e+000  0.000000e+000
    endloop
  endfacet
  facet normal  0.000000e+000  0.000000e+000 -1.000000e+000
    outer loop
      vertex -7.391036e+000 -3.061467e+000  0.000000e+000
      vertex  4.800000e+001 -1.959370e-015  0.000000e+000
      vertex  4.739104e+001 -3.061467e+000  0.000000e+000
    endloop
  endfacet
  facet normal  -0.000000e+000  0.000000e+000 -1.000000e+000
    outer loop
      vertex -7.391036e+000 -3.061467e+000  0.000000e+000
      vertex  4.739104e+001 -3.061467e+000  0.000000e+000
      vertex -5.656854e+000 -5.656854e+000  0.000000e+000
    endloop
  endfacet
  facet normal  0.000000e+000  0.000000e+000 -1.000000e+000
    outer loop
      vertex -5.656854e+000 -5.656854e+000  0.000000e+000
      vertex  4.739104e+001 -3.061467e+000  0.000000e+000
      vertex  4.565685e+001 -5.656854e+000  0.000000e+000
    endloop
  endfacet
  facet normal  -0.000000e+000  0.000000e+000 -1.000000e+000
    outer loop
      vertex -5.656854e+000 -5.656854e+000  0.000000e+000
      vertex  4.565685e+001 -5.656854e+000  0.000000e+000
      vertex -3.061467e+000 -7.391036e+000  0.000000e+000
    endloop
  endfacet
  facet normal  0.000000e+000  0.000000e+000 -1.000000e+000
    outer loop
      vertex -3.061467e+000 -7.391036e+000  0.000000e+000
      vertex  4.565685e+001 -5.656854e+000  0.000000e+000
      vertex  4.306147e+001 -7.391036e+000  0.000000e+000
    endloop
  endfacet
  facet normal  -0.000000e+000  0.000000e+000 -9.999999e-001
    outer loop
      vertex -3.061467e+000 -7.391036e+000  0.000000e+000
      vertex  4.306147e+001 -7.391036e+000  0.000000e+000
      vertex -1.469528e-015 -8.000000e+000  0.000000e+000
    endloop
  endfacet
  facet normal  0.000000e+000  0.000000e+000 -1.000000e+000
    outer loop
      vertex -1.469528e-015 -8.000000e+000  0.000000e+000
      vertex  4.306147e+001 -7.391036e+000  0.000000e+000
      vertex  4.000000e+001 -8.000000e+000  0.000000e+000
    endloop
  endfacet
  facet normal  0.000000e+000  1.000000e+000  0.000000e+000
    outer loop
      vertex  4.898425e-016  8.000000e+000  0.000000e+000
      vertex  4.898425e-016  8.000000e+000  1.000000e+001
      vertex  4.000000e+001  8.000000e+000  0.000000e+000
    endloop
  endfacet
  facet normal  0.000000e+000  1.000000e+000  -0.000000e+000
    outer loop
      vertex  4.000000e+001  8.000000e+000  0.000000e+000
      vertex  4.898425e-016  8.000000e+000  1.000000e+001
      vertex  4.000000e+001  8.000000e+000  1.000000e+001
    endloop
  endfacet
  facet normal  1.950905e-001  9.807853e-001  0.000000e+000
    outer loop
      vertex  4.000000e+001  8.000000e+000  0.000000e+000
      vertex  4.000000e+001  8.000000e+000  1.000000e+001
      vertex  4.306147e+001  7.391036e+000  0.000000e+000
    endloop
  endfacet
  facet normal  1.950905e-001  9.807853e-001  -0.000000e+000
    outer loop
      vertex  4.306147e+001  7.391036e+000  0.000000e+000
      vertex  4.000000e+001  8.000000e+000  1.000000e+001
      vertex  4.306147e+001  7.391036e+000  1.000000e+001
    endloop
  endfacet
  facet normal  5.555702e-001  8.314696e-001  0.000000e+000
    outer loop
      vertex  4.306147e+001  7.391036e+000  0.000000e+000
      vertex  4.306147e+001  7.391036e+000  1.000000e+001
      vertex  4.565685e+001  5.656854e+000  0.000000e+000
    endloop
  endfacet
  facet normal  5.555702e-001  8.314696e-001  -0.000000e+000
    outer loop
      vertex  4.565685e+001  5.656854e+000  0.000000e+000
      vertex  4.306147e+001  7.391036e+000  1.000000e+001
      vertex  4.565685e+001  5.656854e+000  1.000000e+001
    endloop
  endfacet
  facet normal  8.314693e-001  5.555707e-001  0.000000e+000
    outer loop
      vertex  4.565685e+001  5.656854e+000  0.000000e+000
      vertex  4.565685e+001  5.656854e+000  1.000000e+001
      vertex  4.739104e+001  3.061467e+000  0.000000e+000
    endloop
  endfacet
  facet normal  8.314693e-001  5.555707e-001  -0.000000e+000
    outer loop
      vertex  4.739104e+001  3.061467e+000  0.000000e+000
      vertex  4.565685e+001  5.656854e+000  1.000000e+001
      vertex  4.739104e+001  3.061467e+000  1.000000e+001
    endloop
  endfacet
  facet normal  9.807853e-001  1.950901e-001  0.000000e+000
    outer loop
      vertex  4.739104e+001  3.061467e+000  0.000000e+000
      vertex  4.739104e+001  3.061467e+000  1.000000e+001
      vertex  4.800000e+001 -1.959370e-015  0.000000e+000
    endloop
  endfacet
  facet normal  9.807853e-001  1.950901e-001  -0.000000e+000
    outer loop
      vertex  4.800000e+001 -1.959370e-015  0.000000e+000
      vertex  4.739104e+001  3.061467e+000  1.000000e+001
      vertex  4.800000e+001 -1.959370e-015  1.000000e+001
    endloop
  endfacet
  facet normal  9.807853e-001 -1.950901e-001  0.000000e+000
    outer loop
      vertex  4.800000e+001 -1.959370e-015  0.000000e+000
      vertex  4.800000e+001 -1.959370e-015  1.000000e+001
      vertex  4.739104e+001 -3.061467e+000  0.000000e+000
    endloop
  endfacet
  facet normal  9.807853e-001 -1.950901e-001  0.000000e+000
    outer loop
      vertex  4.739104e+001 -3.061467e+000  0.000000e+000
      vertex  4.800000e+001 -1.959370e-015  1.000000e+001
      vertex  4.739104e+001 -3.061467e+000  1.000000e+001
    endloop
  endfacet
  facet normal  8.314693e-001 -5.555707e-001  0.000000e+000
    outer loop
      vertex  4.739104e+001 -3.061467e+000  0.000000e+000
      vertex  4.739104e+001 -3.061467e+000  1.000000e+001
      vertex  4.565685e+001 -5.656854e+000  0.000000e+000
    endloop
  endfacet
  facet normal  8.314693e-001 -5.555707e-001  0.000000e+000
    outer loop
      vertex  4.565685e+001 -5.656854e+000  0.000000e+000
      vertex  4.739104e+001 -3.061467e+000  1.000000e+001
      vertex  4.565685e+001 -5.656854e+000  1.000000e+001
    endloop
  endfacet
  facet normal  5.555702e-001 -8.314696e-001  0.000000e+000
    outer loop
      vertex  4.565685e+001 -5.656854e+000  0.000000e+000
      vertex  4.565685e+001 -5.656854e+000  1.000000e+001
      vertex  4.306147e+001 -7.391036e+000  0.000000e+000
    endloop
  endfacet
  facet normal  5.555702e-001 -8.314696e-001  0.000000e+000
    outer loop
      vertex  4.306147e+001 -7.391036e+000  0.000000e+000
      vertex  4.565685e+001 -5.656854e+000  1.000000e+001
      vertex  4.306147e+001 -7.391036e+000  1.000000e+001
    endloop
  endfacet
  facet normal  1.950905e-001 -9.807853e-001  0.000000e+000
    outer loop
      vertex  4.306147e+001 -7.391036e+000  0.000000e+000
      vertex  4.306147e+001 -7.391036e+000  1.000000e+001
      vertex  4.000000e+001 -8.000000e+000  0.000000e+000
    endloop
  endfacet
  facet normal  1.950905e-001 -9.807853e-001  0.000000e+000
    outer loop
      vertex  4.000000e+001 -8.000000e+000  0.000000e+000
      vertex  4.306147e+001 -7.391036e+000  1.000000e+001
      vertex  4.000000e+001 -8.000000e+000  1.000000e+001
    endloop
  endfacet
  facet normal  0.000000e+000 -1.000000e+000  -0.000000e+000
    outer loop
      vertex  4.000000e+001 -8.000000e+000  0.000000e+000
      vertex  4.000000e+001 -8.000000e+000  1.000000e+001
      vertex -1.469528e-015 -8.000000e+000  0.000000e+000
    endloop
  endfacet
  facet normal  0.000000e+000 -1.000000e+000  0.000000e+000
    outer loop
      vertex -1.469528e-015 -8.000000e+000  0.000000e+000
      vertex  4.000000e+001 -8.000000e+000  1.000000e+001
      vertex -1.469528e-015 -8.000000e+000  1.000000e+001
    endloop
  endfacet
  facet normal -1.950904e-001 -9.807853e-001  -0.000000e+000
    outer loop
      vertex -1.469528e-015 -8.000000e+000  0.000000e+000
      vertex -1.469528e-015 -8.000000e+000  1.000000e+001
      vertex -3.061467e+000 -7.391036e+000  0.000000e+000
    endloop
  endfacet
  facet normal -1.950904e-001 -9.807853e-001  0.000000e+000
    outer loop
      vertex -3.061467e+000 -7.391036e+000  0.000000e+000
      vertex -1.469528e-015 -8.000000e+000  1.000000e+001
      vertex -3.061467e+000 -7.391036e+000  1.000000e+001
    endloop
  endfacet
  facet normal -5.555702e-001 -8.314695e-001  -0.000000e+000
    outer loop
      vertex -3.061467e+000 -7.391036e+000  0.000000e+000
      vertex -3.061467e+000 -7.391036e+000  1.000000e+001
      vertex -5.656854e+000 -5.656854e+000  0.000000e+000
    endloop
  endfacet
  facet normal -5.555702e-001 -8.314695e-001  0.000000e+000
    outer loop
      vertex -5.656854e+000 -5.656854e+000  0.000000e+000
      vertex -3.061467e+000 -7.391036e+000  1.000000e+001
      vertex -5.656854e+000 -5.656854e+000  1.000000e+001
    endloop
  endfacet
  facet normal -8.314695e-001 -5.555702e-001  -0.000000e+000
    outer loop
      vertex -5.656854e+000 -5.656854e+000  0.000000e+000
      vertex -5.656854e+000 -5.656854e+000  1.000000e+001
      vertex -7.391036e+000 -3.061467e+000  0.000000e+000
    endloop
  endfacet
  facet normal -8.314695e-001 -5.555702e-001  0.000000e+000
    outer loop
      vertex -7.391036e+000 -3.061467e+000  0.000000e+000
      vertex -5.656854e+000 -5.656854e+000  1.000000e+001
      vertex -7.391036e+000 -3.061467e+000  1.000000e+001
    endloop
  endfacet
  facet normal -9.807853e-001 -1.950904e-001  -0.000000e+000
    outer loop
      vertex -7.391036e+000 -3.061467e+000  0.000000e+000
      vertex -7.391036e+000 -3.061467e+000  1.000000e+001
      vertex -8.000000e+000  9.796851e-016  0.000000e+000
    endloop
  endfacet
  facet normal -9.807853e-001 -1.950904e-001  0.000000e+000
    outer loop
      vertex -8.000000e+000  9.796851e-016  0.000000e+000
      vertex -7.391036e+000 -3.061467e+000  1.000000e+001
      vertex -8.000000e+000  9.796851e-016  1.000000e+001
    endloop
  endfacet
  facet normal -9.807853e-001  1.950904e-001  0.000000e+000
    outer loop
      vertex -8.000000e+000  9.796851e-016  0.000000e+000
      vertex -8.000000e+000  9.796851e-016  1.000000e+001
      vertex -7.391036e+000  3.061467e+000  0.000000e+000
    endloop
  endfacet
  facet normal -9.807853e-001  1.950904e-001  0.000000e+000
    outer loop
      vertex -7.391036e+000  3.061467e+000  0.000000e+000
      vertex -8.000000e+000  9.796851e-016  1.000000e+001
      vertex -7.391036e+000  3.061467e+000  1.000000e+001
    endloop
  endfacet
  facet normal -8.314695e-001  5.555702e-001  0.000000e+000
    outer loop
      vertex -7.391036e+000  3.061467e+000  0.000000e+000
      vertex -7.391036e+000  3.061467e+000  1.000000e+001
      vertex -5.656854e+000  5.656854e+000  0.000000e+000
    endloop
  endfacet
  facet normal -8.314695e-001  5.555702e-001  0.000000e+000
    outer loop
      vertex -5.656854e+000  5.656854e+000  0.000000e+000
      vertex -7.391036e+000  3.061467e+000  1.000000e+001
      vertex -5.656854e+000  5.656854e+000  1.000000e+001
    endloop
  endfacet
  facet normal -5.555702e-001  8.314695e-001  0.000000e+000
    outer loop
      vertex -5.656854e+000  5.656854e+000  0.000000e+000
      vertex -5.656854e+000  5.656854e+000  1.000000e+001
      vertex -3.061467e+000  7.391036e+000  0.000000e+000
    endloop
  endfacet
  facet normal -5.555702e-001  8.314695e-001  0.000000e+000
    outer loop
      vertex -3.061467e+000  7.391036e+000  0.000000e+000
      vertex -5.656854e+000  5.656854e+000  1.000000e+001
      vertex -3.061467e+000  7.391036e+000  1.000000e+001
    endloop
  endfacet
  facet normal -1.950904e-001  9.807853e-001  0.000000e+000
    outer loop
      vertex -3.061467e+000  7.391036e+000  0.000000e+000
      vertex -3.061467e+000  7.391036e+000  1.000000e+001
      vertex  4.898425e-016  8.000000e+000  0.000000e+000
    endloop
  endfacet
  facet normal -1.950904e-001  9.807853e-001  0.000000e+000
    outer loop
      vertex  4.898425e-016  8.000000e+000  0.000000e+000
      vertex -3.061467e+000  7.391036e+000  1.000000e+001
      vertex  4.898425e-016  8.000000e+000  1.000000e+001
    endloop
  endfacet
endsolid CATIA STL
