solid CATIA STL
  facet normal  0.000000e+000  1.000000e+000  0.000000e+000
    outer loop
      vertex  2.250000e+001  1.000000e+001 -7.500000e+000
      vertex  2.250000e+001  1.000000e+001  7.500000e+000
      vertex  2.991852e+001  1.000000e+001  5.176381e+000
    endloop
  endfacet
  facet normal  0.000000e+000  9.999999e-001  0.000000e+000
    outer loop
      vertex  2.250000e+001  1.000000e+001 -7.500000e+000
      vertex  2.991852e+001  1.000000e+001  5.176381e+000
      vertex  3.060000e+001  1.000000e+001  2.449213e-015
    endloop
  endfacet
  facet normal  0.000000e+000  1.000000e+000  0.000000e+000
    outer loop
      vertex  2.250000e+001  1.000000e+001 -7.500000e+000
      vertex  3.060000e+001  1.000000e+001  2.449213e-015
      vertex  2.991852e+001  1.000000e+001 -5.176381e+000
    endloop
  endfacet
  facet normal  0.000000e+000  9.999999e-001  0.000000e+000
    outer loop
      vertex  2.250000e+001  1.000000e+001 -7.500000e+000
      vertex  2.991852e+001  1.000000e+001 -5.176381e+000
      vertex  2.792051e+001  1.000000e+001 -1.000000e+001
    endloop
  endfacet
  facet normal  0.000000e+000  1.000000e+000  0.000000e+000
    outer loop
      vertex  2.250000e+001  1.000000e+001 -7.500000e+000
      vertex  2.792051e+001  1.000000e+001 -1.000000e+001
      vertex  2.474214e+001  1.000000e+001 -1.414214e+001
    endloop
  endfacet
  facet normal  0.000000e+000  1.000000e+000  0.000000e+000
    outer loop
      vertex  2.250000e+001  1.000000e+001 -7.500000e+000
      vertex  2.474214e+001  1.000000e+001 -1.414214e+001
      vertex  2.060000e+001  1.000000e+001 -1.732051e+001
    endloop
  endfacet
  facet normal  0.000000e+000  1.000000e+000  -0.000000e+000
    outer loop
      vertex  2.250000e+001  1.000000e+001 -7.500000e+000
      vertex  2.060000e+001  1.000000e+001 -1.732051e+001
      vertex  1.577638e+001  1.000000e+001 -1.931852e+001
    endloop
  endfacet
  facet normal  0.000000e+000  1.000000e+000  -0.000000e+000
    outer loop
      vertex  2.250000e+001  1.000000e+001 -7.500000e+000
      vertex  1.577638e+001  1.000000e+001 -1.931852e+001
      vertex  1.060000e+001  1.000000e+001 -2.000000e+001
    endloop
  endfacet
  facet normal  0.000000e+000  1.000000e+000  -0.000000e+000
    outer loop
      vertex  2.250000e+001  1.000000e+001 -7.500000e+000
      vertex  1.060000e+001  1.000000e+001 -2.000000e+001
      vertex -1.060000e+001  1.000000e+001 -2.000000e+001
    endloop
  endfacet
  facet normal  0.000000e+000  1.000000e+000  -0.000000e+000
    outer loop
      vertex  2.250000e+001  1.000000e+001 -7.500000e+000
      vertex -1.060000e+001  1.000000e+001 -2.000000e+001
      vertex -1.577638e+001  1.000000e+001 -1.931852e+001
    endloop
  endfacet
  facet normal  0.000000e+000  1.000000e+000  -0.000000e+000
    outer loop
      vertex  2.250000e+001  1.000000e+001 -7.500000e+000
      vertex -1.577638e+001  1.000000e+001 -1.931852e+001
      vertex -2.060000e+001  1.000000e+001 -1.732051e+001
    endloop
  endfacet
  facet normal  0.000000e+000  1.000000e+000  -0.000000e+000
    outer loop
      vertex  2.250000e+001  1.000000e+001 -7.500000e+000
      vertex -2.060000e+001  1.000000e+001 -1.732051e+001
      vertex -2.250000e+001  1.000000e+001 -7.500000e+000
    endloop
  endfacet
  facet normal  0.000000e+000  1.000000e+000  0.000000e+000
    outer loop
      vertex  2.250000e+001  1.000000e+001  7.500000e+000
      vertex -2.250000e+001  1.000000e+001  7.500000e+000
      vertex -2.060000e+001  1.000000e+001  1.732051e+001
    endloop
  endfacet
  facet normal  -0.000000e+000  1.000000e+000  0.000000e+000
    outer loop
      vertex  2.250000e+001  1.000000e+001  7.500000e+000
      vertex -2.060000e+001  1.000000e+001  1.732051e+001
      vertex -1.577638e+001  1.000000e+001  1.931852e+001
    endloop
  endfacet
  facet normal  -0.000000e+000  1.000000e+000  0.000000e+000
    outer loop
      vertex  2.250000e+001  1.000000e+001  7.500000e+000
      vertex -1.577638e+001  1.000000e+001  1.931852e+001
      vertex -1.060000e+001  1.000000e+001  2.000000e+001
    endloop
  endfacet
  facet normal  -0.000000e+000  1.000000e+000  0.000000e+000
    outer loop
      vertex  2.250000e+001  1.000000e+001  7.500000e+000
      vertex -1.060000e+001  1.000000e+001  2.000000e+001
      vertex  1.060000e+001  1.000000e+001  2.000000e+001
    endloop
  endfacet
  facet normal  0.000000e+000  1.000000e+000  0.000000e+000
    outer loop
      vertex  2.250000e+001  1.000000e+001  7.500000e+000
      vertex  1.060000e+001  1.000000e+001  2.000000e+001
      vertex  1.577638e+001  1.000000e+001  1.931852e+001
    endloop
  endfacet
  facet normal  0.000000e+000  1.000000e+000  0.000000e+000
    outer loop
      vertex  2.250000e+001  1.000000e+001  7.500000e+000
      vertex  1.577638e+001  1.000000e+001  1.931852e+001
      vertex  2.060000e+001  1.000000e+001  1.732051e+001
    endloop
  endfacet
  facet normal  0.000000e+000  1.000000e+000  0.000000e+000
    outer loop
      vertex  2.250000e+001  1.000000e+001  7.500000e+000
      vertex  2.060000e+001  1.000000e+001  1.732051e+001
      vertex  2.474214e+001  1.000000e+001  1.414214e+001
    endloop
  endfacet
  facet normal  0.000000e+000  1.000000e+000  0.000000e+000
    outer loop
      vertex  2.250000e+001  1.000000e+001  7.500000e+000
      vertex  2.474214e+001  1.000000e+001  1.414214e+001
      vertex  2.792051e+001  1.000000e+001  1.000000e+001
    endloop
  endfacet
  facet normal  0.000000e+000  9.999999e-001  0.000000e+000
    outer loop
      vertex  2.250000e+001  1.000000e+001  7.500000e+000
      vertex  2.792051e+001  1.000000e+001  1.000000e+001
      vertex  2.991852e+001  1.000000e+001  5.176381e+000
    endloop
  endfacet
  facet normal  0.000000e+000  1.000000e+000  0.000000e+000
    outer loop
      vertex -2.250000e+001  1.000000e+001 -7.500000e+000
      vertex -2.060000e+001  1.000000e+001 -1.732051e+001
      vertex -2.474214e+001  1.000000e+001 -1.414214e+001
    endloop
  endfacet
  facet normal  0.000000e+000  1.000000e+000  -0.000000e+000
    outer loop
      vertex -2.250000e+001  1.000000e+001 -7.500000e+000
      vertex -2.474214e+001  1.000000e+001 -1.414214e+001
      vertex -2.792051e+001  1.000000e+001 -1.000000e+001
    endloop
  endfacet
  facet normal  0.000000e+000  9.999999e-001  -0.000000e+000
    outer loop
      vertex -2.250000e+001  1.000000e+001 -7.500000e+000
      vertex -2.792051e+001  1.000000e+001 -1.000000e+001
      vertex -2.991852e+001  1.000000e+001 -5.176381e+000
    endloop
  endfacet
  facet normal  -0.000000e+000  1.000000e+000  -0.000000e+000
    outer loop
      vertex -2.250000e+001  1.000000e+001 -7.500000e+000
      vertex -2.991852e+001  1.000000e+001 -5.176381e+000
      vertex -3.060000e+001  1.000000e+001 -4.898425e-015
    endloop
  endfacet
  facet normal  -0.000000e+000  9.999999e-001  0.000000e+000
    outer loop
      vertex -2.250000e+001  1.000000e+001 -7.500000e+000
      vertex -3.060000e+001  1.000000e+001 -4.898425e-015
      vertex -2.991852e+001  1.000000e+001  5.176381e+000
    endloop
  endfacet
  facet normal  -0.000000e+000  1.000000e+000  0.000000e+000
    outer loop
      vertex -2.250000e+001  1.000000e+001 -7.500000e+000
      vertex -2.991852e+001  1.000000e+001  5.176381e+000
      vertex -2.250000e+001  1.000000e+001  7.500000e+000
    endloop
  endfacet
  facet normal  0.000000e+000  1.000000e+000  0.000000e+000
    outer loop
      vertex -2.474214e+001  1.000000e+001  1.414214e+001
      vertex -2.060000e+001  1.000000e+001  1.732051e+001
      vertex -2.792051e+001  1.000000e+001  1.000000e+001
    endloop
  endfacet
  facet normal  -0.000000e+000  9.999999e-001  0.000000e+000
    outer loop
      vertex -2.792051e+001  1.000000e+001  1.000000e+001
      vertex -2.060000e+001  1.000000e+001  1.732051e+001
      vertex -2.250000e+001  1.000000e+001  7.500000e+000
    endloop
  endfacet
  facet normal  0.000000e+000  9.999999e-001  0.000000e+000
    outer loop
      vertex -2.792051e+001  1.000000e+001  1.000000e+001
      vertex -2.250000e+001  1.000000e+001  7.500000e+000
      vertex -2.991852e+001  1.000000e+001  5.176381e+000
    endloop
  endfacet
  facet normal -1.000000e+000  -0.000000e+000  0.000000e+000
    outer loop
      vertex -2.250000e+001  1.000000e+001  7.500000e+000
      vertex -2.250000e+001  1.500000e+001  7.500000e+000
      vertex -2.250000e+001  1.000000e+001 -7.500000e+000
    endloop
  endfacet
  facet normal -1.000000e+000  0.000000e+000  0.000000e+000
    outer loop
      vertex -2.250000e+001  1.000000e+001 -7.500000e+000
      vertex -2.250000e+001  1.500000e+001  7.500000e+000
      vertex -2.250000e+001  1.500000e+001 -7.500000e+000
    endloop
  endfacet
  facet normal  0.000000e+000  0.000000e+000 -1.000000e+000
    outer loop
      vertex -2.250000e+001  1.000000e+001 -7.500000e+000
      vertex -2.250000e+001  1.500000e+001 -7.500000e+000
      vertex  2.250000e+001  1.000000e+001 -7.500000e+000
    endloop
  endfacet
  facet normal  0.000000e+000  0.000000e+000 -1.000000e+000
    outer loop
      vertex  2.250000e+001  1.000000e+001 -7.500000e+000
      vertex -2.250000e+001  1.500000e+001 -7.500000e+000
      vertex  2.250000e+001  1.500000e+001 -7.500000e+000
    endloop
  endfacet
  facet normal  1.000000e+000  0.000000e+000  0.000000e+000
    outer loop
      vertex  2.250000e+001  1.000000e+001 -7.500000e+000
      vertex  2.250000e+001  1.500000e+001 -7.500000e+000
      vertex  2.250000e+001  1.000000e+001  7.500000e+000
    endloop
  endfacet
  facet normal  1.000000e+000  -0.000000e+000  0.000000e+000
    outer loop
      vertex  2.250000e+001  1.000000e+001  7.500000e+000
      vertex  2.250000e+001  1.500000e+001 -7.500000e+000
      vertex  2.250000e+001  1.500000e+001  7.500000e+000
    endloop
  endfacet
  facet normal  0.000000e+000  0.000000e+000  1.000000e+000
    outer loop
      vertex  2.250000e+001  1.000000e+001  7.500000e+000
      vertex  2.250000e+001  1.500000e+001  7.500000e+000
      vertex -2.250000e+001  1.000000e+001  7.500000e+000
    endloop
  endfacet
  facet normal  0.000000e+000  0.000000e+000  1.000000e+000
    outer loop
      vertex -2.250000e+001  1.000000e+001  7.500000e+000
      vertex  2.250000e+001  1.500000e+001  7.500000e+000
      vertex -2.250000e+001  1.500000e+001  7.500000e+000
    endloop
  endfacet
  facet normal  0.000000e+000  1.000000e+000  0.000000e+000
    outer loop
      vertex  2.250000e+001  1.500000e+001 -7.500000e+000
      vertex -2.250000e+001  1.500000e+001 -7.500000e+000
      vertex  2.250000e+001  1.500000e+001  7.500000e+000
    endloop
  endfacet
  facet normal  0.000000e+000  1.000000e+000  0.000000e+000
    outer loop
      vertex  2.250000e+001  1.500000e+001  7.500000e+000
      vertex -2.250000e+001  1.500000e+001 -7.500000e+000
      vertex -2.250000e+001  1.500000e+001  7.500000e+000
    endloop
  endfacet
  facet normal  0.000000e+000 -9.999999e-001  0.000000e+000
    outer loop
      vertex  1.060000e+001  0.000000e+000  2.000000e+001
      vertex -1.060000e+001  0.000000e+000  2.000000e+001
      vertex  1.577638e+001  0.000000e+000  1.931852e+001
    endloop
  endfacet
  facet normal  0.000000e+000 -9.999999e-001  0.000000e+000
    outer loop
      vertex  1.577638e+001  0.000000e+000  1.931852e+001
      vertex -1.060000e+001  0.000000e+000  2.000000e+001
      vertex -1.577638e+001  0.000000e+000  1.931852e+001
    endloop
  endfacet
  facet normal  0.000000e+000 -1.000000e+000  0.000000e+000
    outer loop
      vertex  1.577638e+001  0.000000e+000  1.931852e+001
      vertex -1.577638e+001  0.000000e+000  1.931852e+001
      vertex  2.060000e+001  0.000000e+000  1.732051e+001
    endloop
  endfacet
  facet normal  0.000000e+000 -1.000000e+000  0.000000e+000
    outer loop
      vertex  2.060000e+001  0.000000e+000  1.732051e+001
      vertex -1.577638e+001  0.000000e+000  1.931852e+001
      vertex -2.060000e+001  0.000000e+000  1.732051e+001
    endloop
  endfacet
  facet normal  0.000000e+000 -1.000000e+000  0.000000e+000
    outer loop
      vertex  2.060000e+001  0.000000e+000  1.732051e+001
      vertex -2.060000e+001  0.000000e+000  1.732051e+001
      vertex  2.474214e+001  0.000000e+000  1.414214e+001
    endloop
  endfacet
  facet normal  0.000000e+000 -1.000000e+000  0.000000e+000
    outer loop
      vertex  2.474214e+001  0.000000e+000  1.414214e+001
      vertex -2.060000e+001  0.000000e+000  1.732051e+001
      vertex -2.474214e+001  0.000000e+000  1.414214e+001
    endloop
  endfacet
  facet normal  0.000000e+000 -1.000000e+000  0.000000e+000
    outer loop
      vertex  2.474214e+001  0.000000e+000  1.414214e+001
      vertex -2.474214e+001  0.000000e+000  1.414214e+001
      vertex  2.792051e+001  0.000000e+000  1.000000e+001
    endloop
  endfacet
  facet normal  0.000000e+000 -1.000000e+000  0.000000e+000
    outer loop
      vertex  2.792051e+001  0.000000e+000  1.000000e+001
      vertex -2.474214e+001  0.000000e+000  1.414214e+001
      vertex -2.792051e+001  0.000000e+000  1.000000e+001
    endloop
  endfacet
  facet normal  0.000000e+000 -1.000000e+000  0.000000e+000
    outer loop
      vertex  2.792051e+001  0.000000e+000  1.000000e+001
      vertex -2.792051e+001  0.000000e+000  1.000000e+001
      vertex  2.991852e+001  0.000000e+000  5.176381e+000
    endloop
  endfacet
  facet normal  0.000000e+000 -1.000000e+000  0.000000e+000
    outer loop
      vertex  2.991852e+001  0.000000e+000  5.176381e+000
      vertex -2.792051e+001  0.000000e+000  1.000000e+001
      vertex -2.991852e+001  0.000000e+000  5.176381e+000
    endloop
  endfacet
  facet normal  0.000000e+000 -1.000000e+000  0.000000e+000
    outer loop
      vertex  2.991852e+001  0.000000e+000  5.176381e+000
      vertex -2.991852e+001  0.000000e+000  5.176381e+000
      vertex  3.060000e+001  0.000000e+000  2.449213e-015
    endloop
  endfacet
  facet normal  -0.000000e+000 -1.000000e+000  0.000000e+000
    outer loop
      vertex  3.060000e+001  0.000000e+000  2.449213e-015
      vertex -2.991852e+001  0.000000e+000  5.176381e+000
      vertex -3.060000e+001  0.000000e+000 -4.898425e-015
    endloop
  endfacet
  facet normal  0.000000e+000 -1.000000e+000  0.000000e+000
    outer loop
      vertex  3.060000e+001  0.000000e+000  2.449213e-015
      vertex -3.060000e+001  0.000000e+000 -4.898425e-015
      vertex  2.991852e+001  0.000000e+000 -5.176381e+000
    endloop
  endfacet
  facet normal  0.000000e+000 -1.000000e+000  0.000000e+000
    outer loop
      vertex  2.991852e+001  0.000000e+000 -5.176381e+000
      vertex -3.060000e+001  0.000000e+000 -4.898425e-015
      vertex -2.991852e+001  0.000000e+000 -5.176381e+000
    endloop
  endfacet
  facet normal  0.000000e+000 -1.000000e+000  0.000000e+000
    outer loop
      vertex  2.991852e+001  0.000000e+000 -5.176381e+000
      vertex -2.991852e+001  0.000000e+000 -5.176381e+000
      vertex  2.792051e+001  0.000000e+000 -1.000000e+001
    endloop
  endfacet
  facet normal  0.000000e+000 -1.000000e+000  0.000000e+000
    outer loop
      vertex  2.792051e+001  0.000000e+000 -1.000000e+001
      vertex -2.991852e+001  0.000000e+000 -5.176381e+000
      vertex -2.792051e+001  0.000000e+000 -1.000000e+001
    endloop
  endfacet
  facet normal  0.000000e+000 -1.000000e+000  0.000000e+000
    outer loop
      vertex  2.792051e+001  0.000000e+000 -1.000000e+001
      vertex -2.792051e+001  0.000000e+000 -1.000000e+001
      vertex  2.474214e+001  0.000000e+000 -1.414214e+001
    endloop
  endfacet
  facet normal  0.000000e+000 -1.000000e+000  0.000000e+000
    outer loop
      vertex  2.474214e+001  0.000000e+000 -1.414214e+001
      vertex -2.792051e+001  0.000000e+000 -1.000000e+001
      vertex -2.474214e+001  0.000000e+000 -1.414214e+001
    endloop
  endfacet
  facet normal  0.000000e+000 -1.000000e+000  0.000000e+000
    outer loop
      vertex  2.474214e+001  0.000000e+000 -1.414214e+001
      vertex -2.474214e+001  0.000000e+000 -1.414214e+001
      vertex  2.060000e+001  0.000000e+000 -1.732051e+001
    endloop
  endfacet
  facet normal  0.000000e+000 -1.000000e+000  0.000000e+000
    outer loop
      vertex  2.060000e+001  0.000000e+000 -1.732051e+001
      vertex -2.474214e+001  0.000000e+000 -1.414214e+001
      vertex -2.060000e+001  0.000000e+000 -1.732051e+001
    endloop
  endfacet
  facet normal  0.000000e+000 -1.000000e+000  0.000000e+000
    outer loop
      vertex  2.060000e+001  0.000000e+000 -1.732051e+001
      vertex -2.060000e+001  0.000000e+000 -1.732051e+001
      vertex  1.577638e+001  0.000000e+000 -1.931852e+001
    endloop
  endfacet
  facet normal  0.000000e+000 -1.000000e+000  0.000000e+000
    outer loop
      vertex  1.577638e+001  0.000000e+000 -1.931852e+001
      vertex -2.060000e+001  0.000000e+000 -1.732051e+001
      vertex -1.577638e+001  0.000000e+000 -1.931852e+001
    endloop
  endfacet
  facet normal  0.000000e+000 -9.999999e-001  0.000000e+000
    outer loop
      vertex  1.577638e+001  0.000000e+000 -1.931852e+001
      vertex -1.577638e+001  0.000000e+000 -1.931852e+001
      vertex  1.060000e+001  0.000000e+000 -2.000000e+001
    endloop
  endfacet
  facet normal  0.000000e+000 -9.999999e-001  0.000000e+000
    outer loop
      vertex  1.060000e+001  0.000000e+000 -2.000000e+001
      vertex -1.577638e+001  0.000000e+000 -1.931852e+001
      vertex -1.060000e+001  0.000000e+000 -2.000000e+001
    endloop
  endfacet
  facet normal  0.000000e+000  0.000000e+000  1.000000e+000
    outer loop
      vertex  1.060000e+001  0.000000e+000  2.000000e+001
      vertex  1.060000e+001  1.000000e+001  2.000000e+001
      vertex -1.060000e+001  0.000000e+000  2.000000e+001
    endloop
  endfacet
  facet normal  0.000000e+000  0.000000e+000  1.000000e+000
    outer loop
      vertex -1.060000e+001  0.000000e+000  2.000000e+001
      vertex  1.060000e+001  1.000000e+001  2.000000e+001
      vertex -1.060000e+001  1.000000e+001  2.000000e+001
    endloop
  endfacet
  facet normal -1.305263e-001  0.000000e+000  9.914448e-001
    outer loop
      vertex -1.060000e+001  0.000000e+000  2.000000e+001
      vertex -1.060000e+001  1.000000e+001  2.000000e+001
      vertex -1.577638e+001  0.000000e+000  1.931852e+001
    endloop
  endfacet
  facet normal -1.305263e-001  0.000000e+000  9.914448e-001
    outer loop
      vertex -1.577638e+001  0.000000e+000  1.931852e+001
      vertex -1.060000e+001  1.000000e+001  2.000000e+001
      vertex -1.577638e+001  1.000000e+001  1.931852e+001
    endloop
  endfacet
  facet normal -3.826831e-001  0.000000e+000  9.238796e-001
    outer loop
      vertex -1.577638e+001  0.000000e+000  1.931852e+001
      vertex -1.577638e+001  1.000000e+001  1.931852e+001
      vertex -2.060000e+001  0.000000e+000  1.732051e+001
    endloop
  endfacet
  facet normal -3.826831e-001  0.000000e+000  9.238796e-001
    outer loop
      vertex -2.060000e+001  0.000000e+000  1.732051e+001
      vertex -1.577638e+001  1.000000e+001  1.931852e+001
      vertex -2.060000e+001  1.000000e+001  1.732051e+001
    endloop
  endfacet
  facet normal -6.087615e-001  0.000000e+000  7.933532e-001
    outer loop
      vertex -2.060000e+001  0.000000e+000  1.732051e+001
      vertex -2.060000e+001  1.000000e+001  1.732051e+001
      vertex -2.474214e+001  0.000000e+000  1.414214e+001
    endloop
  endfacet
  facet normal -6.087615e-001  0.000000e+000  7.933532e-001
    outer loop
      vertex -2.474214e+001  0.000000e+000  1.414214e+001
      vertex -2.060000e+001  1.000000e+001  1.732051e+001
      vertex -2.474214e+001  1.000000e+001  1.414214e+001
    endloop
  endfacet
  facet normal -7.933534e-001  0.000000e+000  6.087613e-001
    outer loop
      vertex -2.474214e+001  0.000000e+000  1.414214e+001
      vertex -2.474214e+001  1.000000e+001  1.414214e+001
      vertex -2.792051e+001  0.000000e+000  1.000000e+001
    endloop
  endfacet
  facet normal -7.933534e-001  0.000000e+000  6.087613e-001
    outer loop
      vertex -2.792051e+001  0.000000e+000  1.000000e+001
      vertex -2.474214e+001  1.000000e+001  1.414214e+001
      vertex -2.792051e+001  1.000000e+001  1.000000e+001
    endloop
  endfacet
  facet normal -9.238795e-001  0.000000e+000  3.826835e-001
    outer loop
      vertex -2.792051e+001  0.000000e+000  1.000000e+001
      vertex -2.792051e+001  1.000000e+001  1.000000e+001
      vertex -2.991852e+001  0.000000e+000  5.176381e+000
    endloop
  endfacet
  facet normal -9.238795e-001  0.000000e+000  3.826835e-001
    outer loop
      vertex -2.991852e+001  0.000000e+000  5.176381e+000
      vertex -2.792051e+001  1.000000e+001  1.000000e+001
      vertex -2.991852e+001  1.000000e+001  5.176381e+000
    endloop
  endfacet
  facet normal -9.914448e-001  0.000000e+000  1.305263e-001
    outer loop
      vertex -2.991852e+001  0.000000e+000  5.176381e+000
      vertex -2.991852e+001  1.000000e+001  5.176381e+000
      vertex -3.060000e+001  0.000000e+000 -4.898425e-015
    endloop
  endfacet
  facet normal -9.914448e-001  0.000000e+000  1.305263e-001
    outer loop
      vertex -3.060000e+001  0.000000e+000 -4.898425e-015
      vertex -2.991852e+001  1.000000e+001  5.176381e+000
      vertex -3.060000e+001  1.000000e+001 -4.898425e-015
    endloop
  endfacet
  facet normal -9.914448e-001  -0.000000e+000 -1.305263e-001
    outer loop
      vertex -3.060000e+001  0.000000e+000 -4.898425e-015
      vertex -3.060000e+001  1.000000e+001 -4.898425e-015
      vertex -2.991852e+001  0.000000e+000 -5.176381e+000
    endloop
  endfacet
  facet normal -9.914448e-001  0.000000e+000 -1.305263e-001
    outer loop
      vertex -2.991852e+001  0.000000e+000 -5.176381e+000
      vertex -3.060000e+001  1.000000e+001 -4.898425e-015
      vertex -2.991852e+001  1.000000e+001 -5.176381e+000
    endloop
  endfacet
  facet normal -9.238795e-001  -0.000000e+000 -3.826835e-001
    outer loop
      vertex -2.991852e+001  0.000000e+000 -5.176381e+000
      vertex -2.991852e+001  1.000000e+001 -5.176381e+000
      vertex -2.792051e+001  0.000000e+000 -1.000000e+001
    endloop
  endfacet
  facet normal -9.238795e-001  0.000000e+000 -3.826835e-001
    outer loop
      vertex -2.792051e+001  0.000000e+000 -1.000000e+001
      vertex -2.991852e+001  1.000000e+001 -5.176381e+000
      vertex -2.792051e+001  1.000000e+001 -1.000000e+001
    endloop
  endfacet
  facet normal -7.933534e-001  -0.000000e+000 -6.087613e-001
    outer loop
      vertex -2.792051e+001  0.000000e+000 -1.000000e+001
      vertex -2.792051e+001  1.000000e+001 -1.000000e+001
      vertex -2.474214e+001  0.000000e+000 -1.414214e+001
    endloop
  endfacet
  facet normal -7.933534e-001  0.000000e+000 -6.087613e-001
    outer loop
      vertex -2.474214e+001  0.000000e+000 -1.414214e+001
      vertex -2.792051e+001  1.000000e+001 -1.000000e+001
      vertex -2.474214e+001  1.000000e+001 -1.414214e+001
    endloop
  endfacet
  facet normal -6.087615e-001  -0.000000e+000 -7.933532e-001
    outer loop
      vertex -2.474214e+001  0.000000e+000 -1.414214e+001
      vertex -2.474214e+001  1.000000e+001 -1.414214e+001
      vertex -2.060000e+001  0.000000e+000 -1.732051e+001
    endloop
  endfacet
  facet normal -6.087615e-001  0.000000e+000 -7.933532e-001
    outer loop
      vertex -2.060000e+001  0.000000e+000 -1.732051e+001
      vertex -2.474214e+001  1.000000e+001 -1.414214e+001
      vertex -2.060000e+001  1.000000e+001 -1.732051e+001
    endloop
  endfacet
  facet normal -3.826831e-001  -0.000000e+000 -9.238796e-001
    outer loop
      vertex -2.060000e+001  0.000000e+000 -1.732051e+001
      vertex -2.060000e+001  1.000000e+001 -1.732051e+001
      vertex -1.577638e+001  0.000000e+000 -1.931852e+001
    endloop
  endfacet
  facet normal -3.826831e-001  0.000000e+000 -9.238796e-001
    outer loop
      vertex -1.577638e+001  0.000000e+000 -1.931852e+001
      vertex -2.060000e+001  1.000000e+001 -1.732051e+001
      vertex -1.577638e+001  1.000000e+001 -1.931852e+001
    endloop
  endfacet
  facet normal -1.305263e-001  -0.000000e+000 -9.914448e-001
    outer loop
      vertex -1.577638e+001  0.000000e+000 -1.931852e+001
      vertex -1.577638e+001  1.000000e+001 -1.931852e+001
      vertex -1.060000e+001  0.000000e+000 -2.000000e+001
    endloop
  endfacet
  facet normal -1.305263e-001  0.000000e+000 -9.914448e-001
    outer loop
      vertex -1.060000e+001  0.000000e+000 -2.000000e+001
      vertex -1.577638e+001  1.000000e+001 -1.931852e+001
      vertex -1.060000e+001  1.000000e+001 -2.000000e+001
    endloop
  endfacet
  facet normal  0.000000e+000  0.000000e+000 -1.000000e+000
    outer loop
      vertex -1.060000e+001  0.000000e+000 -2.000000e+001
      vertex -1.060000e+001  1.000000e+001 -2.000000e+001
      vertex  1.060000e+001  0.000000e+000 -2.000000e+001
    endloop
  endfacet
  facet normal  0.000000e+000  0.000000e+000 -1.000000e+000
    outer loop
      vertex  1.060000e+001  0.000000e+000 -2.000000e+001
      vertex -1.060000e+001  1.000000e+001 -2.000000e+001
      vertex  1.060000e+001  1.000000e+001 -2.000000e+001
    endloop
  endfacet
  facet normal  1.305263e-001  0.000000e+000 -9.914448e-001
    outer loop
      vertex  1.060000e+001  0.000000e+000 -2.000000e+001
      vertex  1.060000e+001  1.000000e+001 -2.000000e+001
      vertex  1.577638e+001  0.000000e+000 -1.931852e+001
    endloop
  endfacet
  facet normal  1.305263e-001  0.000000e+000 -9.914448e-001
    outer loop
      vertex  1.577638e+001  0.000000e+000 -1.931852e+001
      vertex  1.060000e+001  1.000000e+001 -2.000000e+001
      vertex  1.577638e+001  1.000000e+001 -1.931852e+001
    endloop
  endfacet
  facet normal  3.826831e-001  0.000000e+000 -9.238796e-001
    outer loop
      vertex  1.577638e+001  0.000000e+000 -1.931852e+001
      vertex  1.577638e+001  1.000000e+001 -1.931852e+001
      vertex  2.060000e+001  0.000000e+000 -1.732051e+001
    endloop
  endfacet
  facet normal  3.826831e-001  0.000000e+000 -9.238796e-001
    outer loop
      vertex  2.060000e+001  0.000000e+000 -1.732051e+001
      vertex  1.577638e+001  1.000000e+001 -1.931852e+001
      vertex  2.060000e+001  1.000000e+001 -1.732051e+001
    endloop
  endfacet
  facet normal  6.087615e-001  0.000000e+000 -7.933532e-001
    outer loop
      vertex  2.060000e+001  0.000000e+000 -1.732051e+001
      vertex  2.060000e+001  1.000000e+001 -1.732051e+001
      vertex  2.474214e+001  0.000000e+000 -1.414214e+001
    endloop
  endfacet
  facet normal  6.087615e-001  0.000000e+000 -7.933532e-001
    outer loop
      vertex  2.474214e+001  0.000000e+000 -1.414214e+001
      vertex  2.060000e+001  1.000000e+001 -1.732051e+001
      vertex  2.474214e+001  1.000000e+001 -1.414214e+001
    endloop
  endfacet
  facet normal  7.933534e-001  0.000000e+000 -6.087613e-001
    outer loop
      vertex  2.474214e+001  0.000000e+000 -1.414214e+001
      vertex  2.474214e+001  1.000000e+001 -1.414214e+001
      vertex  2.792051e+001  0.000000e+000 -1.000000e+001
    endloop
  endfacet
  facet normal  7.933534e-001  0.000000e+000 -6.087613e-001
    outer loop
      vertex  2.792051e+001  0.000000e+000 -1.000000e+001
      vertex  2.474214e+001  1.000000e+001 -1.414214e+001
      vertex  2.792051e+001  1.000000e+001 -1.000000e+001
    endloop
  endfacet
  facet normal  9.238795e-001  0.000000e+000 -3.826835e-001
    outer loop
      vertex  2.792051e+001  0.000000e+000 -1.000000e+001
      vertex  2.792051e+001  1.000000e+001 -1.000000e+001
      vertex  2.991852e+001  0.000000e+000 -5.176381e+000
    endloop
  endfacet
  facet normal  9.238795e-001  0.000000e+000 -3.826835e-001
    outer loop
      vertex  2.991852e+001  0.000000e+000 -5.176381e+000
      vertex  2.792051e+001  1.000000e+001 -1.000000e+001
      vertex  2.991852e+001  1.000000e+001 -5.176381e+000
    endloop
  endfacet
  facet normal  9.914448e-001  0.000000e+000 -1.305263e-001
    outer loop
      vertex  2.991852e+001  0.000000e+000 -5.176381e+000
      vertex  2.991852e+001  1.000000e+001 -5.176381e+000
      vertex  3.060000e+001  0.000000e+000  2.449213e-015
    endloop
  endfacet
  facet normal  9.914448e-001  0.000000e+000 -1.305263e-001
    outer loop
      vertex  3.060000e+001  0.000000e+000  2.449213e-015
      vertex  2.991852e+001  1.000000e+001 -5.176381e+000
      vertex  3.060000e+001  1.000000e+001  2.449213e-015
    endloop
  endfacet
  facet normal  9.914448e-001  0.000000e+000  1.305263e-001
    outer loop
      vertex  3.060000e+001  0.000000e+000  2.449213e-015
      vertex  3.060000e+001  1.000000e+001  2.449213e-015
      vertex  2.991852e+001  0.000000e+000  5.176381e+000
    endloop
  endfacet
  facet normal  9.914448e-001  -0.000000e+000  1.305263e-001
    outer loop
      vertex  2.991852e+001  0.000000e+000  5.176381e+000
      vertex  3.060000e+001  1.000000e+001  2.449213e-015
      vertex  2.991852e+001  1.000000e+001  5.176381e+000
    endloop
  endfacet
  facet normal  9.238795e-001  0.000000e+000  3.826835e-001
    outer loop
      vertex  2.991852e+001  0.000000e+000  5.176381e+000
      vertex  2.991852e+001  1.000000e+001  5.176381e+000
      vertex  2.792051e+001  0.000000e+000  1.000000e+001
    endloop
  endfacet
  facet normal  9.238795e-001  -0.000000e+000  3.826835e-001
    outer loop
      vertex  2.792051e+001  0.000000e+000  1.000000e+001
      vertex  2.991852e+001  1.000000e+001  5.176381e+000
      vertex  2.792051e+001  1.000000e+001  1.000000e+001
    endloop
  endfacet
  facet normal  7.933534e-001  0.000000e+000  6.087613e-001
    outer loop
      vertex  2.792051e+001  0.000000e+000  1.000000e+001
      vertex  2.792051e+001  1.000000e+001  1.000000e+001
      vertex  2.474214e+001  0.000000e+000  1.414214e+001
    endloop
  endfacet
  facet normal  7.933534e-001  -0.000000e+000  6.087613e-001
    outer loop
      vertex  2.474214e+001  0.000000e+000  1.414214e+001
      vertex  2.792051e+001  1.000000e+001  1.000000e+001
      vertex  2.474214e+001  1.000000e+001  1.414214e+001
    endloop
  endfacet
  facet normal  6.087615e-001  0.000000e+000  7.933532e-001
    outer loop
      vertex  2.474214e+001  0.000000e+000  1.414214e+001
      vertex  2.474214e+001  1.000000e+001  1.414214e+001
      vertex  2.060000e+001  0.000000e+000  1.732051e+001
    endloop
  endfacet
  facet normal  6.087615e-001  -0.000000e+000  7.933532e-001
    outer loop
      vertex  2.060000e+001  0.000000e+000  1.732051e+001
      vertex  2.474214e+001  1.000000e+001  1.414214e+001
      vertex  2.060000e+001  1.000000e+001  1.732051e+001
    endloop
  endfacet
  facet normal  3.826831e-001  0.000000e+000  9.238796e-001
    outer loop
      vertex  2.060000e+001  0.000000e+000  1.732051e+001
      vertex  2.060000e+001  1.000000e+001  1.732051e+001
      vertex  1.577638e+001  0.000000e+000  1.931852e+001
    endloop
  endfacet
  facet normal  3.826831e-001  -0.000000e+000  9.238796e-001
    outer loop
      vertex  1.577638e+001  0.000000e+000  1.931852e+001
      vertex  2.060000e+001  1.000000e+001  1.732051e+001
      vertex  1.577638e+001  1.000000e+001  1.931852e+001
    endloop
  endfacet
  facet normal  1.305263e-001  0.000000e+000  9.914448e-001
    outer loop
      vertex  1.577638e+001  0.000000e+000  1.931852e+001
      vertex  1.577638e+001  1.000000e+001  1.931852e+001
      vertex  1.060000e+001  0.000000e+000  2.000000e+001
    endloop
  endfacet
  facet normal  1.305263e-001  -0.000000e+000  9.914448e-001
    outer loop
      vertex  1.060000e+001  0.000000e+000  2.000000e+001
      vertex  1.577638e+001  1.000000e+001  1.931852e+001
      vertex  1.060000e+001  1.000000e+001  2.000000e+001
    endloop
  endfacet
endsolid CATIA STL
